<?xml version="1.0" encoding="utf-8"?>
<svg xmlns="http://www.w3.org/2000/svg" xmlns:xlink="http://www.w3.org/1999/xlink" width="800" height="400" viewBox="0 0 3200 1600">
<defs>
  <clipPath id="clip700">
    <rect x="0" y="0" width="3200" height="1600"/>
  </clipPath>
</defs>
<path clip-path="url(#clip700)" d="
M0 1600 L3200 1600 L3200 0 L0 0  Z
  " fill="#ffffff" fill-rule="evenodd" fill-opacity="1"/>
<defs>
  <clipPath id="clip701">
    <rect x="640" y="0" width="2241" height="1600"/>
  </clipPath>
</defs>
<path clip-path="url(#clip700)" d="
M338.256 1343.03 L1462.1 1343.03 L1462.1 212.343 L338.256 212.343  Z
  " fill="#ffffff" fill-rule="evenodd" fill-opacity="1"/>
<defs>
  <clipPath id="clip702">
    <rect x="338" y="212" width="1125" height="1132"/>
  </clipPath>
</defs>
<polyline clip-path="url(#clip702)" style="stroke:#000000; stroke-width:2; stroke-opacity:0.1; fill:none" points="
  350.058,1343.03 350.058,212.343 
  "/>
<polyline clip-path="url(#clip702)" style="stroke:#000000; stroke-width:2; stroke-opacity:0.1; fill:none" points="
  550.101,1343.03 550.101,212.343 
  "/>
<polyline clip-path="url(#clip702)" style="stroke:#000000; stroke-width:2; stroke-opacity:0.1; fill:none" points="
  750.144,1343.03 750.144,212.343 
  "/>
<polyline clip-path="url(#clip702)" style="stroke:#000000; stroke-width:2; stroke-opacity:0.1; fill:none" points="
  950.187,1343.03 950.187,212.343 
  "/>
<polyline clip-path="url(#clip702)" style="stroke:#000000; stroke-width:2; stroke-opacity:0.1; fill:none" points="
  1150.23,1343.03 1150.23,212.343 
  "/>
<polyline clip-path="url(#clip702)" style="stroke:#000000; stroke-width:2; stroke-opacity:0.1; fill:none" points="
  1350.27,1343.03 1350.27,212.343 
  "/>
<polyline clip-path="url(#clip700)" style="stroke:#000000; stroke-width:4; stroke-opacity:1; fill:none" points="
  338.256,1343.03 1462.1,1343.03 
  "/>
<polyline clip-path="url(#clip700)" style="stroke:#000000; stroke-width:4; stroke-opacity:1; fill:none" points="
  350.058,1343.03 350.058,1329.46 
  "/>
<polyline clip-path="url(#clip700)" style="stroke:#000000; stroke-width:4; stroke-opacity:1; fill:none" points="
  550.101,1343.03 550.101,1329.46 
  "/>
<polyline clip-path="url(#clip700)" style="stroke:#000000; stroke-width:4; stroke-opacity:1; fill:none" points="
  750.144,1343.03 750.144,1329.46 
  "/>
<polyline clip-path="url(#clip700)" style="stroke:#000000; stroke-width:4; stroke-opacity:1; fill:none" points="
  950.187,1343.03 950.187,1329.46 
  "/>
<polyline clip-path="url(#clip700)" style="stroke:#000000; stroke-width:4; stroke-opacity:1; fill:none" points="
  1150.23,1343.03 1150.23,1329.46 
  "/>
<polyline clip-path="url(#clip700)" style="stroke:#000000; stroke-width:4; stroke-opacity:1; fill:none" points="
  1350.27,1343.03 1350.27,1329.46 
  "/>
<g clip-path="url(#clip700)">
<text style="fill:#000000; fill-opacity:1; font-family:Times New Roman,TimesNewRoman,Times,Baskerville,Georgia,serif; font-size:53px; text-anchor:middle;" transform="rotate(0, 350.058, 1410.63)" x="350.058" y="1410.63">0</text>
</g>
<g clip-path="url(#clip700)">
<text style="fill:#000000; fill-opacity:1; font-family:Times New Roman,TimesNewRoman,Times,Baskerville,Georgia,serif; font-size:53px; text-anchor:middle;" transform="rotate(0, 550.101, 1410.63)" x="550.101" y="1410.63">10</text>
</g>
<g clip-path="url(#clip700)">
<text style="fill:#000000; fill-opacity:1; font-family:Times New Roman,TimesNewRoman,Times,Baskerville,Georgia,serif; font-size:53px; text-anchor:middle;" transform="rotate(0, 750.144, 1410.63)" x="750.144" y="1410.63">20</text>
</g>
<g clip-path="url(#clip700)">
<text style="fill:#000000; fill-opacity:1; font-family:Times New Roman,TimesNewRoman,Times,Baskerville,Georgia,serif; font-size:53px; text-anchor:middle;" transform="rotate(0, 950.187, 1410.63)" x="950.187" y="1410.63">30</text>
</g>
<g clip-path="url(#clip700)">
<text style="fill:#000000; fill-opacity:1; font-family:Times New Roman,TimesNewRoman,Times,Baskerville,Georgia,serif; font-size:53px; text-anchor:middle;" transform="rotate(0, 1150.23, 1410.63)" x="1150.23" y="1410.63">40</text>
</g>
<g clip-path="url(#clip700)">
<text style="fill:#000000; fill-opacity:1; font-family:Times New Roman,TimesNewRoman,Times,Baskerville,Georgia,serif; font-size:53px; text-anchor:middle;" transform="rotate(0, 1350.27, 1410.63)" x="1350.27" y="1410.63">50</text>
</g>
<path clip-path="url(#clip700)" d="M 0 0 M695.235 1450.09 L699.911 1450.09 L699.911 1480.72 L716.74 1480.72 L716.74 1484.65 L695.235 1484.65 L695.235 1450.09 Z" fill="#000000" fill-rule="evenodd" fill-opacity="1" /><path clip-path="url(#clip700)" d="M 0 0 M730.42 1461.71 Q726.994 1461.71 725.004 1464.4 Q723.013 1467.06 723.013 1471.71 Q723.013 1476.37 724.98 1479.05 Q726.971 1481.71 730.42 1481.71 Q733.823 1481.71 735.814 1479.03 Q737.804 1476.34 737.804 1471.71 Q737.804 1467.11 735.814 1464.42 Q733.823 1461.71 730.42 1461.71 M730.42 1458.1 Q735.976 1458.1 739.147 1461.71 Q742.318 1465.32 742.318 1471.71 Q742.318 1478.08 739.147 1481.71 Q735.976 1485.32 730.42 1485.32 Q724.842 1485.32 721.67 1481.71 Q718.522 1478.08 718.522 1471.71 Q718.522 1465.32 721.67 1461.71 Q724.842 1458.1 730.42 1458.1 Z" fill="#000000" fill-rule="evenodd" fill-opacity="1" /><path clip-path="url(#clip700)" d="M 0 0 M765.443 1459.72 L765.443 1463.7 Q763.638 1462.71 761.809 1462.22 Q760.003 1461.71 758.152 1461.71 Q754.008 1461.71 751.716 1464.35 Q749.425 1466.97 749.425 1471.71 Q749.425 1476.46 751.716 1479.1 Q754.008 1481.71 758.152 1481.71 Q760.003 1481.71 761.809 1481.23 Q763.638 1480.72 765.443 1479.72 L765.443 1483.66 Q763.661 1484.49 761.74 1484.91 Q759.841 1485.32 757.689 1485.32 Q751.832 1485.32 748.383 1481.64 Q744.934 1477.96 744.934 1471.71 Q744.934 1465.37 748.406 1461.74 Q751.902 1458.1 757.966 1458.1 Q759.934 1458.1 761.809 1458.52 Q763.684 1458.91 765.443 1459.72 Z" fill="#000000" fill-rule="evenodd" fill-opacity="1" /><path clip-path="url(#clip700)" d="M 0 0 M769.749 1448.63 L774.031 1448.63 L774.031 1469.91 L786.739 1458.73 L792.179 1458.73 L778.429 1470.86 L792.758 1484.65 L787.202 1484.65 L774.031 1471.99 L774.031 1484.65 L769.749 1484.65 L769.749 1448.63 Z" fill="#000000" fill-rule="evenodd" fill-opacity="1" /><path clip-path="url(#clip700)" d="M 0 0 M814.286 1462.66 L814.286 1448.63 L818.545 1448.63 L818.545 1484.65 L814.286 1484.65 L814.286 1480.76 Q812.943 1483.08 810.883 1484.21 Q808.846 1485.32 805.975 1485.32 Q801.276 1485.32 798.313 1481.57 Q795.374 1477.82 795.374 1471.71 Q795.374 1465.6 798.313 1461.85 Q801.276 1458.1 805.975 1458.1 Q808.846 1458.1 810.883 1459.24 Q812.943 1460.35 814.286 1462.66 M799.772 1471.71 Q799.772 1476.41 801.693 1479.1 Q803.637 1481.76 807.017 1481.76 Q810.397 1481.76 812.341 1479.1 Q814.286 1476.41 814.286 1471.71 Q814.286 1467.01 812.341 1464.35 Q810.397 1461.67 807.017 1461.67 Q803.637 1461.67 801.693 1464.35 Q799.772 1467.01 799.772 1471.71 Z" fill="#000000" fill-rule="evenodd" fill-opacity="1" /><path clip-path="url(#clip700)" d="M 0 0 M833.059 1461.71 Q829.633 1461.71 827.642 1464.4 Q825.651 1467.06 825.651 1471.71 Q825.651 1476.37 827.619 1479.05 Q829.61 1481.71 833.059 1481.71 Q836.461 1481.71 838.452 1479.03 Q840.443 1476.34 840.443 1471.71 Q840.443 1467.11 838.452 1464.42 Q836.461 1461.71 833.059 1461.71 M833.059 1458.1 Q838.614 1458.1 841.785 1461.71 Q844.957 1465.32 844.957 1471.71 Q844.957 1478.08 841.785 1481.71 Q838.614 1485.32 833.059 1485.32 Q827.48 1485.32 824.309 1481.71 Q821.161 1478.08 821.161 1471.71 Q821.161 1465.32 824.309 1461.71 Q827.48 1458.1 833.059 1458.1 Z" fill="#000000" fill-rule="evenodd" fill-opacity="1" /><path clip-path="url(#clip700)" d="M 0 0 M846.947 1458.73 L851.207 1458.73 L856.531 1478.96 L861.832 1458.73 L866.855 1458.73 L872.179 1478.96 L877.48 1458.73 L881.739 1458.73 L874.957 1484.65 L869.933 1484.65 L864.355 1463.4 L858.753 1484.65 L853.73 1484.65 L846.947 1458.73 Z" fill="#000000" fill-rule="evenodd" fill-opacity="1" /><path clip-path="url(#clip700)" d="M 0 0 M907.757 1469 L907.757 1484.65 L903.498 1484.65 L903.498 1469.14 Q903.498 1465.46 902.063 1463.63 Q900.628 1461.81 897.757 1461.81 Q894.308 1461.81 892.318 1464 Q890.327 1466.2 890.327 1470 L890.327 1484.65 L886.044 1484.65 L886.044 1458.73 L890.327 1458.73 L890.327 1462.75 Q891.855 1460.42 893.915 1459.26 Q895.998 1458.1 898.706 1458.1 Q903.174 1458.1 905.466 1460.88 Q907.757 1463.63 907.757 1469 Z" fill="#000000" fill-rule="evenodd" fill-opacity="1" /><path clip-path="url(#clip700)" d="M 0 0 M932.155 1453.93 L932.155 1480.81 L937.803 1480.81 Q944.956 1480.81 948.266 1477.57 Q951.6 1474.33 951.6 1467.34 Q951.6 1460.39 948.266 1457.18 Q944.956 1453.93 937.803 1453.93 L932.155 1453.93 M927.479 1450.09 L937.086 1450.09 Q947.132 1450.09 951.831 1454.28 Q956.53 1458.45 956.53 1467.34 Q956.53 1476.27 951.808 1480.46 Q947.086 1484.65 937.086 1484.65 L927.479 1484.65 L927.479 1450.09 Z" fill="#000000" fill-rule="evenodd" fill-opacity="1" /><path clip-path="url(#clip700)" d="M 0 0 M960.558 1474.42 L960.558 1458.73 L964.817 1458.73 L964.817 1474.26 Q964.817 1477.94 966.252 1479.79 Q967.688 1481.62 970.558 1481.62 Q974.007 1481.62 975.998 1479.42 Q978.012 1477.22 978.012 1473.43 L978.012 1458.73 L982.271 1458.73 L982.271 1484.65 L978.012 1484.65 L978.012 1480.67 Q976.461 1483.03 974.4 1484.19 Q972.363 1485.32 969.655 1485.32 Q965.188 1485.32 962.873 1482.55 Q960.558 1479.77 960.558 1474.42 M971.275 1458.1 L971.275 1458.1 Z" fill="#000000" fill-rule="evenodd" fill-opacity="1" /><path clip-path="url(#clip700)" d="M 0 0 M1001.76 1462.71 Q1001.04 1462.29 1000.19 1462.11 Q999.354 1461.9 998.336 1461.9 Q994.724 1461.9 992.78 1464.26 Q990.859 1466.6 990.859 1470.99 L990.859 1484.65 L986.576 1484.65 L986.576 1458.73 L990.859 1458.73 L990.859 1462.75 Q992.201 1460.39 994.354 1459.26 Q996.507 1458.1 999.585 1458.1 Q1000.03 1458.1 1000.56 1458.17 Q1001.09 1458.22 1001.74 1458.33 L1001.76 1462.71 Z" fill="#000000" fill-rule="evenodd" fill-opacity="1" /><path clip-path="url(#clip700)" d="M 0 0 M1018.01 1471.62 Q1012.85 1471.62 1010.86 1472.8 Q1008.87 1473.98 1008.87 1476.83 Q1008.87 1479.1 1010.35 1480.44 Q1011.85 1481.76 1014.42 1481.76 Q1017.97 1481.76 1020.09 1479.26 Q1022.25 1476.74 1022.25 1472.57 L1022.25 1471.62 L1018.01 1471.62 M1026.51 1469.86 L1026.51 1484.65 L1022.25 1484.65 L1022.25 1480.72 Q1020.79 1483.08 1018.61 1484.21 Q1016.44 1485.32 1013.29 1485.32 Q1009.31 1485.32 1006.95 1483.1 Q1004.61 1480.86 1004.61 1477.11 Q1004.61 1472.73 1007.53 1470.51 Q1010.47 1468.29 1016.28 1468.29 L1022.25 1468.29 L1022.25 1467.87 Q1022.25 1464.93 1020.3 1463.33 Q1018.38 1461.71 1014.89 1461.71 Q1012.66 1461.71 1010.56 1462.24 Q1008.45 1462.78 1006.51 1463.84 L1006.51 1459.91 Q1008.84 1459 1011.04 1458.56 Q1013.24 1458.1 1015.33 1458.1 Q1020.95 1458.1 1023.73 1461.02 Q1026.51 1463.93 1026.51 1469.86 Z" fill="#000000" fill-rule="evenodd" fill-opacity="1" /><path clip-path="url(#clip700)" d="M 0 0 M1035.19 1451.37 L1035.19 1458.73 L1043.96 1458.73 L1043.96 1462.04 L1035.19 1462.04 L1035.19 1476.11 Q1035.19 1479.28 1036.04 1480.18 Q1036.92 1481.09 1039.59 1481.09 L1043.96 1481.09 L1043.96 1484.65 L1039.59 1484.65 Q1034.65 1484.65 1032.78 1482.82 Q1030.9 1480.97 1030.9 1476.11 L1030.9 1462.04 L1027.78 1462.04 L1027.78 1458.73 L1030.9 1458.73 L1030.9 1451.37 L1035.19 1451.37 Z" fill="#000000" fill-rule="evenodd" fill-opacity="1" /><path clip-path="url(#clip700)" d="M 0 0 M1048.43 1458.73 L1052.69 1458.73 L1052.69 1484.65 L1048.43 1484.65 L1048.43 1458.73 M1048.43 1448.63 L1052.69 1448.63 L1052.69 1454.03 L1048.43 1454.03 L1048.43 1448.63 Z" fill="#000000" fill-rule="evenodd" fill-opacity="1" /><path clip-path="url(#clip700)" d="M 0 0 M1067.2 1461.71 Q1063.77 1461.71 1061.78 1464.4 Q1059.79 1467.06 1059.79 1471.71 Q1059.79 1476.37 1061.76 1479.05 Q1063.75 1481.71 1067.2 1481.71 Q1070.6 1481.71 1072.59 1479.03 Q1074.59 1476.34 1074.59 1471.71 Q1074.59 1467.11 1072.59 1464.42 Q1070.6 1461.71 1067.2 1461.71 M1067.2 1458.1 Q1072.76 1458.1 1075.93 1461.71 Q1079.1 1465.32 1079.1 1471.71 Q1079.1 1478.08 1075.93 1481.71 Q1072.76 1485.32 1067.2 1485.32 Q1061.62 1485.32 1058.45 1481.71 Q1055.3 1478.08 1055.3 1471.71 Q1055.3 1465.32 1058.45 1461.71 Q1061.62 1458.1 1067.2 1458.1 Z" fill="#000000" fill-rule="evenodd" fill-opacity="1" /><path clip-path="url(#clip700)" d="M 0 0 M1105.12 1469 L1105.12 1484.65 L1100.86 1484.65 L1100.86 1469.14 Q1100.86 1465.46 1099.42 1463.63 Q1097.99 1461.81 1095.12 1461.81 Q1091.67 1461.81 1089.68 1464 Q1087.69 1466.2 1087.69 1470 L1087.69 1484.65 L1083.4 1484.65 L1083.4 1458.73 L1087.69 1458.73 L1087.69 1462.75 Q1089.21 1460.42 1091.27 1459.26 Q1093.36 1458.1 1096.07 1458.1 Q1100.53 1458.1 1102.83 1460.88 Q1105.12 1463.63 1105.12 1469 Z" fill="#000000" fill-rule="evenodd" fill-opacity="1" /><polyline clip-path="url(#clip702)" style="stroke:#000000; stroke-width:2; stroke-opacity:0.1; fill:none" points="
  338.256,1246.53 1462.1,1246.53 
  "/>
<polyline clip-path="url(#clip702)" style="stroke:#000000; stroke-width:2; stroke-opacity:0.1; fill:none" points="
  338.256,988.396 1462.1,988.396 
  "/>
<polyline clip-path="url(#clip702)" style="stroke:#000000; stroke-width:2; stroke-opacity:0.1; fill:none" points="
  338.256,730.267 1462.1,730.267 
  "/>
<polyline clip-path="url(#clip702)" style="stroke:#000000; stroke-width:2; stroke-opacity:0.1; fill:none" points="
  338.256,472.138 1462.1,472.138 
  "/>
<polyline clip-path="url(#clip702)" style="stroke:#000000; stroke-width:2; stroke-opacity:0.1; fill:none" points="
  338.256,214.008 1462.1,214.008 
  "/>
<polyline clip-path="url(#clip700)" style="stroke:#000000; stroke-width:4; stroke-opacity:1; fill:none" points="
  338.256,1343.03 338.256,212.343 
  "/>
<polyline clip-path="url(#clip700)" style="stroke:#000000; stroke-width:4; stroke-opacity:1; fill:none" points="
  338.256,1246.53 351.742,1246.53 
  "/>
<polyline clip-path="url(#clip700)" style="stroke:#000000; stroke-width:4; stroke-opacity:1; fill:none" points="
  338.256,988.396 351.742,988.396 
  "/>
<polyline clip-path="url(#clip700)" style="stroke:#000000; stroke-width:4; stroke-opacity:1; fill:none" points="
  338.256,730.267 351.742,730.267 
  "/>
<polyline clip-path="url(#clip700)" style="stroke:#000000; stroke-width:4; stroke-opacity:1; fill:none" points="
  338.256,472.138 351.742,472.138 
  "/>
<polyline clip-path="url(#clip700)" style="stroke:#000000; stroke-width:4; stroke-opacity:1; fill:none" points="
  338.256,214.008 351.742,214.008 
  "/>
<g clip-path="url(#clip700)">
<text style="fill:#000000; fill-opacity:1; font-family:Times New Roman,TimesNewRoman,Times,Baskerville,Georgia,serif; font-size:53px; text-anchor:end;" transform="rotate(0, 290.256, 1264.03)" x="290.256" y="1264.03">0.20</text>
</g>
<g clip-path="url(#clip700)">
<text style="fill:#000000; fill-opacity:1; font-family:Times New Roman,TimesNewRoman,Times,Baskerville,Georgia,serif; font-size:53px; text-anchor:end;" transform="rotate(0, 290.256, 1005.9)" x="290.256" y="1005.9">0.25</text>
</g>
<g clip-path="url(#clip700)">
<text style="fill:#000000; fill-opacity:1; font-family:Times New Roman,TimesNewRoman,Times,Baskerville,Georgia,serif; font-size:53px; text-anchor:end;" transform="rotate(0, 290.256, 747.767)" x="290.256" y="747.767">0.30</text>
</g>
<g clip-path="url(#clip700)">
<text style="fill:#000000; fill-opacity:1; font-family:Times New Roman,TimesNewRoman,Times,Baskerville,Georgia,serif; font-size:53px; text-anchor:end;" transform="rotate(0, 290.256, 489.638)" x="290.256" y="489.638">0.35</text>
</g>
<g clip-path="url(#clip700)">
<text style="fill:#000000; fill-opacity:1; font-family:Times New Roman,TimesNewRoman,Times,Baskerville,Georgia,serif; font-size:53px; text-anchor:end;" transform="rotate(0, 290.256, 231.508)" x="290.256" y="231.508">0.40</text>
</g>
<path clip-path="url(#clip700)" d="M 0 0 M105.968 961.689 L105.968 957.013 L140.528 957.013 L140.528 961.689 L105.968 961.689 Z" fill="#000000" fill-rule="evenodd" fill-opacity="1" /><path clip-path="url(#clip700)" d="M 0 0 M124.88 930.995 L140.528 930.995 L140.528 935.254 L125.019 935.254 Q121.339 935.254 119.51 936.689 Q117.681 938.124 117.681 940.994 Q117.681 944.444 119.88 946.434 Q122.079 948.425 125.876 948.425 L140.528 948.425 L140.528 952.707 L114.603 952.707 L114.603 948.425 L118.63 948.425 Q116.292 946.897 115.135 944.837 Q113.978 942.754 113.978 940.045 Q113.978 935.578 116.755 933.286 Q119.51 930.995 124.88 930.995 Z" fill="#000000" fill-rule="evenodd" fill-opacity="1" /><path clip-path="url(#clip700)" d="M 0 0 M104.51 913.402 L108.052 913.402 L108.052 917.476 Q108.052 919.768 108.978 920.67 Q109.904 921.55 112.311 921.55 L114.603 921.55 L114.603 914.536 L117.913 914.536 L117.913 921.55 L140.528 921.55 L140.528 925.832 L117.913 925.832 L117.913 929.907 L114.603 929.907 L114.603 925.832 L112.797 925.832 Q108.468 925.832 106.501 923.819 Q104.51 921.805 104.51 917.43 L104.51 913.402 Z" fill="#000000" fill-rule="evenodd" fill-opacity="1" /><path clip-path="url(#clip700)" d="M 0 0 M126.501 886.759 L128.584 886.759 L128.584 906.342 Q132.982 906.064 135.297 903.703 Q137.589 901.319 137.589 897.083 Q137.589 894.629 136.987 892.337 Q136.385 890.022 135.181 887.754 L139.209 887.754 Q140.181 890.046 140.69 892.453 Q141.2 894.86 141.2 897.337 Q141.2 903.541 137.589 907.175 Q133.977 910.786 127.82 910.786 Q121.454 910.786 117.728 907.36 Q113.978 903.911 113.978 898.078 Q113.978 892.847 117.357 889.814 Q120.714 886.759 126.501 886.759 M125.251 891.018 Q121.755 891.064 119.672 892.985 Q117.589 894.884 117.589 898.032 Q117.589 901.597 119.603 903.749 Q121.616 905.879 125.274 906.203 L125.251 891.018 Z" fill="#000000" fill-rule="evenodd" fill-opacity="1" /><path clip-path="url(#clip700)" d="M 0 0 M115.598 863.634 L119.579 863.634 Q118.584 865.439 118.098 867.268 Q117.589 869.074 117.589 870.925 Q117.589 875.069 120.228 877.361 Q122.843 879.652 127.589 879.652 Q132.334 879.652 134.973 877.361 Q137.589 875.069 137.589 870.925 Q137.589 869.074 137.102 867.268 Q136.593 865.439 135.598 863.634 L139.533 863.634 Q140.366 865.416 140.783 867.337 Q141.2 869.236 141.2 871.388 Q141.2 877.245 137.519 880.694 Q133.839 884.143 127.589 884.143 Q121.246 884.143 117.612 880.671 Q113.978 877.175 113.978 871.111 Q113.978 869.143 114.394 867.268 Q114.788 865.393 115.598 863.634 Z" fill="#000000" fill-rule="evenodd" fill-opacity="1" /><path clip-path="url(#clip700)" d="M 0 0 M107.242 854.953 L114.603 854.953 L114.603 846.18 L117.913 846.18 L117.913 854.953 L131.987 854.953 Q135.158 854.953 136.061 854.097 Q136.964 853.217 136.964 850.555 L136.964 846.18 L140.528 846.18 L140.528 850.555 Q140.528 855.486 138.7 857.361 Q136.848 859.236 131.987 859.236 L117.913 859.236 L117.913 862.361 L114.603 862.361 L114.603 859.236 L107.242 859.236 L107.242 854.953 Z" fill="#000000" fill-rule="evenodd" fill-opacity="1" /><path clip-path="url(#clip700)" d="M 0 0 M126.501 819.537 L128.584 819.537 L128.584 839.12 Q132.982 838.842 135.297 836.481 Q137.589 834.097 137.589 829.861 Q137.589 827.407 136.987 825.115 Q136.385 822.801 135.181 820.532 L139.209 820.532 Q140.181 822.824 140.69 825.231 Q141.2 827.639 141.2 830.115 Q141.2 836.319 137.589 839.953 Q133.977 843.564 127.82 843.564 Q121.454 843.564 117.728 840.139 Q113.978 836.689 113.978 830.856 Q113.978 825.625 117.357 822.592 Q120.714 819.537 126.501 819.537 M125.251 823.796 Q121.755 823.842 119.672 825.764 Q117.589 827.662 117.589 830.81 Q117.589 834.375 119.603 836.527 Q121.616 838.657 125.274 838.981 L125.251 823.796 Z" fill="#000000" fill-rule="evenodd" fill-opacity="1" /><path clip-path="url(#clip700)" d="M 0 0 M118.538 798.009 L104.51 798.009 L104.51 793.75 L140.528 793.75 L140.528 798.009 L136.64 798.009 Q138.954 799.352 140.089 801.412 Q141.2 803.449 141.2 806.319 Q141.2 811.018 137.45 813.981 Q133.7 816.921 127.589 816.921 Q121.478 816.921 117.728 813.981 Q113.978 811.018 113.978 806.319 Q113.978 803.449 115.112 801.412 Q116.223 799.352 118.538 798.009 M127.589 812.523 Q132.288 812.523 134.973 810.602 Q137.635 808.657 137.635 805.278 Q137.635 801.898 134.973 799.954 Q132.288 798.009 127.589 798.009 Q122.89 798.009 120.228 799.954 Q117.542 801.898 117.542 805.278 Q117.542 808.657 120.228 810.602 Q122.89 812.523 127.589 812.523 Z" fill="#000000" fill-rule="evenodd" fill-opacity="1" /><path clip-path="url(#clip700)" d="M 0 0 M109.811 769.352 L122.797 769.352 L122.797 763.472 Q122.797 760.208 121.107 758.426 Q119.417 756.644 116.292 756.644 Q113.191 756.644 111.501 758.426 Q109.811 760.208 109.811 763.472 L109.811 769.352 M105.968 774.028 L105.968 763.472 Q105.968 757.662 108.607 754.699 Q111.223 751.713 116.292 751.713 Q121.408 751.713 124.024 754.699 Q126.64 757.662 126.64 763.472 L126.64 769.352 L140.528 769.352 L140.528 774.028 L105.968 774.028 Z" fill="#000000" fill-rule="evenodd" fill-opacity="1" /><path clip-path="url(#clip700)" d="M 0 0 M126.501 726.759 L128.584 726.759 L128.584 746.343 Q132.982 746.065 135.297 743.704 Q137.589 741.32 137.589 737.084 Q137.589 734.63 136.987 732.338 Q136.385 730.023 135.181 727.755 L139.209 727.755 Q140.181 730.047 140.69 732.454 Q141.2 734.861 141.2 737.338 Q141.2 743.542 137.589 747.176 Q133.977 750.787 127.82 750.787 Q121.454 750.787 117.728 747.361 Q113.978 743.912 113.978 738.079 Q113.978 732.847 117.357 729.815 Q120.714 726.759 126.501 726.759 M125.251 731.019 Q121.755 731.065 119.672 732.986 Q117.589 734.884 117.589 738.033 Q117.589 741.597 119.603 743.75 Q121.616 745.88 125.274 746.204 L125.251 731.019 Z" fill="#000000" fill-rule="evenodd" fill-opacity="1" /><path clip-path="url(#clip700)" d="M 0 0 M127.496 710.51 Q127.496 715.672 128.677 717.662 Q129.857 719.653 132.704 719.653 Q134.973 719.653 136.315 718.172 Q137.635 716.667 137.635 714.098 Q137.635 710.556 135.135 708.426 Q132.612 706.273 128.445 706.273 L127.496 706.273 L127.496 710.51 M125.737 702.014 L140.528 702.014 L140.528 706.273 L136.593 706.273 Q138.954 707.732 140.089 709.908 Q141.2 712.084 141.2 715.232 Q141.2 719.213 138.977 721.574 Q136.732 723.912 132.982 723.912 Q128.607 723.912 126.385 720.996 Q124.163 718.056 124.163 712.246 L124.163 706.273 L123.746 706.273 Q120.806 706.273 119.209 708.218 Q117.589 710.139 117.589 713.635 Q117.589 715.857 118.121 717.963 Q118.653 720.07 119.718 722.014 L115.783 722.014 Q114.88 719.676 114.441 717.477 Q113.978 715.278 113.978 713.195 Q113.978 707.57 116.894 704.792 Q119.811 702.014 125.737 702.014 Z" fill="#000000" fill-rule="evenodd" fill-opacity="1" /><path clip-path="url(#clip700)" d="M 0 0 M104.51 697.709 L104.51 693.426 L125.783 693.426 L114.603 680.718 L114.603 675.278 L126.732 689.028 L140.528 674.7 L140.528 680.255 L127.866 693.426 L140.528 693.426 L140.528 697.709 L104.51 697.709 Z" fill="#000000" fill-rule="evenodd" fill-opacity="1" /><path clip-path="url(#clip700)" d="M 0 0 M104.556 644.931 Q109.88 648.033 115.089 649.538 Q120.297 651.042 125.644 651.042 Q130.991 651.042 136.246 649.538 Q141.477 648.01 146.778 644.931 L146.778 648.635 Q141.339 652.107 136.084 653.843 Q130.829 655.556 125.644 655.556 Q120.482 655.556 115.251 653.843 Q110.019 652.13 104.556 648.635 L104.556 644.931 Z" fill="#000000" fill-rule="evenodd" fill-opacity="1" /><path clip-path="url(#clip700)" d="M 0 0 M105.968 640.278 L105.968 635.603 L140.528 635.603 L140.528 640.278 L105.968 640.278 Z" fill="#000000" fill-rule="evenodd" fill-opacity="1" /><path clip-path="url(#clip700)" d="M 0 0 M136.64 627.015 L150.389 627.015 L150.389 631.297 L114.603 631.297 L114.603 627.015 L118.538 627.015 Q116.223 625.672 115.112 623.635 Q113.978 621.575 113.978 618.728 Q113.978 614.005 117.728 611.066 Q121.478 608.103 127.589 608.103 Q133.7 608.103 137.45 611.066 Q141.2 614.005 141.2 618.728 Q141.2 621.575 140.089 623.635 Q138.954 625.672 136.64 627.015 M127.589 612.524 Q122.89 612.524 120.228 614.468 Q117.542 616.39 117.542 619.769 Q117.542 623.149 120.228 625.093 Q122.89 627.015 127.589 627.015 Q132.288 627.015 134.973 625.093 Q137.635 623.149 137.635 619.769 Q137.635 616.39 134.973 614.468 Q132.288 612.524 127.589 612.524 Z" fill="#000000" fill-rule="evenodd" fill-opacity="1" /><path clip-path="url(#clip700)" d="M 0 0 M104.556 604.306 L104.556 600.603 Q110.019 597.131 115.251 595.418 Q120.482 593.681 125.644 593.681 Q130.829 593.681 136.084 595.418 Q141.339 597.131 146.778 600.603 L146.778 604.306 Q141.477 601.228 136.246 599.723 Q130.991 598.195 125.644 598.195 Q120.297 598.195 115.089 599.723 Q109.88 601.228 104.556 604.306 Z" fill="#000000" fill-rule="evenodd" fill-opacity="1" /><g clip-path="url(#clip700)">
<text style="fill:#000000; fill-opacity:1; font-family:Times New Roman,TimesNewRoman,Times,Baskerville,Georgia,serif; font-size:79px; text-anchor:middle;" transform="rotate(0, 900.176, 62.4)" x="900.176" y="62.4">SIR</text>
</g>
<polyline clip-path="url(#clip702)" style="stroke:#009af9; stroke-width:12; stroke-opacity:1; fill:none" points="
  370.063,244.344 390.067,289.211 410.071,330.71 430.076,369.654 450.08,406.569 470.084,441.947 490.088,475.871 510.093,508.912 530.097,541.059 550.101,572.431 
  570.106,603.068 590.11,633.359 610.114,663.288 630.118,692.526 650.123,721.647 670.127,750.514 690.131,778.939 710.136,807.255 730.14,835.238 750.144,862.923 
  770.148,890.345 790.153,917.535 810.157,938.526 830.161,945.304 850.166,952.023 870.17,958.077 890.174,963.484 910.178,968.256 930.183,973.586 950.187,977.704 
  970.191,981.797 990.196,985.866 1010.2,989.335 1030.2,992.785 1050.21,996.218 1070.21,999.064 1090.22,1001.9 1110.22,1004.72 1130.23,1007.53 1150.23,1009.77 
  1170.23,1012 1190.24,1014.22 1210.24,1015.89 1230.25,1018.1 1250.25,1019.75 1270.26,1021.4 1290.26,1023.04 1310.26,1024.13 1330.27,1025.77 1350.27,1026.85 
  1370.28,1028.48 1390.28,1029.57 1410.29,1030.65 1430.29,1031.73 
  "/>
<polyline clip-path="url(#clip702)" style="stroke:#e26f46; stroke-width:12; stroke-opacity:1; fill:none" stroke-dasharray="48, 30" points="
  370.063,245.385 390.067,292.87 410.071,337.825 430.076,380.553 450.08,421.655 470.084,460.711 490.088,498.284 510.093,534.832 530.097,570.365 550.101,603.535 
  570.106,636.826 590.11,668.478 610.114,697.091 630.118,726.373 650.123,755.135 670.127,780.896 690.131,806.895 710.136,832.27 730.14,855.533 750.144,877.988 
  770.148,899.706 790.153,920.756 810.157,941.204 830.161,961.113 850.166,980.189 870.17,998.825 890.174,1015.33 910.178,1031.12 930.183,1047.88 950.187,1064.79 
  970.191,1078.78 990.196,1092.54 1010.2,1108.04 1030.2,1120.99 1050.21,1132.97 1070.21,1147.32 1090.22,1158.34 1110.22,1169.95 1130.23,1182.48 1150.23,1191.7 
  1170.23,1203.7 1190.24,1213.02 1210.24,1223.31 1230.25,1232.67 1250.25,1241.4 1270.26,1250.76 1290.26,1258.6 1310.26,1267.42 1330.27,1275.06 1350.27,1283.02 
  1370.28,1290.37 1390.28,1297.62 1410.29,1305.18 1430.29,1311.03 
  "/>
<path clip-path="url(#clip700)" d="
M921.275 431.473 L1424.64 431.473 L1424.64 250.033 L921.275 250.033  Z
  " fill="#ffffff" fill-rule="evenodd" fill-opacity="1"/>
<polyline clip-path="url(#clip700)" style="stroke:#000000; stroke-width:4; stroke-opacity:1; fill:none" points="
  921.275,431.473 1424.64,431.473 1424.64,250.033 921.275,250.033 921.275,431.473 
  "/>
<polyline clip-path="url(#clip700)" style="stroke:#009af9; stroke-width:4; stroke-opacity:1; fill:none" points="
  933.762,310.513 1008.68,310.513 
  "/>
<g clip-path="url(#clip700)">
<text style="fill:#000000; fill-opacity:1; font-family:Times New Roman,TimesNewRoman,Times,Baskerville,Georgia,serif; font-size:53px; text-anchor:start;" transform="rotate(0, 1021.17, 328.013)" x="1021.17" y="328.013">approximation</text>
</g>
<polyline clip-path="url(#clip700)" style="stroke:#e26f46; stroke-width:4; stroke-opacity:1; fill:none" stroke-dasharray="16, 10" points="
  933.762,370.993 1008.68,370.993 
  "/>
<g clip-path="url(#clip700)">
<text style="fill:#000000; fill-opacity:1; font-family:Times New Roman,TimesNewRoman,Times,Baskerville,Georgia,serif; font-size:53px; text-anchor:start;" transform="rotate(0, 1021.17, 388.493)" x="1021.17" y="388.493">optimal lockdown</text>
</g>
<path clip-path="url(#clip700)" d="
M1918.68 1343.03 L3042.52 1343.03 L3042.52 212.343 L1918.68 212.343  Z
  " fill="#ffffff" fill-rule="evenodd" fill-opacity="1"/>
<defs>
  <clipPath id="clip703">
    <rect x="1918" y="212" width="1125" height="1132"/>
  </clipPath>
</defs>
<polyline clip-path="url(#clip703)" style="stroke:#000000; stroke-width:2; stroke-opacity:0.1; fill:none" points="
  1930.48,1343.03 1930.48,212.343 
  "/>
<polyline clip-path="url(#clip703)" style="stroke:#000000; stroke-width:2; stroke-opacity:0.1; fill:none" points="
  2130.52,1343.03 2130.52,212.343 
  "/>
<polyline clip-path="url(#clip703)" style="stroke:#000000; stroke-width:2; stroke-opacity:0.1; fill:none" points="
  2330.57,1343.03 2330.57,212.343 
  "/>
<polyline clip-path="url(#clip703)" style="stroke:#000000; stroke-width:2; stroke-opacity:0.1; fill:none" points="
  2530.61,1343.03 2530.61,212.343 
  "/>
<polyline clip-path="url(#clip703)" style="stroke:#000000; stroke-width:2; stroke-opacity:0.1; fill:none" points="
  2730.65,1343.03 2730.65,212.343 
  "/>
<polyline clip-path="url(#clip703)" style="stroke:#000000; stroke-width:2; stroke-opacity:0.1; fill:none" points="
  2930.7,1343.03 2930.7,212.343 
  "/>
<polyline clip-path="url(#clip700)" style="stroke:#000000; stroke-width:4; stroke-opacity:1; fill:none" points="
  1918.68,1343.03 3042.52,1343.03 
  "/>
<polyline clip-path="url(#clip700)" style="stroke:#000000; stroke-width:4; stroke-opacity:1; fill:none" points="
  1930.48,1343.03 1930.48,1329.46 
  "/>
<polyline clip-path="url(#clip700)" style="stroke:#000000; stroke-width:4; stroke-opacity:1; fill:none" points="
  2130.52,1343.03 2130.52,1329.46 
  "/>
<polyline clip-path="url(#clip700)" style="stroke:#000000; stroke-width:4; stroke-opacity:1; fill:none" points="
  2330.57,1343.03 2330.57,1329.46 
  "/>
<polyline clip-path="url(#clip700)" style="stroke:#000000; stroke-width:4; stroke-opacity:1; fill:none" points="
  2530.61,1343.03 2530.61,1329.46 
  "/>
<polyline clip-path="url(#clip700)" style="stroke:#000000; stroke-width:4; stroke-opacity:1; fill:none" points="
  2730.65,1343.03 2730.65,1329.46 
  "/>
<polyline clip-path="url(#clip700)" style="stroke:#000000; stroke-width:4; stroke-opacity:1; fill:none" points="
  2930.7,1343.03 2930.7,1329.46 
  "/>
<g clip-path="url(#clip700)">
<text style="fill:#000000; fill-opacity:1; font-family:Times New Roman,TimesNewRoman,Times,Baskerville,Georgia,serif; font-size:53px; text-anchor:middle;" transform="rotate(0, 1930.48, 1410.63)" x="1930.48" y="1410.63">0</text>
</g>
<g clip-path="url(#clip700)">
<text style="fill:#000000; fill-opacity:1; font-family:Times New Roman,TimesNewRoman,Times,Baskerville,Georgia,serif; font-size:53px; text-anchor:middle;" transform="rotate(0, 2130.52, 1410.63)" x="2130.52" y="1410.63">10</text>
</g>
<g clip-path="url(#clip700)">
<text style="fill:#000000; fill-opacity:1; font-family:Times New Roman,TimesNewRoman,Times,Baskerville,Georgia,serif; font-size:53px; text-anchor:middle;" transform="rotate(0, 2330.57, 1410.63)" x="2330.57" y="1410.63">20</text>
</g>
<g clip-path="url(#clip700)">
<text style="fill:#000000; fill-opacity:1; font-family:Times New Roman,TimesNewRoman,Times,Baskerville,Georgia,serif; font-size:53px; text-anchor:middle;" transform="rotate(0, 2530.61, 1410.63)" x="2530.61" y="1410.63">30</text>
</g>
<g clip-path="url(#clip700)">
<text style="fill:#000000; fill-opacity:1; font-family:Times New Roman,TimesNewRoman,Times,Baskerville,Georgia,serif; font-size:53px; text-anchor:middle;" transform="rotate(0, 2730.65, 1410.63)" x="2730.65" y="1410.63">40</text>
</g>
<g clip-path="url(#clip700)">
<text style="fill:#000000; fill-opacity:1; font-family:Times New Roman,TimesNewRoman,Times,Baskerville,Georgia,serif; font-size:53px; text-anchor:middle;" transform="rotate(0, 2930.7, 1410.63)" x="2930.7" y="1410.63">50</text>
</g>
<path clip-path="url(#clip700)" d="M 0 0 M2275.66 1450.09 L2280.33 1450.09 L2280.33 1480.72 L2297.16 1480.72 L2297.16 1484.65 L2275.66 1484.65 L2275.66 1450.09 Z" fill="#000000" fill-rule="evenodd" fill-opacity="1" /><path clip-path="url(#clip700)" d="M 0 0 M2310.84 1461.71 Q2307.42 1461.71 2305.43 1464.4 Q2303.44 1467.06 2303.44 1471.71 Q2303.44 1476.37 2305.4 1479.05 Q2307.39 1481.71 2310.84 1481.71 Q2314.25 1481.71 2316.24 1479.03 Q2318.23 1476.34 2318.23 1471.71 Q2318.23 1467.11 2316.24 1464.42 Q2314.25 1461.71 2310.84 1461.71 M2310.84 1458.1 Q2316.4 1458.1 2319.57 1461.71 Q2322.74 1465.32 2322.74 1471.71 Q2322.74 1478.08 2319.57 1481.71 Q2316.4 1485.32 2310.84 1485.32 Q2305.26 1485.32 2302.09 1481.71 Q2298.95 1478.08 2298.95 1471.71 Q2298.95 1465.32 2302.09 1461.71 Q2305.26 1458.1 2310.84 1458.1 Z" fill="#000000" fill-rule="evenodd" fill-opacity="1" /><path clip-path="url(#clip700)" d="M 0 0 M2345.87 1459.72 L2345.87 1463.7 Q2344.06 1462.71 2342.23 1462.22 Q2340.43 1461.71 2338.57 1461.71 Q2334.43 1461.71 2332.14 1464.35 Q2329.85 1466.97 2329.85 1471.71 Q2329.85 1476.46 2332.14 1479.1 Q2334.43 1481.71 2338.57 1481.71 Q2340.43 1481.71 2342.23 1481.23 Q2344.06 1480.72 2345.87 1479.72 L2345.87 1483.66 Q2344.08 1484.49 2342.16 1484.91 Q2340.26 1485.32 2338.11 1485.32 Q2332.26 1485.32 2328.81 1481.64 Q2325.36 1477.96 2325.36 1471.71 Q2325.36 1465.37 2328.83 1461.74 Q2332.32 1458.1 2338.39 1458.1 Q2340.36 1458.1 2342.23 1458.52 Q2344.11 1458.91 2345.87 1459.72 Z" fill="#000000" fill-rule="evenodd" fill-opacity="1" /><path clip-path="url(#clip700)" d="M 0 0 M2350.17 1448.63 L2354.45 1448.63 L2354.45 1469.91 L2367.16 1458.73 L2372.6 1458.73 L2358.85 1470.86 L2373.18 1484.65 L2367.63 1484.65 L2354.45 1471.99 L2354.45 1484.65 L2350.17 1484.65 L2350.17 1448.63 Z" fill="#000000" fill-rule="evenodd" fill-opacity="1" /><path clip-path="url(#clip700)" d="M 0 0 M2394.71 1462.66 L2394.71 1448.63 L2398.97 1448.63 L2398.97 1484.65 L2394.71 1484.65 L2394.71 1480.76 Q2393.37 1483.08 2391.31 1484.21 Q2389.27 1485.32 2386.4 1485.32 Q2381.7 1485.32 2378.74 1481.57 Q2375.8 1477.82 2375.8 1471.71 Q2375.8 1465.6 2378.74 1461.85 Q2381.7 1458.1 2386.4 1458.1 Q2389.27 1458.1 2391.31 1459.24 Q2393.37 1460.35 2394.71 1462.66 M2380.19 1471.71 Q2380.19 1476.41 2382.12 1479.1 Q2384.06 1481.76 2387.44 1481.76 Q2390.82 1481.76 2392.76 1479.1 Q2394.71 1476.41 2394.71 1471.71 Q2394.71 1467.01 2392.76 1464.35 Q2390.82 1461.67 2387.44 1461.67 Q2384.06 1461.67 2382.12 1464.35 Q2380.19 1467.01 2380.19 1471.71 Z" fill="#000000" fill-rule="evenodd" fill-opacity="1" /><path clip-path="url(#clip700)" d="M 0 0 M2413.48 1461.71 Q2410.06 1461.71 2408.06 1464.4 Q2406.07 1467.06 2406.07 1471.71 Q2406.07 1476.37 2408.04 1479.05 Q2410.03 1481.71 2413.48 1481.71 Q2416.88 1481.71 2418.88 1479.03 Q2420.87 1476.34 2420.87 1471.71 Q2420.87 1467.11 2418.88 1464.42 Q2416.88 1461.71 2413.48 1461.71 M2413.48 1458.1 Q2419.04 1458.1 2422.21 1461.71 Q2425.38 1465.32 2425.38 1471.71 Q2425.38 1478.08 2422.21 1481.71 Q2419.04 1485.32 2413.48 1485.32 Q2407.9 1485.32 2404.73 1481.71 Q2401.58 1478.08 2401.58 1471.71 Q2401.58 1465.32 2404.73 1461.71 Q2407.9 1458.1 2413.48 1458.1 Z" fill="#000000" fill-rule="evenodd" fill-opacity="1" /><path clip-path="url(#clip700)" d="M 0 0 M2427.37 1458.73 L2431.63 1458.73 L2436.95 1478.96 L2442.25 1458.73 L2447.28 1458.73 L2452.6 1478.96 L2457.9 1458.73 L2462.16 1458.73 L2455.38 1484.65 L2450.36 1484.65 L2444.78 1463.4 L2439.18 1484.65 L2434.15 1484.65 L2427.37 1458.73 Z" fill="#000000" fill-rule="evenodd" fill-opacity="1" /><path clip-path="url(#clip700)" d="M 0 0 M2488.18 1469 L2488.18 1484.65 L2483.92 1484.65 L2483.92 1469.14 Q2483.92 1465.46 2482.49 1463.63 Q2481.05 1461.81 2478.18 1461.81 Q2474.73 1461.81 2472.74 1464 Q2470.75 1466.2 2470.75 1470 L2470.75 1484.65 L2466.47 1484.65 L2466.47 1458.73 L2470.75 1458.73 L2470.75 1462.75 Q2472.28 1460.42 2474.34 1459.26 Q2476.42 1458.1 2479.13 1458.1 Q2483.6 1458.1 2485.89 1460.88 Q2488.18 1463.63 2488.18 1469 Z" fill="#000000" fill-rule="evenodd" fill-opacity="1" /><path clip-path="url(#clip700)" d="M 0 0 M2512.58 1453.93 L2512.58 1480.81 L2518.23 1480.81 Q2525.38 1480.81 2528.69 1477.57 Q2532.02 1474.33 2532.02 1467.34 Q2532.02 1460.39 2528.69 1457.18 Q2525.38 1453.93 2518.23 1453.93 L2512.58 1453.93 M2507.9 1450.09 L2517.51 1450.09 Q2527.56 1450.09 2532.25 1454.28 Q2536.95 1458.45 2536.95 1467.34 Q2536.95 1476.27 2532.23 1480.46 Q2527.51 1484.65 2517.51 1484.65 L2507.9 1484.65 L2507.9 1450.09 Z" fill="#000000" fill-rule="evenodd" fill-opacity="1" /><path clip-path="url(#clip700)" d="M 0 0 M2540.98 1474.42 L2540.98 1458.73 L2545.24 1458.73 L2545.24 1474.26 Q2545.24 1477.94 2546.68 1479.79 Q2548.11 1481.62 2550.98 1481.62 Q2554.43 1481.62 2556.42 1479.42 Q2558.43 1477.22 2558.43 1473.43 L2558.43 1458.73 L2562.69 1458.73 L2562.69 1484.65 L2558.43 1484.65 L2558.43 1480.67 Q2556.88 1483.03 2554.82 1484.19 Q2552.79 1485.32 2550.08 1485.32 Q2545.61 1485.32 2543.3 1482.55 Q2540.98 1479.77 2540.98 1474.42 M2551.7 1458.1 L2551.7 1458.1 Z" fill="#000000" fill-rule="evenodd" fill-opacity="1" /><path clip-path="url(#clip700)" d="M 0 0 M2582.18 1462.71 Q2581.47 1462.29 2580.61 1462.11 Q2579.78 1461.9 2578.76 1461.9 Q2575.15 1461.9 2573.2 1464.26 Q2571.28 1466.6 2571.28 1470.99 L2571.28 1484.65 L2567 1484.65 L2567 1458.73 L2571.28 1458.73 L2571.28 1462.75 Q2572.62 1460.39 2574.78 1459.26 Q2576.93 1458.1 2580.01 1458.1 Q2580.45 1458.1 2580.98 1458.17 Q2581.51 1458.22 2582.16 1458.33 L2582.18 1462.71 Z" fill="#000000" fill-rule="evenodd" fill-opacity="1" /><path clip-path="url(#clip700)" d="M 0 0 M2598.43 1471.62 Q2593.27 1471.62 2591.28 1472.8 Q2589.29 1473.98 2589.29 1476.83 Q2589.29 1479.1 2590.77 1480.44 Q2592.28 1481.76 2594.85 1481.76 Q2598.39 1481.76 2600.52 1479.26 Q2602.67 1476.74 2602.67 1472.57 L2602.67 1471.62 L2598.43 1471.62 M2606.93 1469.86 L2606.93 1484.65 L2602.67 1484.65 L2602.67 1480.72 Q2601.21 1483.08 2599.04 1484.21 Q2596.86 1485.32 2593.71 1485.32 Q2589.73 1485.32 2587.37 1483.1 Q2585.03 1480.86 2585.03 1477.11 Q2585.03 1472.73 2587.95 1470.51 Q2590.89 1468.29 2596.7 1468.29 L2602.67 1468.29 L2602.67 1467.87 Q2602.67 1464.93 2600.73 1463.33 Q2598.8 1461.71 2595.31 1461.71 Q2593.09 1461.71 2590.98 1462.24 Q2588.87 1462.78 2586.93 1463.84 L2586.93 1459.91 Q2589.27 1459 2591.47 1458.56 Q2593.67 1458.1 2595.75 1458.1 Q2601.37 1458.1 2604.15 1461.02 Q2606.93 1463.93 2606.93 1469.86 Z" fill="#000000" fill-rule="evenodd" fill-opacity="1" /><path clip-path="url(#clip700)" d="M 0 0 M2615.61 1451.37 L2615.61 1458.73 L2624.38 1458.73 L2624.38 1462.04 L2615.61 1462.04 L2615.61 1476.11 Q2615.61 1479.28 2616.47 1480.18 Q2617.35 1481.09 2620.01 1481.09 L2624.38 1481.09 L2624.38 1484.65 L2620.01 1484.65 Q2615.08 1484.65 2613.2 1482.82 Q2611.33 1480.97 2611.33 1476.11 L2611.33 1462.04 L2608.2 1462.04 L2608.2 1458.73 L2611.33 1458.73 L2611.33 1451.37 L2615.61 1451.37 Z" fill="#000000" fill-rule="evenodd" fill-opacity="1" /><path clip-path="url(#clip700)" d="M 0 0 M2628.85 1458.73 L2633.11 1458.73 L2633.11 1484.65 L2628.85 1484.65 L2628.85 1458.73 M2628.85 1448.63 L2633.11 1448.63 L2633.11 1454.03 L2628.85 1454.03 L2628.85 1448.63 Z" fill="#000000" fill-rule="evenodd" fill-opacity="1" /><path clip-path="url(#clip700)" d="M 0 0 M2647.62 1461.71 Q2644.2 1461.71 2642.21 1464.4 Q2640.22 1467.06 2640.22 1471.71 Q2640.22 1476.37 2642.18 1479.05 Q2644.17 1481.71 2647.62 1481.71 Q2651.03 1481.71 2653.02 1479.03 Q2655.01 1476.34 2655.01 1471.71 Q2655.01 1467.11 2653.02 1464.42 Q2651.03 1461.71 2647.62 1461.71 M2647.62 1458.1 Q2653.18 1458.1 2656.35 1461.71 Q2659.52 1465.32 2659.52 1471.71 Q2659.52 1478.08 2656.35 1481.71 Q2653.18 1485.32 2647.62 1485.32 Q2642.05 1485.32 2638.87 1481.71 Q2635.73 1478.08 2635.73 1471.71 Q2635.73 1465.32 2638.87 1461.71 Q2642.05 1458.1 2647.62 1458.1 Z" fill="#000000" fill-rule="evenodd" fill-opacity="1" /><path clip-path="url(#clip700)" d="M 0 0 M2685.54 1469 L2685.54 1484.65 L2681.28 1484.65 L2681.28 1469.14 Q2681.28 1465.46 2679.85 1463.63 Q2678.41 1461.81 2675.54 1461.81 Q2672.09 1461.81 2670.1 1464 Q2668.11 1466.2 2668.11 1470 L2668.11 1484.65 L2663.83 1484.65 L2663.83 1458.73 L2668.11 1458.73 L2668.11 1462.75 Q2669.64 1460.42 2671.7 1459.26 Q2673.78 1458.1 2676.49 1458.1 Q2680.96 1458.1 2683.25 1460.88 Q2685.54 1463.63 2685.54 1469 Z" fill="#000000" fill-rule="evenodd" fill-opacity="1" /><polyline clip-path="url(#clip703)" style="stroke:#000000; stroke-width:2; stroke-opacity:0.1; fill:none" points="
  1918.68,1312.92 3042.52,1312.92 
  "/>
<polyline clip-path="url(#clip703)" style="stroke:#000000; stroke-width:2; stroke-opacity:0.1; fill:none" points="
  1918.68,1127.75 3042.52,1127.75 
  "/>
<polyline clip-path="url(#clip703)" style="stroke:#000000; stroke-width:2; stroke-opacity:0.1; fill:none" points="
  1918.68,942.569 3042.52,942.569 
  "/>
<polyline clip-path="url(#clip703)" style="stroke:#000000; stroke-width:2; stroke-opacity:0.1; fill:none" points="
  1918.68,757.392 3042.52,757.392 
  "/>
<polyline clip-path="url(#clip703)" style="stroke:#000000; stroke-width:2; stroke-opacity:0.1; fill:none" points="
  1918.68,572.216 3042.52,572.216 
  "/>
<polyline clip-path="url(#clip703)" style="stroke:#000000; stroke-width:2; stroke-opacity:0.1; fill:none" points="
  1918.68,387.039 3042.52,387.039 
  "/>
<polyline clip-path="url(#clip700)" style="stroke:#000000; stroke-width:4; stroke-opacity:1; fill:none" points="
  1918.68,1343.03 1918.68,212.343 
  "/>
<polyline clip-path="url(#clip700)" style="stroke:#000000; stroke-width:4; stroke-opacity:1; fill:none" points="
  1918.68,1312.92 1932.16,1312.92 
  "/>
<polyline clip-path="url(#clip700)" style="stroke:#000000; stroke-width:4; stroke-opacity:1; fill:none" points="
  1918.68,1127.75 1932.16,1127.75 
  "/>
<polyline clip-path="url(#clip700)" style="stroke:#000000; stroke-width:4; stroke-opacity:1; fill:none" points="
  1918.68,942.569 1932.16,942.569 
  "/>
<polyline clip-path="url(#clip700)" style="stroke:#000000; stroke-width:4; stroke-opacity:1; fill:none" points="
  1918.68,757.392 1932.16,757.392 
  "/>
<polyline clip-path="url(#clip700)" style="stroke:#000000; stroke-width:4; stroke-opacity:1; fill:none" points="
  1918.68,572.216 1932.16,572.216 
  "/>
<polyline clip-path="url(#clip700)" style="stroke:#000000; stroke-width:4; stroke-opacity:1; fill:none" points="
  1918.68,387.039 1932.16,387.039 
  "/>
<g clip-path="url(#clip700)">
<text style="fill:#000000; fill-opacity:1; font-family:Times New Roman,TimesNewRoman,Times,Baskerville,Georgia,serif; font-size:53px; text-anchor:end;" transform="rotate(0, 1870.68, 1330.42)" x="1870.68" y="1330.42">0</text>
</g>
<g clip-path="url(#clip700)">
<text style="fill:#000000; fill-opacity:1; font-family:Times New Roman,TimesNewRoman,Times,Baskerville,Georgia,serif; font-size:53px; text-anchor:end;" transform="rotate(0, 1870.68, 1145.25)" x="1870.68" y="1145.25">5</text>
</g>
<g clip-path="url(#clip700)">
<text style="fill:#000000; fill-opacity:1; font-family:Times New Roman,TimesNewRoman,Times,Baskerville,Georgia,serif; font-size:53px; text-anchor:end;" transform="rotate(0, 1870.68, 960.069)" x="1870.68" y="960.069">10</text>
</g>
<g clip-path="url(#clip700)">
<text style="fill:#000000; fill-opacity:1; font-family:Times New Roman,TimesNewRoman,Times,Baskerville,Georgia,serif; font-size:53px; text-anchor:end;" transform="rotate(0, 1870.68, 774.892)" x="1870.68" y="774.892">15</text>
</g>
<g clip-path="url(#clip700)">
<text style="fill:#000000; fill-opacity:1; font-family:Times New Roman,TimesNewRoman,Times,Baskerville,Georgia,serif; font-size:53px; text-anchor:end;" transform="rotate(0, 1870.68, 589.716)" x="1870.68" y="589.716">20</text>
</g>
<g clip-path="url(#clip700)">
<text style="fill:#000000; fill-opacity:1; font-family:Times New Roman,TimesNewRoman,Times,Baskerville,Georgia,serif; font-size:53px; text-anchor:end;" transform="rotate(0, 1870.68, 404.539)" x="1870.68" y="404.539">25</text>
</g>
<path clip-path="url(#clip700)" d="M 0 0 M1744.9 828.102 Q1744.9 830.115 1746.61 831.273 Q1748.32 832.407 1751.38 832.407 Q1754.39 832.407 1756.12 831.273 Q1757.84 830.115 1757.84 828.102 Q1757.84 826.134 1756.12 825 Q1754.39 823.842 1751.38 823.842 Q1748.35 823.842 1746.63 825 Q1744.9 826.134 1744.9 828.102 M1741.96 828.102 Q1741.96 824.444 1744.5 822.291 Q1747.05 820.139 1751.38 820.139 Q1755.71 820.139 1758.25 822.315 Q1760.78 824.467 1760.78 828.102 Q1760.78 831.805 1758.25 833.958 Q1755.71 836.111 1751.38 836.111 Q1747.03 836.111 1744.5 833.958 Q1741.96 831.782 1741.96 828.102 M1727.86 851.99 Q1727.86 853.981 1729.6 855.138 Q1731.31 856.273 1734.32 856.273 Q1737.37 856.273 1739.09 855.138 Q1740.8 854.004 1740.8 851.99 Q1740.8 849.976 1739.09 848.842 Q1737.37 847.685 1734.32 847.685 Q1731.33 847.685 1729.6 848.842 Q1727.86 850 1727.86 851.99 M1724.92 831.088 L1724.92 827.384 L1760.78 849.004 L1760.78 852.708 L1724.92 831.088 M1724.92 851.99 Q1724.92 848.333 1727.47 846.157 Q1729.99 843.981 1734.32 843.981 Q1738.69 843.981 1741.22 846.157 Q1743.74 848.31 1743.74 851.99 Q1743.74 855.671 1741.22 857.824 Q1738.67 859.953 1734.32 859.953 Q1730.01 859.953 1727.47 857.8 Q1724.92 855.648 1724.92 851.99 Z" fill="#000000" fill-rule="evenodd" fill-opacity="1" /><path clip-path="url(#clip700)" d="M 0 0 M1746.08 778.426 L1748.16 778.426 L1748.16 798.009 Q1752.56 797.731 1754.87 795.37 Q1757.17 792.986 1757.17 788.75 Q1757.17 786.296 1756.56 784.005 Q1755.96 781.69 1754.76 779.421 L1758.79 779.421 Q1759.76 781.713 1760.27 784.12 Q1760.78 786.528 1760.78 789.005 Q1760.78 795.208 1757.17 798.842 Q1753.55 802.454 1747.4 802.454 Q1741.03 802.454 1737.3 799.028 Q1733.55 795.579 1733.55 789.745 Q1733.55 784.514 1736.93 781.481 Q1740.29 778.426 1746.08 778.426 M1744.83 782.685 Q1741.33 782.731 1739.25 784.653 Q1737.17 786.551 1737.17 789.699 Q1737.17 793.264 1739.18 795.417 Q1741.19 797.546 1744.85 797.87 L1744.83 782.685 Z" fill="#000000" fill-rule="evenodd" fill-opacity="1" /><path clip-path="url(#clip700)" d="M 0 0 M1738.16 758.935 Q1737.74 759.653 1737.56 760.509 Q1737.35 761.343 1737.35 762.361 Q1737.35 765.972 1739.71 767.917 Q1742.05 769.838 1746.45 769.838 L1760.11 769.838 L1760.11 774.12 L1734.18 774.12 L1734.18 769.838 L1738.21 769.838 Q1735.85 768.495 1734.71 766.343 Q1733.55 764.19 1733.55 761.111 Q1733.55 760.671 1733.62 760.139 Q1733.67 759.607 1733.79 758.958 L1738.16 758.935 Z" fill="#000000" fill-rule="evenodd" fill-opacity="1" /><path clip-path="url(#clip700)" d="M 0 0 M1738.16 740.278 Q1737.74 740.996 1737.56 741.852 Q1737.35 742.685 1737.35 743.704 Q1737.35 747.315 1739.71 749.259 Q1742.05 751.181 1746.45 751.181 L1760.11 751.181 L1760.11 755.463 L1734.18 755.463 L1734.18 751.181 L1738.21 751.181 Q1735.85 749.838 1734.71 747.685 Q1733.55 745.533 1733.55 742.454 Q1733.55 742.014 1733.62 741.482 Q1733.67 740.949 1733.79 740.301 L1738.16 740.278 Z" fill="#000000" fill-rule="evenodd" fill-opacity="1" /><path clip-path="url(#clip700)" d="M 0 0 M1737.17 726.806 Q1737.17 730.232 1739.85 732.222 Q1742.51 734.213 1747.17 734.213 Q1751.82 734.213 1754.5 732.246 Q1757.17 730.255 1757.17 726.806 Q1757.17 723.403 1754.48 721.412 Q1751.8 719.422 1747.17 719.422 Q1742.56 719.422 1739.87 721.412 Q1737.17 723.403 1737.17 726.806 M1733.55 726.806 Q1733.55 721.25 1737.17 718.079 Q1740.78 714.908 1747.17 714.908 Q1753.53 714.908 1757.17 718.079 Q1760.78 721.25 1760.78 726.806 Q1760.78 732.384 1757.17 735.556 Q1753.53 738.704 1747.17 738.704 Q1740.78 738.704 1737.17 735.556 Q1733.55 732.384 1733.55 726.806 Z" fill="#000000" fill-rule="evenodd" fill-opacity="1" /><path clip-path="url(#clip700)" d="M 0 0 M1738.16 695.417 Q1737.74 696.135 1737.56 696.991 Q1737.35 697.824 1737.35 698.843 Q1737.35 702.454 1739.71 704.398 Q1742.05 706.32 1746.45 706.32 L1760.11 706.32 L1760.11 710.602 L1734.18 710.602 L1734.18 706.32 L1738.21 706.32 Q1735.85 704.977 1734.71 702.824 Q1733.55 700.672 1733.55 697.593 Q1733.55 697.153 1733.62 696.621 Q1733.67 696.088 1733.79 695.44 L1738.16 695.417 Z" fill="#000000" fill-rule="evenodd" fill-opacity="1" /><g clip-path="url(#clip700)">
<text style="fill:#000000; fill-opacity:1; font-family:Times New Roman,TimesNewRoman,Times,Baskerville,Georgia,serif; font-size:79px; text-anchor:middle;" transform="rotate(0, 2480.6, 62.4)" x="2480.6" y="62.4">βl/βn=0.5</text>
</g>
<polyline clip-path="url(#clip703)" style="stroke:#009af9; stroke-width:12; stroke-opacity:1; fill:none" points="
  1950.49,1311.03 1970.49,1306.1 1990.49,1299.35 2010.5,1291.66 2030.5,1282.84 2050.51,1274.7 2070.51,1266.31 2090.52,1257.89 2110.52,1249.4 2130.52,1244.17 
  2150.53,1236.79 2170.53,1232.16 2190.54,1233.79 2210.54,1232.19 2230.55,1231.54 2250.55,1237.82 2270.55,1242.59 2290.56,1248.89 2310.56,1260.12 2330.57,1273.1 
  2350.57,1287.79 2370.58,1304.14 2390.58,1305.51 2410.58,1268.5 2430.59,1232.61 2450.59,1195.04 2470.6,1160.97 2490.6,1126.35 2510.61,1089.43 2530.61,1047.31 
  2550.61,1013.68 2570.62,979.937 2590.62,937.488 2610.63,902.917 2630.63,871.017 2650.64,827.767 2670.64,795.939 2690.64,761.188 2710.65,722.063 2730.65,693.248 
  2750.66,652.69 2770.66,622.259 2790.67,585.262 2810.67,553.457 2830.67,521.817 2850.68,486.809 2870.68,457.995 2890.69,422.243 2910.69,393.327 2930.7,360.4 
  2950.7,331.881 2970.7,301.373 2990.71,268.874 3010.71,244.344 
  "/>
</svg>
