<?xml version="1.0" encoding="utf-8"?>
<svg xmlns="http://www.w3.org/2000/svg" xmlns:xlink="http://www.w3.org/1999/xlink" width="800" height="400" viewBox="0 0 3200 1600">
<defs>
  <clipPath id="clip260">
    <rect x="0" y="0" width="3200" height="1600"/>
  </clipPath>
</defs>
<path clip-path="url(#clip260)" d="
M0 1600 L3200 1600 L3200 0 L0 0  Z
  " fill="#ffffff" fill-rule="evenodd" fill-opacity="1"/>
<defs>
  <clipPath id="clip261">
    <rect x="640" y="0" width="2241" height="1600"/>
  </clipPath>
</defs>
<path clip-path="url(#clip260)" d="
M364.359 1343.03 L1455.57 1343.03 L1455.57 212.343 L364.359 212.343  Z
  " fill="#ffffff" fill-rule="evenodd" fill-opacity="1"/>
<defs>
  <clipPath id="clip262">
    <rect x="364" y="212" width="1092" height="1132"/>
  </clipPath>
</defs>
<polyline clip-path="url(#clip262)" style="stroke:#000000; stroke-width:2; stroke-opacity:0.1; fill:none" points="
  375.818,1343.03 375.818,212.343 
  "/>
<polyline clip-path="url(#clip262)" style="stroke:#000000; stroke-width:2; stroke-opacity:0.1; fill:none" points="
  570.054,1343.03 570.054,212.343 
  "/>
<polyline clip-path="url(#clip262)" style="stroke:#000000; stroke-width:2; stroke-opacity:0.1; fill:none" points="
  764.289,1343.03 764.289,212.343 
  "/>
<polyline clip-path="url(#clip262)" style="stroke:#000000; stroke-width:2; stroke-opacity:0.1; fill:none" points="
  958.524,1343.03 958.524,212.343 
  "/>
<polyline clip-path="url(#clip262)" style="stroke:#000000; stroke-width:2; stroke-opacity:0.1; fill:none" points="
  1152.76,1343.03 1152.76,212.343 
  "/>
<polyline clip-path="url(#clip262)" style="stroke:#000000; stroke-width:2; stroke-opacity:0.1; fill:none" points="
  1346.99,1343.03 1346.99,212.343 
  "/>
<polyline clip-path="url(#clip260)" style="stroke:#000000; stroke-width:4; stroke-opacity:1; fill:none" points="
  364.359,1343.03 1455.57,1343.03 
  "/>
<polyline clip-path="url(#clip260)" style="stroke:#000000; stroke-width:4; stroke-opacity:1; fill:none" points="
  375.818,1343.03 375.818,1329.46 
  "/>
<polyline clip-path="url(#clip260)" style="stroke:#000000; stroke-width:4; stroke-opacity:1; fill:none" points="
  570.054,1343.03 570.054,1329.46 
  "/>
<polyline clip-path="url(#clip260)" style="stroke:#000000; stroke-width:4; stroke-opacity:1; fill:none" points="
  764.289,1343.03 764.289,1329.46 
  "/>
<polyline clip-path="url(#clip260)" style="stroke:#000000; stroke-width:4; stroke-opacity:1; fill:none" points="
  958.524,1343.03 958.524,1329.46 
  "/>
<polyline clip-path="url(#clip260)" style="stroke:#000000; stroke-width:4; stroke-opacity:1; fill:none" points="
  1152.76,1343.03 1152.76,1329.46 
  "/>
<polyline clip-path="url(#clip260)" style="stroke:#000000; stroke-width:4; stroke-opacity:1; fill:none" points="
  1346.99,1343.03 1346.99,1329.46 
  "/>
<g clip-path="url(#clip260)">
<text style="fill:#000000; fill-opacity:1; font-family:Times New Roman,TimesNewRoman,Times,Baskerville,Georgia,serif; font-size:53px; text-anchor:middle;" transform="rotate(0, 375.818, 1410.63)" x="375.818" y="1410.63">0</text>
</g>
<g clip-path="url(#clip260)">
<text style="fill:#000000; fill-opacity:1; font-family:Times New Roman,TimesNewRoman,Times,Baskerville,Georgia,serif; font-size:53px; text-anchor:middle;" transform="rotate(0, 570.054, 1410.63)" x="570.054" y="1410.63">10</text>
</g>
<g clip-path="url(#clip260)">
<text style="fill:#000000; fill-opacity:1; font-family:Times New Roman,TimesNewRoman,Times,Baskerville,Georgia,serif; font-size:53px; text-anchor:middle;" transform="rotate(0, 764.289, 1410.63)" x="764.289" y="1410.63">20</text>
</g>
<g clip-path="url(#clip260)">
<text style="fill:#000000; fill-opacity:1; font-family:Times New Roman,TimesNewRoman,Times,Baskerville,Georgia,serif; font-size:53px; text-anchor:middle;" transform="rotate(0, 958.524, 1410.63)" x="958.524" y="1410.63">30</text>
</g>
<g clip-path="url(#clip260)">
<text style="fill:#000000; fill-opacity:1; font-family:Times New Roman,TimesNewRoman,Times,Baskerville,Georgia,serif; font-size:53px; text-anchor:middle;" transform="rotate(0, 1152.76, 1410.63)" x="1152.76" y="1410.63">40</text>
</g>
<g clip-path="url(#clip260)">
<text style="fill:#000000; fill-opacity:1; font-family:Times New Roman,TimesNewRoman,Times,Baskerville,Georgia,serif; font-size:53px; text-anchor:middle;" transform="rotate(0, 1346.99, 1410.63)" x="1346.99" y="1410.63">50</text>
</g>
<path clip-path="url(#clip260)" d="M 0 0 M705.024 1450.09 L709.7 1450.09 L709.7 1480.72 L726.528 1480.72 L726.528 1484.65 L705.024 1484.65 L705.024 1450.09 Z" fill="#000000" fill-rule="evenodd" fill-opacity="1" /><path clip-path="url(#clip260)" d="M 0 0 M740.209 1461.71 Q736.783 1461.71 734.792 1464.4 Q732.801 1467.06 732.801 1471.71 Q732.801 1476.37 734.769 1479.05 Q736.76 1481.71 740.209 1481.71 Q743.612 1481.71 745.602 1479.03 Q747.593 1476.34 747.593 1471.71 Q747.593 1467.11 745.602 1464.42 Q743.612 1461.71 740.209 1461.71 M740.209 1458.1 Q745.764 1458.1 748.936 1461.71 Q752.107 1465.32 752.107 1471.71 Q752.107 1478.08 748.936 1481.71 Q745.764 1485.32 740.209 1485.32 Q734.63 1485.32 731.459 1481.71 Q728.311 1478.08 728.311 1471.71 Q728.311 1465.32 731.459 1461.71 Q734.63 1458.1 740.209 1458.1 Z" fill="#000000" fill-rule="evenodd" fill-opacity="1" /><path clip-path="url(#clip260)" d="M 0 0 M775.232 1459.72 L775.232 1463.7 Q773.426 1462.71 771.598 1462.22 Q769.792 1461.71 767.94 1461.71 Q763.797 1461.71 761.505 1464.35 Q759.213 1466.97 759.213 1471.71 Q759.213 1476.46 761.505 1479.1 Q763.797 1481.71 767.94 1481.71 Q769.792 1481.71 771.598 1481.23 Q773.426 1480.72 775.232 1479.72 L775.232 1483.66 Q773.449 1484.49 771.528 1484.91 Q769.63 1485.32 767.477 1485.32 Q761.621 1485.32 758.172 1481.64 Q754.723 1477.96 754.723 1471.71 Q754.723 1465.37 758.195 1461.74 Q761.69 1458.1 767.755 1458.1 Q769.723 1458.1 771.598 1458.52 Q773.473 1458.91 775.232 1459.72 Z" fill="#000000" fill-rule="evenodd" fill-opacity="1" /><path clip-path="url(#clip260)" d="M 0 0 M779.537 1448.63 L783.82 1448.63 L783.82 1469.91 L796.528 1458.73 L801.968 1458.73 L788.218 1470.86 L802.546 1484.65 L796.991 1484.65 L783.82 1471.99 L783.82 1484.65 L779.537 1484.65 L779.537 1448.63 Z" fill="#000000" fill-rule="evenodd" fill-opacity="1" /><path clip-path="url(#clip260)" d="M 0 0 M824.074 1462.66 L824.074 1448.63 L828.333 1448.63 L828.333 1484.65 L824.074 1484.65 L824.074 1480.76 Q822.732 1483.08 820.671 1484.21 Q818.634 1485.32 815.764 1485.32 Q811.065 1485.32 808.102 1481.57 Q805.162 1477.82 805.162 1471.71 Q805.162 1465.6 808.102 1461.85 Q811.065 1458.1 815.764 1458.1 Q818.634 1458.1 820.671 1459.24 Q822.732 1460.35 824.074 1462.66 M809.56 1471.71 Q809.56 1476.41 811.482 1479.1 Q813.426 1481.76 816.806 1481.76 Q820.185 1481.76 822.13 1479.1 Q824.074 1476.41 824.074 1471.71 Q824.074 1467.01 822.13 1464.35 Q820.185 1461.67 816.806 1461.67 Q813.426 1461.67 811.482 1464.35 Q809.56 1467.01 809.56 1471.71 Z" fill="#000000" fill-rule="evenodd" fill-opacity="1" /><path clip-path="url(#clip260)" d="M 0 0 M842.847 1461.71 Q839.421 1461.71 837.43 1464.4 Q835.44 1467.06 835.44 1471.71 Q835.44 1476.37 837.407 1479.05 Q839.398 1481.71 842.847 1481.71 Q846.25 1481.71 848.241 1479.03 Q850.231 1476.34 850.231 1471.71 Q850.231 1467.11 848.241 1464.42 Q846.25 1461.71 842.847 1461.71 M842.847 1458.1 Q848.403 1458.1 851.574 1461.71 Q854.745 1465.32 854.745 1471.71 Q854.745 1478.08 851.574 1481.71 Q848.403 1485.32 842.847 1485.32 Q837.268 1485.32 834.097 1481.71 Q830.949 1478.08 830.949 1471.71 Q830.949 1465.32 834.097 1461.71 Q837.268 1458.1 842.847 1458.1 Z" fill="#000000" fill-rule="evenodd" fill-opacity="1" /><path clip-path="url(#clip260)" d="M 0 0 M856.736 1458.73 L860.995 1458.73 L866.319 1478.96 L871.62 1458.73 L876.643 1458.73 L881.967 1478.96 L887.268 1458.73 L891.527 1458.73 L884.745 1484.65 L879.722 1484.65 L874.143 1463.4 L868.541 1484.65 L863.518 1484.65 L856.736 1458.73 Z" fill="#000000" fill-rule="evenodd" fill-opacity="1" /><path clip-path="url(#clip260)" d="M 0 0 M917.546 1469 L917.546 1484.65 L913.287 1484.65 L913.287 1469.14 Q913.287 1465.46 911.851 1463.63 Q910.416 1461.81 907.546 1461.81 Q904.097 1461.81 902.106 1464 Q900.115 1466.2 900.115 1470 L900.115 1484.65 L895.833 1484.65 L895.833 1458.73 L900.115 1458.73 L900.115 1462.75 Q901.643 1460.42 903.703 1459.26 Q905.787 1458.1 908.495 1458.1 Q912.962 1458.1 915.254 1460.88 Q917.546 1463.63 917.546 1469 Z" fill="#000000" fill-rule="evenodd" fill-opacity="1" /><path clip-path="url(#clip260)" d="M 0 0 M941.944 1453.93 L941.944 1480.81 L947.592 1480.81 Q954.745 1480.81 958.055 1477.57 Q961.388 1474.33 961.388 1467.34 Q961.388 1460.39 958.055 1457.18 Q954.745 1453.93 947.592 1453.93 L941.944 1453.93 M937.268 1450.09 L946.874 1450.09 Q956.921 1450.09 961.62 1454.28 Q966.319 1458.45 966.319 1467.34 Q966.319 1476.27 961.596 1480.46 Q956.874 1484.65 946.874 1484.65 L937.268 1484.65 L937.268 1450.09 Z" fill="#000000" fill-rule="evenodd" fill-opacity="1" /><path clip-path="url(#clip260)" d="M 0 0 M970.346 1474.42 L970.346 1458.73 L974.606 1458.73 L974.606 1474.26 Q974.606 1477.94 976.041 1479.79 Q977.476 1481.62 980.346 1481.62 Q983.795 1481.62 985.786 1479.42 Q987.8 1477.22 987.8 1473.43 L987.8 1458.73 L992.059 1458.73 L992.059 1484.65 L987.8 1484.65 L987.8 1480.67 Q986.249 1483.03 984.189 1484.19 Q982.152 1485.32 979.444 1485.32 Q974.976 1485.32 972.661 1482.55 Q970.346 1479.77 970.346 1474.42 M981.064 1458.1 L981.064 1458.1 Z" fill="#000000" fill-rule="evenodd" fill-opacity="1" /><path clip-path="url(#clip260)" d="M 0 0 M1011.55 1462.71 Q1010.83 1462.29 1009.98 1462.11 Q1009.14 1461.9 1008.12 1461.9 Q1004.51 1461.9 1002.57 1464.26 Q1000.65 1466.6 1000.65 1470.99 L1000.65 1484.65 L996.365 1484.65 L996.365 1458.73 L1000.65 1458.73 L1000.65 1462.75 Q1001.99 1460.39 1004.14 1459.26 Q1006.3 1458.1 1009.37 1458.1 Q1009.81 1458.1 1010.35 1458.17 Q1010.88 1458.22 1011.53 1458.33 L1011.55 1462.71 Z" fill="#000000" fill-rule="evenodd" fill-opacity="1" /><path clip-path="url(#clip260)" d="M 0 0 M1027.8 1471.62 Q1022.64 1471.62 1020.65 1472.8 Q1018.66 1473.98 1018.66 1476.83 Q1018.66 1479.1 1020.14 1480.44 Q1021.64 1481.76 1024.21 1481.76 Q1027.75 1481.76 1029.88 1479.26 Q1032.04 1476.74 1032.04 1472.57 L1032.04 1471.62 L1027.8 1471.62 M1036.3 1469.86 L1036.3 1484.65 L1032.04 1484.65 L1032.04 1480.72 Q1030.58 1483.08 1028.4 1484.21 Q1026.23 1485.32 1023.08 1485.32 Q1019.1 1485.32 1016.74 1483.1 Q1014.4 1480.86 1014.4 1477.11 Q1014.4 1472.73 1017.31 1470.51 Q1020.25 1468.29 1026.06 1468.29 L1032.04 1468.29 L1032.04 1467.87 Q1032.04 1464.93 1030.09 1463.33 Q1028.17 1461.71 1024.67 1461.71 Q1022.45 1461.71 1020.35 1462.24 Q1018.24 1462.78 1016.3 1463.84 L1016.3 1459.91 Q1018.63 1459 1020.83 1458.56 Q1023.03 1458.1 1025.11 1458.1 Q1030.74 1458.1 1033.52 1461.02 Q1036.3 1463.93 1036.3 1469.86 Z" fill="#000000" fill-rule="evenodd" fill-opacity="1" /><path clip-path="url(#clip260)" d="M 0 0 M1044.98 1451.37 L1044.98 1458.73 L1053.75 1458.73 L1053.75 1462.04 L1044.98 1462.04 L1044.98 1476.11 Q1044.98 1479.28 1045.83 1480.18 Q1046.71 1481.09 1049.37 1481.09 L1053.75 1481.09 L1053.75 1484.65 L1049.37 1484.65 Q1044.44 1484.65 1042.57 1482.82 Q1040.69 1480.97 1040.69 1476.11 L1040.69 1462.04 L1037.57 1462.04 L1037.57 1458.73 L1040.69 1458.73 L1040.69 1451.37 L1044.98 1451.37 Z" fill="#000000" fill-rule="evenodd" fill-opacity="1" /><path clip-path="url(#clip260)" d="M 0 0 M1058.22 1458.73 L1062.48 1458.73 L1062.48 1484.65 L1058.22 1484.65 L1058.22 1458.73 M1058.22 1448.63 L1062.48 1448.63 L1062.48 1454.03 L1058.22 1454.03 L1058.22 1448.63 Z" fill="#000000" fill-rule="evenodd" fill-opacity="1" /><path clip-path="url(#clip260)" d="M 0 0 M1076.99 1461.71 Q1073.56 1461.71 1071.57 1464.4 Q1069.58 1467.06 1069.58 1471.71 Q1069.58 1476.37 1071.55 1479.05 Q1073.54 1481.71 1076.99 1481.71 Q1080.39 1481.71 1082.38 1479.03 Q1084.37 1476.34 1084.37 1471.71 Q1084.37 1467.11 1082.38 1464.42 Q1080.39 1461.71 1076.99 1461.71 M1076.99 1458.1 Q1082.54 1458.1 1085.72 1461.71 Q1088.89 1465.32 1088.89 1471.71 Q1088.89 1478.08 1085.72 1481.71 Q1082.54 1485.32 1076.99 1485.32 Q1071.41 1485.32 1068.24 1481.71 Q1065.09 1478.08 1065.09 1471.71 Q1065.09 1465.32 1068.24 1461.71 Q1071.41 1458.1 1076.99 1458.1 Z" fill="#000000" fill-rule="evenodd" fill-opacity="1" /><path clip-path="url(#clip260)" d="M 0 0 M1114.91 1469 L1114.91 1484.65 L1110.65 1484.65 L1110.65 1469.14 Q1110.65 1465.46 1109.21 1463.63 Q1107.78 1461.81 1104.91 1461.81 Q1101.46 1461.81 1099.47 1464 Q1097.48 1466.2 1097.48 1470 L1097.48 1484.65 L1093.19 1484.65 L1093.19 1458.73 L1097.48 1458.73 L1097.48 1462.75 Q1099 1460.42 1101.06 1459.26 Q1103.15 1458.1 1105.85 1458.1 Q1110.32 1458.1 1112.61 1460.88 Q1114.91 1463.63 1114.91 1469 Z" fill="#000000" fill-rule="evenodd" fill-opacity="1" /><polyline clip-path="url(#clip262)" style="stroke:#000000; stroke-width:2; stroke-opacity:0.1; fill:none" points="
  364.359,1213.19 1455.57,1213.19 
  "/>
<polyline clip-path="url(#clip262)" style="stroke:#000000; stroke-width:2; stroke-opacity:0.1; fill:none" points="
  364.359,1061.81 1455.57,1061.81 
  "/>
<polyline clip-path="url(#clip262)" style="stroke:#000000; stroke-width:2; stroke-opacity:0.1; fill:none" points="
  364.359,910.422 1455.57,910.422 
  "/>
<polyline clip-path="url(#clip262)" style="stroke:#000000; stroke-width:2; stroke-opacity:0.1; fill:none" points="
  364.359,759.036 1455.57,759.036 
  "/>
<polyline clip-path="url(#clip262)" style="stroke:#000000; stroke-width:2; stroke-opacity:0.1; fill:none" points="
  364.359,607.65 1455.57,607.65 
  "/>
<polyline clip-path="url(#clip262)" style="stroke:#000000; stroke-width:2; stroke-opacity:0.1; fill:none" points="
  364.359,456.264 1455.57,456.264 
  "/>
<polyline clip-path="url(#clip262)" style="stroke:#000000; stroke-width:2; stroke-opacity:0.1; fill:none" points="
  364.359,304.878 1455.57,304.878 
  "/>
<polyline clip-path="url(#clip260)" style="stroke:#000000; stroke-width:4; stroke-opacity:1; fill:none" points="
  364.359,1343.03 364.359,212.343 
  "/>
<polyline clip-path="url(#clip260)" style="stroke:#000000; stroke-width:4; stroke-opacity:1; fill:none" points="
  364.359,1213.19 377.453,1213.19 
  "/>
<polyline clip-path="url(#clip260)" style="stroke:#000000; stroke-width:4; stroke-opacity:1; fill:none" points="
  364.359,1061.81 377.453,1061.81 
  "/>
<polyline clip-path="url(#clip260)" style="stroke:#000000; stroke-width:4; stroke-opacity:1; fill:none" points="
  364.359,910.422 377.453,910.422 
  "/>
<polyline clip-path="url(#clip260)" style="stroke:#000000; stroke-width:4; stroke-opacity:1; fill:none" points="
  364.359,759.036 377.453,759.036 
  "/>
<polyline clip-path="url(#clip260)" style="stroke:#000000; stroke-width:4; stroke-opacity:1; fill:none" points="
  364.359,607.65 377.453,607.65 
  "/>
<polyline clip-path="url(#clip260)" style="stroke:#000000; stroke-width:4; stroke-opacity:1; fill:none" points="
  364.359,456.264 377.453,456.264 
  "/>
<polyline clip-path="url(#clip260)" style="stroke:#000000; stroke-width:4; stroke-opacity:1; fill:none" points="
  364.359,304.878 377.453,304.878 
  "/>
<g clip-path="url(#clip260)">
<text style="fill:#000000; fill-opacity:1; font-family:Times New Roman,TimesNewRoman,Times,Baskerville,Georgia,serif; font-size:53px; text-anchor:end;" transform="rotate(0, 316.359, 1230.69)" x="316.359" y="1230.69">0.225</text>
</g>
<g clip-path="url(#clip260)">
<text style="fill:#000000; fill-opacity:1; font-family:Times New Roman,TimesNewRoman,Times,Baskerville,Georgia,serif; font-size:53px; text-anchor:end;" transform="rotate(0, 316.359, 1079.31)" x="316.359" y="1079.31">0.250</text>
</g>
<g clip-path="url(#clip260)">
<text style="fill:#000000; fill-opacity:1; font-family:Times New Roman,TimesNewRoman,Times,Baskerville,Georgia,serif; font-size:53px; text-anchor:end;" transform="rotate(0, 316.359, 927.922)" x="316.359" y="927.922">0.275</text>
</g>
<g clip-path="url(#clip260)">
<text style="fill:#000000; fill-opacity:1; font-family:Times New Roman,TimesNewRoman,Times,Baskerville,Georgia,serif; font-size:53px; text-anchor:end;" transform="rotate(0, 316.359, 776.536)" x="316.359" y="776.536">0.300</text>
</g>
<g clip-path="url(#clip260)">
<text style="fill:#000000; fill-opacity:1; font-family:Times New Roman,TimesNewRoman,Times,Baskerville,Georgia,serif; font-size:53px; text-anchor:end;" transform="rotate(0, 316.359, 625.15)" x="316.359" y="625.15">0.325</text>
</g>
<g clip-path="url(#clip260)">
<text style="fill:#000000; fill-opacity:1; font-family:Times New Roman,TimesNewRoman,Times,Baskerville,Georgia,serif; font-size:53px; text-anchor:end;" transform="rotate(0, 316.359, 473.764)" x="316.359" y="473.764">0.350</text>
</g>
<g clip-path="url(#clip260)">
<text style="fill:#000000; fill-opacity:1; font-family:Times New Roman,TimesNewRoman,Times,Baskerville,Georgia,serif; font-size:53px; text-anchor:end;" transform="rotate(0, 316.359, 322.378)" x="316.359" y="322.378">0.375</text>
</g>
<path clip-path="url(#clip260)" d="M 0 0 M105.968 961.689 L105.968 957.013 L140.528 957.013 L140.528 961.689 L105.968 961.689 Z" fill="#000000" fill-rule="evenodd" fill-opacity="1" /><path clip-path="url(#clip260)" d="M 0 0 M124.88 930.995 L140.528 930.995 L140.528 935.254 L125.019 935.254 Q121.339 935.254 119.51 936.689 Q117.681 938.124 117.681 940.994 Q117.681 944.444 119.88 946.434 Q122.079 948.425 125.876 948.425 L140.528 948.425 L140.528 952.707 L114.603 952.707 L114.603 948.425 L118.63 948.425 Q116.292 946.897 115.135 944.837 Q113.978 942.754 113.978 940.045 Q113.978 935.578 116.755 933.286 Q119.51 930.995 124.88 930.995 Z" fill="#000000" fill-rule="evenodd" fill-opacity="1" /><path clip-path="url(#clip260)" d="M 0 0 M104.51 913.402 L108.052 913.402 L108.052 917.476 Q108.052 919.768 108.978 920.67 Q109.904 921.55 112.311 921.55 L114.603 921.55 L114.603 914.536 L117.913 914.536 L117.913 921.55 L140.528 921.55 L140.528 925.832 L117.913 925.832 L117.913 929.907 L114.603 929.907 L114.603 925.832 L112.797 925.832 Q108.468 925.832 106.501 923.819 Q104.51 921.805 104.51 917.43 L104.51 913.402 Z" fill="#000000" fill-rule="evenodd" fill-opacity="1" /><path clip-path="url(#clip260)" d="M 0 0 M126.501 886.759 L128.584 886.759 L128.584 906.342 Q132.982 906.064 135.297 903.703 Q137.589 901.319 137.589 897.083 Q137.589 894.629 136.987 892.337 Q136.385 890.022 135.181 887.754 L139.209 887.754 Q140.181 890.046 140.69 892.453 Q141.2 894.86 141.2 897.337 Q141.2 903.541 137.589 907.175 Q133.977 910.786 127.82 910.786 Q121.454 910.786 117.728 907.36 Q113.978 903.911 113.978 898.078 Q113.978 892.847 117.357 889.814 Q120.714 886.759 126.501 886.759 M125.251 891.018 Q121.755 891.064 119.672 892.985 Q117.589 894.884 117.589 898.032 Q117.589 901.597 119.603 903.749 Q121.616 905.879 125.274 906.203 L125.251 891.018 Z" fill="#000000" fill-rule="evenodd" fill-opacity="1" /><path clip-path="url(#clip260)" d="M 0 0 M115.598 863.634 L119.579 863.634 Q118.584 865.439 118.098 867.268 Q117.589 869.074 117.589 870.925 Q117.589 875.069 120.228 877.361 Q122.843 879.652 127.589 879.652 Q132.334 879.652 134.973 877.361 Q137.589 875.069 137.589 870.925 Q137.589 869.074 137.102 867.268 Q136.593 865.439 135.598 863.634 L139.533 863.634 Q140.366 865.416 140.783 867.337 Q141.2 869.236 141.2 871.388 Q141.2 877.245 137.519 880.694 Q133.839 884.143 127.589 884.143 Q121.246 884.143 117.612 880.671 Q113.978 877.175 113.978 871.111 Q113.978 869.143 114.394 867.268 Q114.788 865.393 115.598 863.634 Z" fill="#000000" fill-rule="evenodd" fill-opacity="1" /><path clip-path="url(#clip260)" d="M 0 0 M107.242 854.953 L114.603 854.953 L114.603 846.18 L117.913 846.18 L117.913 854.953 L131.987 854.953 Q135.158 854.953 136.061 854.097 Q136.964 853.217 136.964 850.555 L136.964 846.18 L140.528 846.18 L140.528 850.555 Q140.528 855.486 138.7 857.361 Q136.848 859.236 131.987 859.236 L117.913 859.236 L117.913 862.361 L114.603 862.361 L114.603 859.236 L107.242 859.236 L107.242 854.953 Z" fill="#000000" fill-rule="evenodd" fill-opacity="1" /><path clip-path="url(#clip260)" d="M 0 0 M126.501 819.537 L128.584 819.537 L128.584 839.12 Q132.982 838.842 135.297 836.481 Q137.589 834.097 137.589 829.861 Q137.589 827.407 136.987 825.115 Q136.385 822.801 135.181 820.532 L139.209 820.532 Q140.181 822.824 140.69 825.231 Q141.2 827.639 141.2 830.115 Q141.2 836.319 137.589 839.953 Q133.977 843.564 127.82 843.564 Q121.454 843.564 117.728 840.139 Q113.978 836.689 113.978 830.856 Q113.978 825.625 117.357 822.592 Q120.714 819.537 126.501 819.537 M125.251 823.796 Q121.755 823.842 119.672 825.764 Q117.589 827.662 117.589 830.81 Q117.589 834.375 119.603 836.527 Q121.616 838.657 125.274 838.981 L125.251 823.796 Z" fill="#000000" fill-rule="evenodd" fill-opacity="1" /><path clip-path="url(#clip260)" d="M 0 0 M118.538 798.009 L104.51 798.009 L104.51 793.75 L140.528 793.75 L140.528 798.009 L136.64 798.009 Q138.954 799.352 140.089 801.412 Q141.2 803.449 141.2 806.319 Q141.2 811.018 137.45 813.981 Q133.7 816.921 127.589 816.921 Q121.478 816.921 117.728 813.981 Q113.978 811.018 113.978 806.319 Q113.978 803.449 115.112 801.412 Q116.223 799.352 118.538 798.009 M127.589 812.523 Q132.288 812.523 134.973 810.602 Q137.635 808.657 137.635 805.278 Q137.635 801.898 134.973 799.954 Q132.288 798.009 127.589 798.009 Q122.89 798.009 120.228 799.954 Q117.542 801.898 117.542 805.278 Q117.542 808.657 120.228 810.602 Q122.89 812.523 127.589 812.523 Z" fill="#000000" fill-rule="evenodd" fill-opacity="1" /><path clip-path="url(#clip260)" d="M 0 0 M109.811 769.352 L122.797 769.352 L122.797 763.472 Q122.797 760.208 121.107 758.426 Q119.417 756.644 116.292 756.644 Q113.191 756.644 111.501 758.426 Q109.811 760.208 109.811 763.472 L109.811 769.352 M105.968 774.028 L105.968 763.472 Q105.968 757.662 108.607 754.699 Q111.223 751.713 116.292 751.713 Q121.408 751.713 124.024 754.699 Q126.64 757.662 126.64 763.472 L126.64 769.352 L140.528 769.352 L140.528 774.028 L105.968 774.028 Z" fill="#000000" fill-rule="evenodd" fill-opacity="1" /><path clip-path="url(#clip260)" d="M 0 0 M126.501 726.759 L128.584 726.759 L128.584 746.343 Q132.982 746.065 135.297 743.704 Q137.589 741.32 137.589 737.084 Q137.589 734.63 136.987 732.338 Q136.385 730.023 135.181 727.755 L139.209 727.755 Q140.181 730.047 140.69 732.454 Q141.2 734.861 141.2 737.338 Q141.2 743.542 137.589 747.176 Q133.977 750.787 127.82 750.787 Q121.454 750.787 117.728 747.361 Q113.978 743.912 113.978 738.079 Q113.978 732.847 117.357 729.815 Q120.714 726.759 126.501 726.759 M125.251 731.019 Q121.755 731.065 119.672 732.986 Q117.589 734.884 117.589 738.033 Q117.589 741.597 119.603 743.75 Q121.616 745.88 125.274 746.204 L125.251 731.019 Z" fill="#000000" fill-rule="evenodd" fill-opacity="1" /><path clip-path="url(#clip260)" d="M 0 0 M127.496 710.51 Q127.496 715.672 128.677 717.662 Q129.857 719.653 132.704 719.653 Q134.973 719.653 136.315 718.172 Q137.635 716.667 137.635 714.098 Q137.635 710.556 135.135 708.426 Q132.612 706.273 128.445 706.273 L127.496 706.273 L127.496 710.51 M125.737 702.014 L140.528 702.014 L140.528 706.273 L136.593 706.273 Q138.954 707.732 140.089 709.908 Q141.2 712.084 141.2 715.232 Q141.2 719.213 138.977 721.574 Q136.732 723.912 132.982 723.912 Q128.607 723.912 126.385 720.996 Q124.163 718.056 124.163 712.246 L124.163 706.273 L123.746 706.273 Q120.806 706.273 119.209 708.218 Q117.589 710.139 117.589 713.635 Q117.589 715.857 118.121 717.963 Q118.653 720.07 119.718 722.014 L115.783 722.014 Q114.88 719.676 114.441 717.477 Q113.978 715.278 113.978 713.195 Q113.978 707.57 116.894 704.792 Q119.811 702.014 125.737 702.014 Z" fill="#000000" fill-rule="evenodd" fill-opacity="1" /><path clip-path="url(#clip260)" d="M 0 0 M104.51 697.709 L104.51 693.426 L125.783 693.426 L114.603 680.718 L114.603 675.278 L126.732 689.028 L140.528 674.7 L140.528 680.255 L127.866 693.426 L140.528 693.426 L140.528 697.709 L104.51 697.709 Z" fill="#000000" fill-rule="evenodd" fill-opacity="1" /><path clip-path="url(#clip260)" d="M 0 0 M104.556 644.931 Q109.88 648.033 115.089 649.538 Q120.297 651.042 125.644 651.042 Q130.991 651.042 136.246 649.538 Q141.477 648.01 146.778 644.931 L146.778 648.635 Q141.339 652.107 136.084 653.843 Q130.829 655.556 125.644 655.556 Q120.482 655.556 115.251 653.843 Q110.019 652.13 104.556 648.635 L104.556 644.931 Z" fill="#000000" fill-rule="evenodd" fill-opacity="1" /><path clip-path="url(#clip260)" d="M 0 0 M105.968 640.278 L105.968 635.603 L140.528 635.603 L140.528 640.278 L105.968 640.278 Z" fill="#000000" fill-rule="evenodd" fill-opacity="1" /><path clip-path="url(#clip260)" d="M 0 0 M136.64 627.015 L150.389 627.015 L150.389 631.297 L114.603 631.297 L114.603 627.015 L118.538 627.015 Q116.223 625.672 115.112 623.635 Q113.978 621.575 113.978 618.728 Q113.978 614.005 117.728 611.066 Q121.478 608.103 127.589 608.103 Q133.7 608.103 137.45 611.066 Q141.2 614.005 141.2 618.728 Q141.2 621.575 140.089 623.635 Q138.954 625.672 136.64 627.015 M127.589 612.524 Q122.89 612.524 120.228 614.468 Q117.542 616.39 117.542 619.769 Q117.542 623.149 120.228 625.093 Q122.89 627.015 127.589 627.015 Q132.288 627.015 134.973 625.093 Q137.635 623.149 137.635 619.769 Q137.635 616.39 134.973 614.468 Q132.288 612.524 127.589 612.524 Z" fill="#000000" fill-rule="evenodd" fill-opacity="1" /><path clip-path="url(#clip260)" d="M 0 0 M104.556 604.306 L104.556 600.603 Q110.019 597.131 115.251 595.418 Q120.482 593.681 125.644 593.681 Q130.829 593.681 136.084 595.418 Q141.339 597.131 146.778 600.603 L146.778 604.306 Q141.477 601.228 136.246 599.723 Q130.991 598.195 125.644 598.195 Q120.297 598.195 115.089 599.723 Q109.88 601.228 104.556 604.306 Z" fill="#000000" fill-rule="evenodd" fill-opacity="1" /><g clip-path="url(#clip260)">
<text style="fill:#000000; fill-opacity:1; font-family:Times New Roman,TimesNewRoman,Times,Baskerville,Georgia,serif; font-size:79px; text-anchor:middle;" transform="rotate(0, 909.965, 62.4)" x="909.965" y="62.4">SIR</text>
</g>
<polyline clip-path="url(#clip262)" style="stroke:#009af9; stroke-width:12; stroke-opacity:1; fill:none" points="
  395.242,244.344 414.665,342.683 434.089,428.773 453.512,504.783 472.936,572.267 492.36,632.708 511.783,686.583 531.207,735.56 550.63,779.849 570.054,819.968 
  589.477,856.224 608.901,889.758 628.324,920.71 647.748,948.451 667.171,974.518 686.595,998.734 706.018,1020.78 725.442,1041.36 744.865,1060.14 764.289,1077.75 
  783.712,1094.2 803.136,1109.48 822.559,1123.58 841.983,1136.5 861.406,1149.41 880.83,1161.14 900.253,1171.69 919.677,1181.05 939.1,1191.59 958.524,1199.77 
  977.947,1207.95 997.371,1216.11 1016.79,1223.11 1036.22,1230.1 1055.64,1237.08 1075.06,1242.89 1094.49,1248.7 1113.91,1254.5 1133.34,1260.29 1152.76,1264.93 
  1172.18,1269.55 1191.61,1274.18 1211.03,1277.65 1230.45,1282.26 1249.88,1285.72 1269.3,1289.18 1288.72,1292.64 1308.15,1294.94 1327.57,1298.39 1346.99,1300.69 
  1366.42,1304.14 1385.84,1306.44 1405.26,1308.73 1424.69,1311.03 
  "/>
<polyline clip-path="url(#clip262)" style="stroke:#e26f46; stroke-width:12; stroke-opacity:1; fill:none" stroke-dasharray="48, 30" points="
  395.242,244.344 414.665,342.683 434.089,428.773 453.512,504.783 472.936,572.267 492.36,632.708 511.783,686.583 531.207,735.56 550.63,779.849 570.054,819.968 
  589.477,856.224 608.901,889.758 628.324,920.71 647.748,948.451 667.171,974.518 686.595,998.734 706.018,1020.78 725.442,1041.36 744.865,1060.14 764.289,1077.75 
  783.712,1094.2 803.136,1109.48 822.559,1123.58 841.983,1136.5 861.406,1149.41 880.83,1161.14 900.253,1171.69 919.677,1181.05 939.1,1191.59 958.524,1199.77 
  977.947,1207.95 997.371,1216.11 1016.79,1223.11 1036.22,1230.1 1055.64,1237.08 1075.06,1242.89 1094.49,1248.7 1113.91,1254.5 1133.34,1260.29 1152.76,1264.93 
  1172.18,1269.55 1191.61,1274.18 1211.03,1277.65 1230.45,1282.26 1249.88,1285.72 1269.3,1289.18 1288.72,1292.64 1308.15,1294.94 1327.57,1298.39 1346.99,1300.69 
  1366.42,1304.14 1385.84,1306.44 1405.26,1308.73 1424.69,1311.03 
  "/>
<path clip-path="url(#clip260)" d="
M919.462 431.473 L1419.2 431.473 L1419.2 250.033 L919.462 250.033  Z
  " fill="#ffffff" fill-rule="evenodd" fill-opacity="1"/>
<polyline clip-path="url(#clip260)" style="stroke:#000000; stroke-width:4; stroke-opacity:1; fill:none" points="
  919.462,431.473 1419.2,431.473 1419.2,250.033 919.462,250.033 919.462,431.473 
  "/>
<polyline clip-path="url(#clip260)" style="stroke:#009af9; stroke-width:4; stroke-opacity:1; fill:none" points="
  931.587,310.513 1004.33,310.513 
  "/>
<g clip-path="url(#clip260)">
<text style="fill:#000000; fill-opacity:1; font-family:Times New Roman,TimesNewRoman,Times,Baskerville,Georgia,serif; font-size:53px; text-anchor:start;" transform="rotate(0, 1016.46, 328.013)" x="1016.46" y="328.013">approximation</text>
</g>
<polyline clip-path="url(#clip260)" style="stroke:#e26f46; stroke-width:4; stroke-opacity:1; fill:none" stroke-dasharray="16, 10" points="
  931.587,370.993 1004.33,370.993 
  "/>
<g clip-path="url(#clip260)">
<text style="fill:#000000; fill-opacity:1; font-family:Times New Roman,TimesNewRoman,Times,Baskerville,Georgia,serif; font-size:53px; text-anchor:start;" transform="rotate(0, 1016.46, 388.493)" x="1016.46" y="388.493">optimal lockdown</text>
</g>
<path clip-path="url(#clip260)" d="
M1951.31 1343.03 L3042.52 1343.03 L3042.52 212.343 L1951.31 212.343  Z
  " fill="#ffffff" fill-rule="evenodd" fill-opacity="1"/>
<defs>
  <clipPath id="clip263">
    <rect x="1951" y="212" width="1092" height="1132"/>
  </clipPath>
</defs>
<polyline clip-path="url(#clip263)" style="stroke:#000000; stroke-width:2; stroke-opacity:0.1; fill:none" points="
  1962.77,1343.03 1962.77,212.343 
  "/>
<polyline clip-path="url(#clip263)" style="stroke:#000000; stroke-width:2; stroke-opacity:0.1; fill:none" points="
  2157,1343.03 2157,212.343 
  "/>
<polyline clip-path="url(#clip263)" style="stroke:#000000; stroke-width:2; stroke-opacity:0.1; fill:none" points="
  2351.24,1343.03 2351.24,212.343 
  "/>
<polyline clip-path="url(#clip263)" style="stroke:#000000; stroke-width:2; stroke-opacity:0.1; fill:none" points="
  2545.47,1343.03 2545.47,212.343 
  "/>
<polyline clip-path="url(#clip263)" style="stroke:#000000; stroke-width:2; stroke-opacity:0.1; fill:none" points="
  2739.71,1343.03 2739.71,212.343 
  "/>
<polyline clip-path="url(#clip263)" style="stroke:#000000; stroke-width:2; stroke-opacity:0.1; fill:none" points="
  2933.94,1343.03 2933.94,212.343 
  "/>
<polyline clip-path="url(#clip260)" style="stroke:#000000; stroke-width:4; stroke-opacity:1; fill:none" points="
  1951.31,1343.03 3042.52,1343.03 
  "/>
<polyline clip-path="url(#clip260)" style="stroke:#000000; stroke-width:4; stroke-opacity:1; fill:none" points="
  1962.77,1343.03 1962.77,1329.46 
  "/>
<polyline clip-path="url(#clip260)" style="stroke:#000000; stroke-width:4; stroke-opacity:1; fill:none" points="
  2157,1343.03 2157,1329.46 
  "/>
<polyline clip-path="url(#clip260)" style="stroke:#000000; stroke-width:4; stroke-opacity:1; fill:none" points="
  2351.24,1343.03 2351.24,1329.46 
  "/>
<polyline clip-path="url(#clip260)" style="stroke:#000000; stroke-width:4; stroke-opacity:1; fill:none" points="
  2545.47,1343.03 2545.47,1329.46 
  "/>
<polyline clip-path="url(#clip260)" style="stroke:#000000; stroke-width:4; stroke-opacity:1; fill:none" points="
  2739.71,1343.03 2739.71,1329.46 
  "/>
<polyline clip-path="url(#clip260)" style="stroke:#000000; stroke-width:4; stroke-opacity:1; fill:none" points="
  2933.94,1343.03 2933.94,1329.46 
  "/>
<g clip-path="url(#clip260)">
<text style="fill:#000000; fill-opacity:1; font-family:Times New Roman,TimesNewRoman,Times,Baskerville,Georgia,serif; font-size:53px; text-anchor:middle;" transform="rotate(0, 1962.77, 1410.63)" x="1962.77" y="1410.63">0</text>
</g>
<g clip-path="url(#clip260)">
<text style="fill:#000000; fill-opacity:1; font-family:Times New Roman,TimesNewRoman,Times,Baskerville,Georgia,serif; font-size:53px; text-anchor:middle;" transform="rotate(0, 2157, 1410.63)" x="2157" y="1410.63">10</text>
</g>
<g clip-path="url(#clip260)">
<text style="fill:#000000; fill-opacity:1; font-family:Times New Roman,TimesNewRoman,Times,Baskerville,Georgia,serif; font-size:53px; text-anchor:middle;" transform="rotate(0, 2351.24, 1410.63)" x="2351.24" y="1410.63">20</text>
</g>
<g clip-path="url(#clip260)">
<text style="fill:#000000; fill-opacity:1; font-family:Times New Roman,TimesNewRoman,Times,Baskerville,Georgia,serif; font-size:53px; text-anchor:middle;" transform="rotate(0, 2545.47, 1410.63)" x="2545.47" y="1410.63">30</text>
</g>
<g clip-path="url(#clip260)">
<text style="fill:#000000; fill-opacity:1; font-family:Times New Roman,TimesNewRoman,Times,Baskerville,Georgia,serif; font-size:53px; text-anchor:middle;" transform="rotate(0, 2739.71, 1410.63)" x="2739.71" y="1410.63">40</text>
</g>
<g clip-path="url(#clip260)">
<text style="fill:#000000; fill-opacity:1; font-family:Times New Roman,TimesNewRoman,Times,Baskerville,Georgia,serif; font-size:53px; text-anchor:middle;" transform="rotate(0, 2933.94, 1410.63)" x="2933.94" y="1410.63">50</text>
</g>
<path clip-path="url(#clip260)" d="M 0 0 M2291.97 1450.09 L2296.65 1450.09 L2296.65 1480.72 L2313.48 1480.72 L2313.48 1484.65 L2291.97 1484.65 L2291.97 1450.09 Z" fill="#000000" fill-rule="evenodd" fill-opacity="1" /><path clip-path="url(#clip260)" d="M 0 0 M2327.16 1461.71 Q2323.73 1461.71 2321.74 1464.4 Q2319.75 1467.06 2319.75 1471.71 Q2319.75 1476.37 2321.72 1479.05 Q2323.71 1481.71 2327.16 1481.71 Q2330.56 1481.71 2332.55 1479.03 Q2334.54 1476.34 2334.54 1471.71 Q2334.54 1467.11 2332.55 1464.42 Q2330.56 1461.71 2327.16 1461.71 M2327.16 1458.1 Q2332.71 1458.1 2335.88 1461.71 Q2339.06 1465.32 2339.06 1471.71 Q2339.06 1478.08 2335.88 1481.71 Q2332.71 1485.32 2327.16 1485.32 Q2321.58 1485.32 2318.41 1481.71 Q2315.26 1478.08 2315.26 1471.71 Q2315.26 1465.32 2318.41 1461.71 Q2321.58 1458.1 2327.16 1458.1 Z" fill="#000000" fill-rule="evenodd" fill-opacity="1" /><path clip-path="url(#clip260)" d="M 0 0 M2362.18 1459.72 L2362.18 1463.7 Q2360.37 1462.71 2358.55 1462.22 Q2356.74 1461.71 2354.89 1461.71 Q2350.75 1461.71 2348.45 1464.35 Q2346.16 1466.97 2346.16 1471.71 Q2346.16 1476.46 2348.45 1479.1 Q2350.75 1481.71 2354.89 1481.71 Q2356.74 1481.71 2358.55 1481.23 Q2360.37 1480.72 2362.18 1479.72 L2362.18 1483.66 Q2360.4 1484.49 2358.48 1484.91 Q2356.58 1485.32 2354.43 1485.32 Q2348.57 1485.32 2345.12 1481.64 Q2341.67 1477.96 2341.67 1471.71 Q2341.67 1465.37 2345.14 1461.74 Q2348.64 1458.1 2354.7 1458.1 Q2356.67 1458.1 2358.55 1458.52 Q2360.42 1458.91 2362.18 1459.72 Z" fill="#000000" fill-rule="evenodd" fill-opacity="1" /><path clip-path="url(#clip260)" d="M 0 0 M2366.49 1448.63 L2370.77 1448.63 L2370.77 1469.91 L2383.48 1458.73 L2388.92 1458.73 L2375.17 1470.86 L2389.5 1484.65 L2383.94 1484.65 L2370.77 1471.99 L2370.77 1484.65 L2366.49 1484.65 L2366.49 1448.63 Z" fill="#000000" fill-rule="evenodd" fill-opacity="1" /><path clip-path="url(#clip260)" d="M 0 0 M2411.02 1462.66 L2411.02 1448.63 L2415.28 1448.63 L2415.28 1484.65 L2411.02 1484.65 L2411.02 1480.76 Q2409.68 1483.08 2407.62 1484.21 Q2405.58 1485.32 2402.71 1485.32 Q2398.01 1485.32 2395.05 1481.57 Q2392.11 1477.82 2392.11 1471.71 Q2392.11 1465.6 2395.05 1461.85 Q2398.01 1458.1 2402.71 1458.1 Q2405.58 1458.1 2407.62 1459.24 Q2409.68 1460.35 2411.02 1462.66 M2396.51 1471.71 Q2396.51 1476.41 2398.43 1479.1 Q2400.37 1481.76 2403.75 1481.76 Q2407.13 1481.76 2409.08 1479.1 Q2411.02 1476.41 2411.02 1471.71 Q2411.02 1467.01 2409.08 1464.35 Q2407.13 1461.67 2403.75 1461.67 Q2400.37 1461.67 2398.43 1464.35 Q2396.51 1467.01 2396.51 1471.71 Z" fill="#000000" fill-rule="evenodd" fill-opacity="1" /><path clip-path="url(#clip260)" d="M 0 0 M2429.8 1461.71 Q2426.37 1461.71 2424.38 1464.4 Q2422.39 1467.06 2422.39 1471.71 Q2422.39 1476.37 2424.36 1479.05 Q2426.35 1481.71 2429.8 1481.71 Q2433.2 1481.71 2435.19 1479.03 Q2437.18 1476.34 2437.18 1471.71 Q2437.18 1467.11 2435.19 1464.42 Q2433.2 1461.71 2429.8 1461.71 M2429.8 1458.1 Q2435.35 1458.1 2438.52 1461.71 Q2441.69 1465.32 2441.69 1471.71 Q2441.69 1478.08 2438.52 1481.71 Q2435.35 1485.32 2429.8 1485.32 Q2424.22 1485.32 2421.05 1481.71 Q2417.9 1478.08 2417.9 1471.71 Q2417.9 1465.32 2421.05 1461.71 Q2424.22 1458.1 2429.8 1458.1 Z" fill="#000000" fill-rule="evenodd" fill-opacity="1" /><path clip-path="url(#clip260)" d="M 0 0 M2443.68 1458.73 L2447.94 1458.73 L2453.27 1478.96 L2458.57 1458.73 L2463.59 1458.73 L2468.92 1478.96 L2474.22 1458.73 L2478.48 1458.73 L2471.69 1484.65 L2466.67 1484.65 L2461.09 1463.4 L2455.49 1484.65 L2450.47 1484.65 L2443.68 1458.73 Z" fill="#000000" fill-rule="evenodd" fill-opacity="1" /><path clip-path="url(#clip260)" d="M 0 0 M2504.49 1469 L2504.49 1484.65 L2500.24 1484.65 L2500.24 1469.14 Q2500.24 1465.46 2498.8 1463.63 Q2497.36 1461.81 2494.49 1461.81 Q2491.05 1461.81 2489.05 1464 Q2487.06 1466.2 2487.06 1470 L2487.06 1484.65 L2482.78 1484.65 L2482.78 1458.73 L2487.06 1458.73 L2487.06 1462.75 Q2488.59 1460.42 2490.65 1459.26 Q2492.74 1458.1 2495.44 1458.1 Q2499.91 1458.1 2502.2 1460.88 Q2504.49 1463.63 2504.49 1469 Z" fill="#000000" fill-rule="evenodd" fill-opacity="1" /><path clip-path="url(#clip260)" d="M 0 0 M2528.89 1453.93 L2528.89 1480.81 L2534.54 1480.81 Q2541.69 1480.81 2545 1477.57 Q2548.34 1474.33 2548.34 1467.34 Q2548.34 1460.39 2545 1457.18 Q2541.69 1453.93 2534.54 1453.93 L2528.89 1453.93 M2524.22 1450.09 L2533.82 1450.09 Q2543.87 1450.09 2548.57 1454.28 Q2553.27 1458.45 2553.27 1467.34 Q2553.27 1476.27 2548.55 1480.46 Q2543.82 1484.65 2533.82 1484.65 L2524.22 1484.65 L2524.22 1450.09 Z" fill="#000000" fill-rule="evenodd" fill-opacity="1" /><path clip-path="url(#clip260)" d="M 0 0 M2557.3 1474.42 L2557.3 1458.73 L2561.55 1458.73 L2561.55 1474.26 Q2561.55 1477.94 2562.99 1479.79 Q2564.42 1481.62 2567.3 1481.62 Q2570.74 1481.62 2572.73 1479.42 Q2574.75 1477.22 2574.75 1473.43 L2574.75 1458.73 L2579.01 1458.73 L2579.01 1484.65 L2574.75 1484.65 L2574.75 1480.67 Q2573.2 1483.03 2571.14 1484.19 Q2569.1 1485.32 2566.39 1485.32 Q2561.92 1485.32 2559.61 1482.55 Q2557.3 1479.77 2557.3 1474.42 M2568.01 1458.1 L2568.01 1458.1 Z" fill="#000000" fill-rule="evenodd" fill-opacity="1" /><path clip-path="url(#clip260)" d="M 0 0 M2598.5 1462.71 Q2597.78 1462.29 2596.92 1462.11 Q2596.09 1461.9 2595.07 1461.9 Q2591.46 1461.9 2589.52 1464.26 Q2587.6 1466.6 2587.6 1470.99 L2587.6 1484.65 L2583.31 1484.65 L2583.31 1458.73 L2587.6 1458.73 L2587.6 1462.75 Q2588.94 1460.39 2591.09 1459.26 Q2593.24 1458.1 2596.32 1458.1 Q2596.76 1458.1 2597.29 1458.17 Q2597.83 1458.22 2598.48 1458.33 L2598.5 1462.71 Z" fill="#000000" fill-rule="evenodd" fill-opacity="1" /><path clip-path="url(#clip260)" d="M 0 0 M2614.75 1471.62 Q2609.59 1471.62 2607.6 1472.8 Q2605.61 1473.98 2605.61 1476.83 Q2605.61 1479.1 2607.09 1480.44 Q2608.59 1481.76 2611.16 1481.76 Q2614.7 1481.76 2616.83 1479.26 Q2618.98 1476.74 2618.98 1472.57 L2618.98 1471.62 L2614.75 1471.62 M2623.24 1469.86 L2623.24 1484.65 L2618.98 1484.65 L2618.98 1480.72 Q2617.53 1483.08 2615.35 1484.21 Q2613.17 1485.32 2610.03 1485.32 Q2606.04 1485.32 2603.68 1483.1 Q2601.35 1480.86 2601.35 1477.11 Q2601.35 1472.73 2604.26 1470.51 Q2607.2 1468.29 2613.01 1468.29 L2618.98 1468.29 L2618.98 1467.87 Q2618.98 1464.93 2617.04 1463.33 Q2615.12 1461.71 2611.62 1461.71 Q2609.4 1461.71 2607.29 1462.24 Q2605.19 1462.78 2603.24 1463.84 L2603.24 1459.91 Q2605.58 1459 2607.78 1458.56 Q2609.98 1458.1 2612.06 1458.1 Q2617.69 1458.1 2620.47 1461.02 Q2623.24 1463.93 2623.24 1469.86 Z" fill="#000000" fill-rule="evenodd" fill-opacity="1" /><path clip-path="url(#clip260)" d="M 0 0 M2631.92 1451.37 L2631.92 1458.73 L2640.7 1458.73 L2640.7 1462.04 L2631.92 1462.04 L2631.92 1476.11 Q2631.92 1479.28 2632.78 1480.18 Q2633.66 1481.09 2636.32 1481.09 L2640.7 1481.09 L2640.7 1484.65 L2636.32 1484.65 Q2631.39 1484.65 2629.52 1482.82 Q2627.64 1480.97 2627.64 1476.11 L2627.64 1462.04 L2624.52 1462.04 L2624.52 1458.73 L2627.64 1458.73 L2627.64 1451.37 L2631.92 1451.37 Z" fill="#000000" fill-rule="evenodd" fill-opacity="1" /><path clip-path="url(#clip260)" d="M 0 0 M2645.16 1458.73 L2649.42 1458.73 L2649.42 1484.65 L2645.16 1484.65 L2645.16 1458.73 M2645.16 1448.63 L2649.42 1448.63 L2649.42 1454.03 L2645.16 1454.03 L2645.16 1448.63 Z" fill="#000000" fill-rule="evenodd" fill-opacity="1" /><path clip-path="url(#clip260)" d="M 0 0 M2663.94 1461.71 Q2660.51 1461.71 2658.52 1464.4 Q2656.53 1467.06 2656.53 1471.71 Q2656.53 1476.37 2658.5 1479.05 Q2660.49 1481.71 2663.94 1481.71 Q2667.34 1481.71 2669.33 1479.03 Q2671.32 1476.34 2671.32 1471.71 Q2671.32 1467.11 2669.33 1464.42 Q2667.34 1461.71 2663.94 1461.71 M2663.94 1458.1 Q2669.49 1458.1 2672.66 1461.71 Q2675.84 1465.32 2675.84 1471.71 Q2675.84 1478.08 2672.66 1481.71 Q2669.49 1485.32 2663.94 1485.32 Q2658.36 1485.32 2655.19 1481.71 Q2652.04 1478.08 2652.04 1471.71 Q2652.04 1465.32 2655.19 1461.71 Q2658.36 1458.1 2663.94 1458.1 Z" fill="#000000" fill-rule="evenodd" fill-opacity="1" /><path clip-path="url(#clip260)" d="M 0 0 M2701.85 1469 L2701.85 1484.65 L2697.6 1484.65 L2697.6 1469.14 Q2697.6 1465.46 2696.16 1463.63 Q2694.72 1461.81 2691.85 1461.81 Q2688.41 1461.81 2686.41 1464 Q2684.42 1466.2 2684.42 1470 L2684.42 1484.65 L2680.14 1484.65 L2680.14 1458.73 L2684.42 1458.73 L2684.42 1462.75 Q2685.95 1460.42 2688.01 1459.26 Q2690.1 1458.1 2692.8 1458.1 Q2697.27 1458.1 2699.56 1460.88 Q2701.85 1463.63 2701.85 1469 Z" fill="#000000" fill-rule="evenodd" fill-opacity="1" /><polyline clip-path="url(#clip263)" style="stroke:#000000; stroke-width:2; stroke-opacity:0.1; fill:none" points="
  1951.31,1311.03 3042.52,1311.03 
  "/>
<polyline clip-path="url(#clip263)" style="stroke:#000000; stroke-width:2; stroke-opacity:0.1; fill:none" points="
  1951.31,1044.36 3042.52,1044.36 
  "/>
<polyline clip-path="url(#clip263)" style="stroke:#000000; stroke-width:2; stroke-opacity:0.1; fill:none" points="
  1951.31,777.685 3042.52,777.685 
  "/>
<polyline clip-path="url(#clip263)" style="stroke:#000000; stroke-width:2; stroke-opacity:0.1; fill:none" points="
  1951.31,511.014 3042.52,511.014 
  "/>
<polyline clip-path="url(#clip263)" style="stroke:#000000; stroke-width:2; stroke-opacity:0.1; fill:none" points="
  1951.31,244.344 3042.52,244.344 
  "/>
<polyline clip-path="url(#clip260)" style="stroke:#000000; stroke-width:4; stroke-opacity:1; fill:none" points="
  1951.31,1343.03 1951.31,212.343 
  "/>
<polyline clip-path="url(#clip260)" style="stroke:#000000; stroke-width:4; stroke-opacity:1; fill:none" points="
  1951.31,1311.03 1964.4,1311.03 
  "/>
<polyline clip-path="url(#clip260)" style="stroke:#000000; stroke-width:4; stroke-opacity:1; fill:none" points="
  1951.31,1044.36 1964.4,1044.36 
  "/>
<polyline clip-path="url(#clip260)" style="stroke:#000000; stroke-width:4; stroke-opacity:1; fill:none" points="
  1951.31,777.685 1964.4,777.685 
  "/>
<polyline clip-path="url(#clip260)" style="stroke:#000000; stroke-width:4; stroke-opacity:1; fill:none" points="
  1951.31,511.014 1964.4,511.014 
  "/>
<polyline clip-path="url(#clip260)" style="stroke:#000000; stroke-width:4; stroke-opacity:1; fill:none" points="
  1951.31,244.344 1964.4,244.344 
  "/>
<g clip-path="url(#clip260)">
<text style="fill:#000000; fill-opacity:1; font-family:Times New Roman,TimesNewRoman,Times,Baskerville,Georgia,serif; font-size:53px; text-anchor:end;" transform="rotate(0, 1903.31, 1328.53)" x="1903.31" y="1328.53">0.00</text>
</g>
<g clip-path="url(#clip260)">
<text style="fill:#000000; fill-opacity:1; font-family:Times New Roman,TimesNewRoman,Times,Baskerville,Georgia,serif; font-size:53px; text-anchor:end;" transform="rotate(0, 1903.31, 1061.86)" x="1903.31" y="1061.86">0.25</text>
</g>
<g clip-path="url(#clip260)">
<text style="fill:#000000; fill-opacity:1; font-family:Times New Roman,TimesNewRoman,Times,Baskerville,Georgia,serif; font-size:53px; text-anchor:end;" transform="rotate(0, 1903.31, 795.185)" x="1903.31" y="795.185">0.50</text>
</g>
<g clip-path="url(#clip260)">
<text style="fill:#000000; fill-opacity:1; font-family:Times New Roman,TimesNewRoman,Times,Baskerville,Georgia,serif; font-size:53px; text-anchor:end;" transform="rotate(0, 1903.31, 528.514)" x="1903.31" y="528.514">0.75</text>
</g>
<g clip-path="url(#clip260)">
<text style="fill:#000000; fill-opacity:1; font-family:Times New Roman,TimesNewRoman,Times,Baskerville,Georgia,serif; font-size:53px; text-anchor:end;" transform="rotate(0, 1903.31, 261.844)" x="1903.31" y="261.844">1.00</text>
</g>
<path clip-path="url(#clip260)" d="M 0 0 M1738.37 828.102 Q1738.37 830.115 1740.08 831.273 Q1741.8 832.407 1744.85 832.407 Q1747.86 832.407 1749.6 831.273 Q1751.31 830.115 1751.31 828.102 Q1751.31 826.134 1749.6 825 Q1747.86 823.842 1744.85 823.842 Q1741.82 823.842 1740.11 825 Q1738.37 826.134 1738.37 828.102 M1735.43 828.102 Q1735.43 824.444 1737.98 822.291 Q1740.52 820.139 1744.85 820.139 Q1749.18 820.139 1751.73 822.315 Q1754.25 824.467 1754.25 828.102 Q1754.25 831.805 1751.73 833.958 Q1749.18 836.111 1744.85 836.111 Q1740.5 836.111 1737.98 833.958 Q1735.43 831.782 1735.43 828.102 M1721.33 851.99 Q1721.33 853.981 1723.07 855.138 Q1724.78 856.273 1727.79 856.273 Q1730.85 856.273 1732.56 855.138 Q1734.27 854.004 1734.27 851.99 Q1734.27 849.976 1732.56 848.842 Q1730.85 847.685 1727.79 847.685 Q1724.81 847.685 1723.07 848.842 Q1721.33 850 1721.33 851.99 M1718.39 831.088 L1718.39 827.384 L1754.25 849.004 L1754.25 852.708 L1718.39 831.088 M1718.39 851.99 Q1718.39 848.333 1720.94 846.157 Q1723.46 843.981 1727.79 843.981 Q1732.17 843.981 1734.69 846.157 Q1737.21 848.31 1737.21 851.99 Q1737.21 855.671 1734.69 857.824 Q1732.14 859.953 1727.79 859.953 Q1723.49 859.953 1720.94 857.8 Q1718.39 855.648 1718.39 851.99 Z" fill="#000000" fill-rule="evenodd" fill-opacity="1" /><path clip-path="url(#clip260)" d="M 0 0 M1739.55 778.426 L1741.64 778.426 L1741.64 798.009 Q1746.03 797.731 1748.35 795.37 Q1750.64 792.986 1750.64 788.75 Q1750.64 786.296 1750.04 784.005 Q1749.44 781.69 1748.23 779.421 L1752.26 779.421 Q1753.23 781.713 1753.74 784.12 Q1754.25 786.528 1754.25 789.005 Q1754.25 795.208 1750.64 798.842 Q1747.03 802.454 1740.87 802.454 Q1734.51 802.454 1730.78 799.028 Q1727.03 795.579 1727.03 789.745 Q1727.03 784.514 1730.41 781.481 Q1733.77 778.426 1739.55 778.426 M1738.3 782.685 Q1734.81 782.731 1732.72 784.653 Q1730.64 786.551 1730.64 789.699 Q1730.64 793.264 1732.65 795.417 Q1734.67 797.546 1738.33 797.87 L1738.3 782.685 Z" fill="#000000" fill-rule="evenodd" fill-opacity="1" /><path clip-path="url(#clip260)" d="M 0 0 M1731.64 758.935 Q1731.22 759.653 1731.03 760.509 Q1730.83 761.343 1730.83 762.361 Q1730.83 765.972 1733.19 767.917 Q1735.52 769.838 1739.92 769.838 L1753.58 769.838 L1753.58 774.12 L1727.65 774.12 L1727.65 769.838 L1731.68 769.838 Q1729.32 768.495 1728.19 766.343 Q1727.03 764.19 1727.03 761.111 Q1727.03 760.671 1727.1 760.139 Q1727.14 759.607 1727.26 758.958 L1731.64 758.935 Z" fill="#000000" fill-rule="evenodd" fill-opacity="1" /><path clip-path="url(#clip260)" d="M 0 0 M1731.64 740.278 Q1731.22 740.996 1731.03 741.852 Q1730.83 742.685 1730.83 743.704 Q1730.83 747.315 1733.19 749.259 Q1735.52 751.181 1739.92 751.181 L1753.58 751.181 L1753.58 755.463 L1727.65 755.463 L1727.65 751.181 L1731.68 751.181 Q1729.32 749.838 1728.19 747.685 Q1727.03 745.533 1727.03 742.454 Q1727.03 742.014 1727.1 741.482 Q1727.14 740.949 1727.26 740.301 L1731.64 740.278 Z" fill="#000000" fill-rule="evenodd" fill-opacity="1" /><path clip-path="url(#clip260)" d="M 0 0 M1730.64 726.806 Q1730.64 730.232 1733.33 732.222 Q1735.99 734.213 1740.64 734.213 Q1745.29 734.213 1747.98 732.246 Q1750.64 730.255 1750.64 726.806 Q1750.64 723.403 1747.95 721.412 Q1745.27 719.422 1740.64 719.422 Q1736.03 719.422 1733.35 721.412 Q1730.64 723.403 1730.64 726.806 M1727.03 726.806 Q1727.03 721.25 1730.64 718.079 Q1734.25 714.908 1740.64 714.908 Q1747.01 714.908 1750.64 718.079 Q1754.25 721.25 1754.25 726.806 Q1754.25 732.384 1750.64 735.556 Q1747.01 738.704 1740.64 738.704 Q1734.25 738.704 1730.64 735.556 Q1727.03 732.384 1727.03 726.806 Z" fill="#000000" fill-rule="evenodd" fill-opacity="1" /><path clip-path="url(#clip260)" d="M 0 0 M1731.64 695.417 Q1731.22 696.135 1731.03 696.991 Q1730.83 697.824 1730.83 698.843 Q1730.83 702.454 1733.19 704.398 Q1735.52 706.32 1739.92 706.32 L1753.58 706.32 L1753.58 710.602 L1727.65 710.602 L1727.65 706.32 L1731.68 706.32 Q1729.32 704.977 1728.19 702.824 Q1727.03 700.672 1727.03 697.593 Q1727.03 697.153 1727.1 696.621 Q1727.14 696.088 1727.26 695.44 L1731.64 695.417 Z" fill="#000000" fill-rule="evenodd" fill-opacity="1" /><g clip-path="url(#clip260)">
<text style="fill:#000000; fill-opacity:1; font-family:Times New Roman,TimesNewRoman,Times,Baskerville,Georgia,serif; font-size:79px; text-anchor:middle;" transform="rotate(0, 2496.91, 62.4)" x="2496.91" y="62.4">βl/βn=0.005</text>
</g>
<polyline clip-path="url(#clip263)" style="stroke:#009af9; stroke-width:12; stroke-opacity:1; fill:none" points="
  1982.19,1311.03 2001.61,1311.03 2021.04,1311.03 2040.46,1311.03 2059.88,1311.03 2079.31,1311.03 2098.73,1311.03 2118.16,1311.03 2137.58,1311.03 2157,1311.03 
  2176.43,1311.03 2195.85,1311.03 2215.27,1311.03 2234.7,1311.03 2254.12,1311.03 2273.54,1311.03 2292.97,1311.03 2312.39,1311.03 2331.81,1311.03 2351.24,1311.03 
  2370.66,1311.03 2390.08,1311.03 2409.51,1311.03 2428.93,1311.03 2448.35,1311.03 2467.78,1311.03 2487.2,1311.03 2506.63,1311.03 2526.05,1311.03 2545.47,1311.03 
  2564.9,1311.03 2584.32,1311.03 2603.74,1311.03 2623.17,1311.03 2642.59,1311.03 2662.01,1311.03 2681.44,1311.03 2700.86,1311.03 2720.28,1311.03 2739.71,1311.03 
  2759.13,1311.03 2778.55,1311.03 2797.98,1311.03 2817.4,1311.03 2836.82,1311.03 2856.25,1311.03 2875.67,1311.03 2895.1,1311.03 2914.52,1311.03 2933.94,1311.03 
  2953.37,1311.03 2972.79,1311.03 2992.21,1311.03 3011.64,1311.03 
  "/>
</svg>
