<?xml version="1.0" encoding="utf-8"?>
<svg xmlns="http://www.w3.org/2000/svg" xmlns:xlink="http://www.w3.org/1999/xlink" width="600" height="400" viewBox="0 0 2400 1600">
<defs>
  <clipPath id="clip580">
    <rect x="0" y="0" width="2400" height="1600"/>
  </clipPath>
</defs>
<path clip-path="url(#clip580)" d="
M0 1600 L2400 1600 L2400 0 L0 0  Z
  " fill="#ffffff" fill-rule="evenodd" fill-opacity="1"/>
<defs>
  <clipPath id="clip581">
    <rect x="480" y="0" width="1681" height="1600"/>
  </clipPath>
</defs>
<path clip-path="url(#clip580)" d="
M338.896 1325.69 L2242.52 1325.69 L2242.52 225.382 L338.896 225.382  Z
  " fill="#ffffff" fill-rule="evenodd" fill-opacity="1"/>
<defs>
  <clipPath id="clip582">
    <rect x="338" y="225" width="1905" height="1101"/>
  </clipPath>
</defs>
<polyline clip-path="url(#clip582)" style="stroke:#000000; stroke-width:2; stroke-opacity:0.1; fill:none" points="
  358.888,1325.69 358.888,225.382 
  "/>
<polyline clip-path="url(#clip582)" style="stroke:#000000; stroke-width:2; stroke-opacity:0.1; fill:none" points="
  697.731,1325.69 697.731,225.382 
  "/>
<polyline clip-path="url(#clip582)" style="stroke:#000000; stroke-width:2; stroke-opacity:0.1; fill:none" points="
  1036.58,1325.69 1036.58,225.382 
  "/>
<polyline clip-path="url(#clip582)" style="stroke:#000000; stroke-width:2; stroke-opacity:0.1; fill:none" points="
  1375.42,1325.69 1375.42,225.382 
  "/>
<polyline clip-path="url(#clip582)" style="stroke:#000000; stroke-width:2; stroke-opacity:0.1; fill:none" points="
  1714.26,1325.69 1714.26,225.382 
  "/>
<polyline clip-path="url(#clip582)" style="stroke:#000000; stroke-width:2; stroke-opacity:0.1; fill:none" points="
  2053.11,1325.69 2053.11,225.382 
  "/>
<polyline clip-path="url(#clip580)" style="stroke:#000000; stroke-width:4; stroke-opacity:1; fill:none" points="
  338.896,1325.69 2242.52,1325.69 
  "/>
<polyline clip-path="url(#clip580)" style="stroke:#000000; stroke-width:4; stroke-opacity:1; fill:none" points="
  358.888,1325.69 358.888,1312.49 
  "/>
<polyline clip-path="url(#clip580)" style="stroke:#000000; stroke-width:4; stroke-opacity:1; fill:none" points="
  697.731,1325.69 697.731,1312.49 
  "/>
<polyline clip-path="url(#clip580)" style="stroke:#000000; stroke-width:4; stroke-opacity:1; fill:none" points="
  1036.58,1325.69 1036.58,1312.49 
  "/>
<polyline clip-path="url(#clip580)" style="stroke:#000000; stroke-width:4; stroke-opacity:1; fill:none" points="
  1375.42,1325.69 1375.42,1312.49 
  "/>
<polyline clip-path="url(#clip580)" style="stroke:#000000; stroke-width:4; stroke-opacity:1; fill:none" points="
  1714.26,1325.69 1714.26,1312.49 
  "/>
<polyline clip-path="url(#clip580)" style="stroke:#000000; stroke-width:4; stroke-opacity:1; fill:none" points="
  2053.11,1325.69 2053.11,1312.49 
  "/>
<g clip-path="url(#clip580)">
<text style="fill:#000000; fill-opacity:1; font-family:Times New Roman,TimesNewRoman,Times,Baskerville,Georgia,serif; font-size:53px; text-anchor:middle;" transform="rotate(0, 358.888, 1386.89)" x="358.888" y="1386.89">0</text>
</g>
<g clip-path="url(#clip580)">
<text style="fill:#000000; fill-opacity:1; font-family:Times New Roman,TimesNewRoman,Times,Baskerville,Georgia,serif; font-size:53px; text-anchor:middle;" transform="rotate(0, 697.731, 1386.89)" x="697.731" y="1386.89">10</text>
</g>
<g clip-path="url(#clip580)">
<text style="fill:#000000; fill-opacity:1; font-family:Times New Roman,TimesNewRoman,Times,Baskerville,Georgia,serif; font-size:53px; text-anchor:middle;" transform="rotate(0, 1036.58, 1386.89)" x="1036.58" y="1386.89">20</text>
</g>
<g clip-path="url(#clip580)">
<text style="fill:#000000; fill-opacity:1; font-family:Times New Roman,TimesNewRoman,Times,Baskerville,Georgia,serif; font-size:53px; text-anchor:middle;" transform="rotate(0, 1375.42, 1386.89)" x="1375.42" y="1386.89">30</text>
</g>
<g clip-path="url(#clip580)">
<text style="fill:#000000; fill-opacity:1; font-family:Times New Roman,TimesNewRoman,Times,Baskerville,Georgia,serif; font-size:53px; text-anchor:middle;" transform="rotate(0, 1714.26, 1386.89)" x="1714.26" y="1386.89">40</text>
</g>
<g clip-path="url(#clip580)">
<text style="fill:#000000; fill-opacity:1; font-family:Times New Roman,TimesNewRoman,Times,Baskerville,Georgia,serif; font-size:53px; text-anchor:middle;" transform="rotate(0, 2053.11, 1386.89)" x="2053.11" y="1386.89">50</text>
</g>
<path clip-path="url(#clip580)" d="M 0 0 M1085.77 1420.76 L1090.44 1420.76 L1090.44 1451.38 L1107.27 1451.38 L1107.27 1455.32 L1085.77 1455.32 L1085.77 1420.76 Z" fill="#000000" fill-rule="evenodd" fill-opacity="1" /><path clip-path="url(#clip580)" d="M 0 0 M1120.95 1432.38 Q1117.53 1432.38 1115.54 1435.07 Q1113.54 1437.73 1113.54 1442.38 Q1113.54 1447.03 1115.51 1449.72 Q1117.5 1452.38 1120.95 1452.38 Q1124.35 1452.38 1126.35 1449.7 Q1128.34 1447.01 1128.34 1442.38 Q1128.34 1437.77 1126.35 1435.09 Q1124.35 1432.38 1120.95 1432.38 M1120.95 1428.77 Q1126.51 1428.77 1129.68 1432.38 Q1132.85 1435.99 1132.85 1442.38 Q1132.85 1448.75 1129.68 1452.38 Q1126.51 1455.99 1120.95 1455.99 Q1115.37 1455.99 1112.2 1452.38 Q1109.05 1448.75 1109.05 1442.38 Q1109.05 1435.99 1112.2 1432.38 Q1115.37 1428.77 1120.95 1428.77 Z" fill="#000000" fill-rule="evenodd" fill-opacity="1" /><path clip-path="url(#clip580)" d="M 0 0 M1155.97 1430.39 L1155.97 1434.37 Q1154.17 1433.38 1152.34 1432.89 Q1150.53 1432.38 1148.68 1432.38 Q1144.54 1432.38 1142.25 1435.02 Q1139.96 1437.63 1139.96 1442.38 Q1139.96 1447.13 1142.25 1449.76 Q1144.54 1452.38 1148.68 1452.38 Q1150.53 1452.38 1152.34 1451.89 Q1154.17 1451.38 1155.97 1450.39 L1155.97 1454.32 Q1154.19 1455.16 1152.27 1455.57 Q1150.37 1455.99 1148.22 1455.99 Q1142.36 1455.99 1138.91 1452.31 Q1135.47 1448.63 1135.47 1442.38 Q1135.47 1436.04 1138.94 1432.4 Q1142.43 1428.77 1148.5 1428.77 Q1150.47 1428.77 1152.34 1429.19 Q1154.22 1429.58 1155.97 1430.39 Z" fill="#000000" fill-rule="evenodd" fill-opacity="1" /><path clip-path="url(#clip580)" d="M 0 0 M1160.28 1419.3 L1164.56 1419.3 L1164.56 1440.57 L1177.27 1429.39 L1182.71 1429.39 L1168.96 1441.52 L1183.29 1455.32 L1177.73 1455.32 L1164.56 1442.66 L1164.56 1455.32 L1160.28 1455.32 L1160.28 1419.3 Z" fill="#000000" fill-rule="evenodd" fill-opacity="1" /><path clip-path="url(#clip580)" d="M 0 0 M1204.82 1433.33 L1204.82 1419.3 L1209.08 1419.3 L1209.08 1455.32 L1204.82 1455.32 L1204.82 1451.43 Q1203.47 1453.75 1201.41 1454.88 Q1199.38 1455.99 1196.51 1455.99 Q1191.81 1455.99 1188.84 1452.24 Q1185.91 1448.49 1185.91 1442.38 Q1185.91 1436.27 1188.84 1432.52 Q1191.81 1428.77 1196.51 1428.77 Q1199.38 1428.77 1201.41 1429.9 Q1203.47 1431.01 1204.82 1433.33 M1190.3 1442.38 Q1190.3 1447.08 1192.22 1449.76 Q1194.17 1452.43 1197.55 1452.43 Q1200.93 1452.43 1202.87 1449.76 Q1204.82 1447.08 1204.82 1442.38 Q1204.82 1437.68 1202.87 1435.02 Q1200.93 1432.33 1197.55 1432.33 Q1194.17 1432.33 1192.22 1435.02 Q1190.3 1437.68 1190.3 1442.38 Z" fill="#000000" fill-rule="evenodd" fill-opacity="1" /><path clip-path="url(#clip580)" d="M 0 0 M1223.59 1432.38 Q1220.16 1432.38 1218.17 1435.07 Q1216.18 1437.73 1216.18 1442.38 Q1216.18 1447.03 1218.15 1449.72 Q1220.14 1452.38 1223.59 1452.38 Q1226.99 1452.38 1228.98 1449.7 Q1230.97 1447.01 1230.97 1442.38 Q1230.97 1437.77 1228.98 1435.09 Q1226.99 1432.38 1223.59 1432.38 M1223.59 1428.77 Q1229.15 1428.77 1232.32 1432.38 Q1235.49 1435.99 1235.49 1442.38 Q1235.49 1448.75 1232.32 1452.38 Q1229.15 1455.99 1223.59 1455.99 Q1218.01 1455.99 1214.84 1452.38 Q1211.69 1448.75 1211.69 1442.38 Q1211.69 1435.99 1214.84 1432.38 Q1218.01 1428.77 1223.59 1428.77 Z" fill="#000000" fill-rule="evenodd" fill-opacity="1" /><path clip-path="url(#clip580)" d="M 0 0 M1237.48 1429.39 L1241.74 1429.39 L1247.06 1449.63 L1252.36 1429.39 L1257.39 1429.39 L1262.71 1449.63 L1268.01 1429.39 L1272.27 1429.39 L1265.49 1455.32 L1260.46 1455.32 L1254.89 1434.07 L1249.28 1455.32 L1244.26 1455.32 L1237.48 1429.39 Z" fill="#000000" fill-rule="evenodd" fill-opacity="1" /><path clip-path="url(#clip580)" d="M 0 0 M1298.29 1439.67 L1298.29 1455.32 L1294.03 1455.32 L1294.03 1439.81 Q1294.03 1436.13 1292.59 1434.3 Q1291.16 1432.47 1288.29 1432.47 Q1284.84 1432.47 1282.85 1434.67 Q1280.86 1436.87 1280.86 1440.67 L1280.86 1455.32 L1276.58 1455.32 L1276.58 1429.39 L1280.86 1429.39 L1280.86 1433.42 Q1282.39 1431.08 1284.45 1429.93 Q1286.53 1428.77 1289.24 1428.77 Q1293.71 1428.77 1296 1431.55 Q1298.29 1434.3 1298.29 1439.67 Z" fill="#000000" fill-rule="evenodd" fill-opacity="1" /><path clip-path="url(#clip580)" d="M 0 0 M1322.69 1424.6 L1322.69 1451.48 L1328.33 1451.48 Q1335.49 1451.48 1338.8 1448.24 Q1342.13 1445 1342.13 1438.01 Q1342.13 1431.06 1338.8 1427.84 Q1335.49 1424.6 1328.33 1424.6 L1322.69 1424.6 M1318.01 1420.76 L1327.62 1420.76 Q1337.66 1420.76 1342.36 1424.95 Q1347.06 1429.12 1347.06 1438.01 Q1347.06 1446.94 1342.34 1451.13 Q1337.62 1455.32 1327.62 1455.32 L1318.01 1455.32 L1318.01 1420.76 Z" fill="#000000" fill-rule="evenodd" fill-opacity="1" /><path clip-path="url(#clip580)" d="M 0 0 M1351.09 1445.09 L1351.09 1429.39 L1355.35 1429.39 L1355.35 1444.93 Q1355.35 1448.61 1356.78 1450.46 Q1358.22 1452.29 1361.09 1452.29 Q1364.54 1452.29 1366.53 1450.09 Q1368.54 1447.89 1368.54 1444.09 L1368.54 1429.39 L1372.8 1429.39 L1372.8 1455.32 L1368.54 1455.32 L1368.54 1451.34 Q1366.99 1453.7 1364.93 1454.86 Q1362.89 1455.99 1360.19 1455.99 Q1355.72 1455.99 1353.4 1453.21 Q1351.09 1450.44 1351.09 1445.09 M1361.81 1428.77 L1361.81 1428.77 Z" fill="#000000" fill-rule="evenodd" fill-opacity="1" /><path clip-path="url(#clip580)" d="M 0 0 M1392.29 1433.38 Q1391.58 1432.96 1390.72 1432.77 Q1389.89 1432.57 1388.87 1432.57 Q1385.26 1432.57 1383.31 1434.93 Q1381.39 1437.26 1381.39 1441.66 L1381.39 1455.32 L1377.11 1455.32 L1377.11 1429.39 L1381.39 1429.39 L1381.39 1433.42 Q1382.73 1431.06 1384.89 1429.93 Q1387.04 1428.77 1390.12 1428.77 Q1390.56 1428.77 1391.09 1428.84 Q1391.62 1428.88 1392.27 1429 L1392.29 1433.38 Z" fill="#000000" fill-rule="evenodd" fill-opacity="1" /><path clip-path="url(#clip580)" d="M 0 0 M1408.54 1442.29 Q1403.38 1442.29 1401.39 1443.47 Q1399.4 1444.65 1399.4 1447.5 Q1399.4 1449.76 1400.88 1451.11 Q1402.39 1452.43 1404.95 1452.43 Q1408.5 1452.43 1410.63 1449.93 Q1412.78 1447.4 1412.78 1443.24 L1412.78 1442.29 L1408.54 1442.29 M1417.04 1440.53 L1417.04 1455.32 L1412.78 1455.32 L1412.78 1451.38 Q1411.32 1453.75 1409.14 1454.88 Q1406.97 1455.99 1403.82 1455.99 Q1399.84 1455.99 1397.48 1453.77 Q1395.14 1451.52 1395.14 1447.77 Q1395.14 1443.4 1398.06 1441.18 Q1401 1438.95 1406.81 1438.95 L1412.78 1438.95 L1412.78 1438.54 Q1412.78 1435.6 1410.83 1434 Q1408.91 1432.38 1405.42 1432.38 Q1403.2 1432.38 1401.09 1432.91 Q1398.98 1433.45 1397.04 1434.51 L1397.04 1430.57 Q1399.38 1429.67 1401.58 1429.23 Q1403.77 1428.77 1405.86 1428.77 Q1411.48 1428.77 1414.26 1431.69 Q1417.04 1434.6 1417.04 1440.53 Z" fill="#000000" fill-rule="evenodd" fill-opacity="1" /><path clip-path="url(#clip580)" d="M 0 0 M1425.72 1422.03 L1425.72 1429.39 L1434.49 1429.39 L1434.49 1432.7 L1425.72 1432.7 L1425.72 1446.78 Q1425.72 1449.95 1426.58 1450.85 Q1427.45 1451.76 1430.12 1451.76 L1434.49 1451.76 L1434.49 1455.32 L1430.12 1455.32 Q1425.19 1455.32 1423.31 1453.49 Q1421.44 1451.64 1421.44 1446.78 L1421.44 1432.7 L1418.31 1432.7 L1418.31 1429.39 L1421.44 1429.39 L1421.44 1422.03 L1425.72 1422.03 Z" fill="#000000" fill-rule="evenodd" fill-opacity="1" /><path clip-path="url(#clip580)" d="M 0 0 M1438.96 1429.39 L1443.22 1429.39 L1443.22 1455.32 L1438.96 1455.32 L1438.96 1429.39 M1438.96 1419.3 L1443.22 1419.3 L1443.22 1424.7 L1438.96 1424.7 L1438.96 1419.3 Z" fill="#000000" fill-rule="evenodd" fill-opacity="1" /><path clip-path="url(#clip580)" d="M 0 0 M1457.73 1432.38 Q1454.31 1432.38 1452.32 1435.07 Q1450.32 1437.73 1450.32 1442.38 Q1450.32 1447.03 1452.29 1449.72 Q1454.28 1452.38 1457.73 1452.38 Q1461.14 1452.38 1463.13 1449.7 Q1465.12 1447.01 1465.12 1442.38 Q1465.12 1437.77 1463.13 1435.09 Q1461.14 1432.38 1457.73 1432.38 M1457.73 1428.77 Q1463.29 1428.77 1466.46 1432.38 Q1469.63 1435.99 1469.63 1442.38 Q1469.63 1448.75 1466.46 1452.38 Q1463.29 1455.99 1457.73 1455.99 Q1452.15 1455.99 1448.98 1452.38 Q1445.83 1448.75 1445.83 1442.38 Q1445.83 1435.99 1448.98 1432.38 Q1452.15 1428.77 1457.73 1428.77 Z" fill="#000000" fill-rule="evenodd" fill-opacity="1" /><path clip-path="url(#clip580)" d="M 0 0 M1495.65 1439.67 L1495.65 1455.32 L1491.39 1455.32 L1491.39 1439.81 Q1491.39 1436.13 1489.95 1434.3 Q1488.52 1432.47 1485.65 1432.47 Q1482.2 1432.47 1480.21 1434.67 Q1478.22 1436.87 1478.22 1440.67 L1478.22 1455.32 L1473.94 1455.32 L1473.94 1429.39 L1478.22 1429.39 L1478.22 1433.42 Q1479.75 1431.08 1481.81 1429.93 Q1483.89 1428.77 1486.6 1428.77 Q1491.07 1428.77 1493.36 1431.55 Q1495.65 1434.3 1495.65 1439.67 Z" fill="#000000" fill-rule="evenodd" fill-opacity="1" /><polyline clip-path="url(#clip582)" style="stroke:#000000; stroke-width:2; stroke-opacity:0.1; fill:none" points="
  338.896,1231.79 2242.52,1231.79 
  "/>
<polyline clip-path="url(#clip582)" style="stroke:#000000; stroke-width:2; stroke-opacity:0.1; fill:none" points="
  338.896,980.589 2242.52,980.589 
  "/>
<polyline clip-path="url(#clip582)" style="stroke:#000000; stroke-width:2; stroke-opacity:0.1; fill:none" points="
  338.896,729.394 2242.52,729.394 
  "/>
<polyline clip-path="url(#clip582)" style="stroke:#000000; stroke-width:2; stroke-opacity:0.1; fill:none" points="
  338.896,478.198 2242.52,478.198 
  "/>
<polyline clip-path="url(#clip582)" style="stroke:#000000; stroke-width:2; stroke-opacity:0.1; fill:none" points="
  338.896,227.002 2242.52,227.002 
  "/>
<polyline clip-path="url(#clip580)" style="stroke:#000000; stroke-width:4; stroke-opacity:1; fill:none" points="
  338.896,1325.69 338.896,225.382 
  "/>
<polyline clip-path="url(#clip580)" style="stroke:#000000; stroke-width:4; stroke-opacity:1; fill:none" points="
  338.896,1231.79 361.739,1231.79 
  "/>
<polyline clip-path="url(#clip580)" style="stroke:#000000; stroke-width:4; stroke-opacity:1; fill:none" points="
  338.896,980.589 361.739,980.589 
  "/>
<polyline clip-path="url(#clip580)" style="stroke:#000000; stroke-width:4; stroke-opacity:1; fill:none" points="
  338.896,729.394 361.739,729.394 
  "/>
<polyline clip-path="url(#clip580)" style="stroke:#000000; stroke-width:4; stroke-opacity:1; fill:none" points="
  338.896,478.198 361.739,478.198 
  "/>
<polyline clip-path="url(#clip580)" style="stroke:#000000; stroke-width:4; stroke-opacity:1; fill:none" points="
  338.896,227.002 361.739,227.002 
  "/>
<g clip-path="url(#clip580)">
<text style="fill:#000000; fill-opacity:1; font-family:Times New Roman,TimesNewRoman,Times,Baskerville,Georgia,serif; font-size:53px; text-anchor:end;" transform="rotate(0, 302.896, 1249.29)" x="302.896" y="1249.29">0.20</text>
</g>
<g clip-path="url(#clip580)">
<text style="fill:#000000; fill-opacity:1; font-family:Times New Roman,TimesNewRoman,Times,Baskerville,Georgia,serif; font-size:53px; text-anchor:end;" transform="rotate(0, 302.896, 998.089)" x="302.896" y="998.089">0.25</text>
</g>
<g clip-path="url(#clip580)">
<text style="fill:#000000; fill-opacity:1; font-family:Times New Roman,TimesNewRoman,Times,Baskerville,Georgia,serif; font-size:53px; text-anchor:end;" transform="rotate(0, 302.896, 746.894)" x="302.896" y="746.894">0.30</text>
</g>
<g clip-path="url(#clip580)">
<text style="fill:#000000; fill-opacity:1; font-family:Times New Roman,TimesNewRoman,Times,Baskerville,Georgia,serif; font-size:53px; text-anchor:end;" transform="rotate(0, 302.896, 495.698)" x="302.896" y="495.698">0.35</text>
</g>
<g clip-path="url(#clip580)">
<text style="fill:#000000; fill-opacity:1; font-family:Times New Roman,TimesNewRoman,Times,Baskerville,Georgia,serif; font-size:53px; text-anchor:end;" transform="rotate(0, 302.896, 244.502)" x="302.896" y="244.502">0.40</text>
</g>
<path clip-path="url(#clip580)" d="M 0 0 M130.608 959.542 L130.608 954.866 L165.168 954.866 L165.168 959.542 L130.608 959.542 Z" fill="#000000" fill-rule="evenodd" fill-opacity="1" /><path clip-path="url(#clip580)" d="M 0 0 M149.52 928.848 L165.168 928.848 L165.168 933.107 L149.659 933.107 Q145.979 933.107 144.15 934.542 Q142.321 935.977 142.321 938.847 Q142.321 942.297 144.52 944.287 Q146.719 946.278 150.516 946.278 L165.168 946.278 L165.168 950.56 L139.243 950.56 L139.243 946.278 L143.27 946.278 Q140.932 944.75 139.775 942.69 Q138.618 940.607 138.618 937.898 Q138.618 933.431 141.395 931.139 Q144.15 928.848 149.52 928.848 Z" fill="#000000" fill-rule="evenodd" fill-opacity="1" /><path clip-path="url(#clip580)" d="M 0 0 M129.15 911.255 L132.692 911.255 L132.692 915.329 Q132.692 917.621 133.618 918.524 Q134.544 919.403 136.951 919.403 L139.243 919.403 L139.243 912.389 L142.553 912.389 L142.553 919.403 L165.168 919.403 L165.168 923.686 L142.553 923.686 L142.553 927.76 L139.243 927.76 L139.243 923.686 L137.437 923.686 Q133.108 923.686 131.141 921.672 Q129.15 919.658 129.15 915.283 L129.15 911.255 Z" fill="#000000" fill-rule="evenodd" fill-opacity="1" /><path clip-path="url(#clip580)" d="M 0 0 M151.141 884.612 L153.224 884.612 L153.224 904.195 Q157.622 903.917 159.937 901.556 Q162.229 899.172 162.229 894.936 Q162.229 892.482 161.627 890.19 Q161.025 887.876 159.821 885.607 L163.849 885.607 Q164.821 887.899 165.33 890.306 Q165.84 892.713 165.84 895.19 Q165.84 901.394 162.229 905.028 Q158.617 908.639 152.46 908.639 Q146.094 908.639 142.368 905.213 Q138.618 901.764 138.618 895.931 Q138.618 890.7 141.997 887.667 Q145.354 884.612 151.141 884.612 M149.891 888.871 Q146.395 888.917 144.312 890.838 Q142.229 892.737 142.229 895.885 Q142.229 899.45 144.243 901.602 Q146.256 903.732 149.914 904.056 L149.891 888.871 Z" fill="#000000" fill-rule="evenodd" fill-opacity="1" /><path clip-path="url(#clip580)" d="M 0 0 M140.238 861.487 L144.219 861.487 Q143.224 863.292 142.738 865.121 Q142.229 866.927 142.229 868.778 Q142.229 872.922 144.868 875.214 Q147.483 877.505 152.229 877.505 Q156.974 877.505 159.613 875.214 Q162.229 872.922 162.229 868.778 Q162.229 866.927 161.742 865.121 Q161.233 863.292 160.238 861.487 L164.173 861.487 Q165.006 863.269 165.423 865.19 Q165.84 867.089 165.84 869.241 Q165.84 875.098 162.159 878.547 Q158.479 881.996 152.229 881.996 Q145.886 881.996 142.252 878.524 Q138.618 875.028 138.618 868.964 Q138.618 866.996 139.034 865.121 Q139.428 863.246 140.238 861.487 Z" fill="#000000" fill-rule="evenodd" fill-opacity="1" /><path clip-path="url(#clip580)" d="M 0 0 M131.882 852.806 L139.243 852.806 L139.243 844.033 L142.553 844.033 L142.553 852.806 L156.627 852.806 Q159.798 852.806 160.701 851.95 Q161.604 851.07 161.604 848.408 L161.604 844.033 L165.168 844.033 L165.168 848.408 Q165.168 853.339 163.34 855.214 Q161.488 857.089 156.627 857.089 L142.553 857.089 L142.553 860.214 L139.243 860.214 L139.243 857.089 L131.882 857.089 L131.882 852.806 Z" fill="#000000" fill-rule="evenodd" fill-opacity="1" /><path clip-path="url(#clip580)" d="M 0 0 M151.141 817.39 L153.224 817.39 L153.224 836.973 Q157.622 836.695 159.937 834.334 Q162.229 831.95 162.229 827.714 Q162.229 825.26 161.627 822.968 Q161.025 820.654 159.821 818.385 L163.849 818.385 Q164.821 820.677 165.33 823.084 Q165.84 825.492 165.84 827.968 Q165.84 834.172 162.229 837.806 Q158.617 841.417 152.46 841.417 Q146.094 841.417 142.368 837.992 Q138.618 834.543 138.618 828.709 Q138.618 823.478 141.997 820.445 Q145.354 817.39 151.141 817.39 M149.891 821.649 Q146.395 821.695 144.312 823.617 Q142.229 825.515 142.229 828.663 Q142.229 832.228 144.243 834.38 Q146.256 836.51 149.914 836.834 L149.891 821.649 Z" fill="#000000" fill-rule="evenodd" fill-opacity="1" /><path clip-path="url(#clip580)" d="M 0 0 M143.178 795.862 L129.15 795.862 L129.15 791.603 L165.168 791.603 L165.168 795.862 L161.28 795.862 Q163.594 797.205 164.729 799.265 Q165.84 801.302 165.84 804.172 Q165.84 808.871 162.09 811.834 Q158.34 814.774 152.229 814.774 Q146.118 814.774 142.368 811.834 Q138.618 808.871 138.618 804.172 Q138.618 801.302 139.752 799.265 Q140.863 797.205 143.178 795.862 M152.229 810.376 Q156.928 810.376 159.613 808.455 Q162.275 806.51 162.275 803.131 Q162.275 799.751 159.613 797.807 Q156.928 795.862 152.229 795.862 Q147.53 795.862 144.868 797.807 Q142.182 799.751 142.182 803.131 Q142.182 806.51 144.868 808.455 Q147.53 810.376 152.229 810.376 Z" fill="#000000" fill-rule="evenodd" fill-opacity="1" /><path clip-path="url(#clip580)" d="M 0 0 M134.451 767.205 L147.437 767.205 L147.437 761.325 Q147.437 758.061 145.747 756.279 Q144.057 754.497 140.932 754.497 Q137.831 754.497 136.141 756.279 Q134.451 758.061 134.451 761.325 L134.451 767.205 M130.608 771.881 L130.608 761.325 Q130.608 755.515 133.247 752.552 Q135.863 749.566 140.932 749.566 Q146.048 749.566 148.664 752.552 Q151.28 755.515 151.28 761.325 L151.28 767.205 L165.168 767.205 L165.168 771.881 L130.608 771.881 Z" fill="#000000" fill-rule="evenodd" fill-opacity="1" /><path clip-path="url(#clip580)" d="M 0 0 M151.141 724.613 L153.224 724.613 L153.224 744.196 Q157.622 743.918 159.937 741.557 Q162.229 739.173 162.229 734.937 Q162.229 732.483 161.627 730.191 Q161.025 727.876 159.821 725.608 L163.849 725.608 Q164.821 727.9 165.33 730.307 Q165.84 732.714 165.84 735.191 Q165.84 741.395 162.229 745.029 Q158.617 748.64 152.46 748.64 Q146.094 748.64 142.368 745.214 Q138.618 741.765 138.618 735.932 Q138.618 730.7 141.997 727.668 Q145.354 724.613 151.141 724.613 M149.891 728.872 Q146.395 728.918 144.312 730.839 Q142.229 732.737 142.229 735.886 Q142.229 739.45 144.243 741.603 Q146.256 743.733 149.914 744.057 L149.891 728.872 Z" fill="#000000" fill-rule="evenodd" fill-opacity="1" /><path clip-path="url(#clip580)" d="M 0 0 M152.136 708.363 Q152.136 713.525 153.317 715.515 Q154.497 717.506 157.344 717.506 Q159.613 717.506 160.955 716.025 Q162.275 714.52 162.275 711.951 Q162.275 708.409 159.775 706.279 Q157.252 704.127 153.085 704.127 L152.136 704.127 L152.136 708.363 M150.377 699.867 L165.168 699.867 L165.168 704.127 L161.233 704.127 Q163.594 705.585 164.729 707.761 Q165.84 709.937 165.84 713.085 Q165.84 717.066 163.617 719.427 Q161.372 721.765 157.622 721.765 Q153.247 721.765 151.025 718.849 Q148.803 715.909 148.803 710.099 L148.803 704.127 L148.386 704.127 Q145.446 704.127 143.849 706.071 Q142.229 707.992 142.229 711.488 Q142.229 713.71 142.761 715.816 Q143.293 717.923 144.358 719.867 L140.423 719.867 Q139.52 717.529 139.081 715.33 Q138.618 713.131 138.618 711.048 Q138.618 705.423 141.534 702.645 Q144.451 699.867 150.377 699.867 Z" fill="#000000" fill-rule="evenodd" fill-opacity="1" /><path clip-path="url(#clip580)" d="M 0 0 M129.15 695.562 L129.15 691.279 L150.423 691.279 L139.243 678.571 L139.243 673.131 L151.372 686.881 L165.168 672.553 L165.168 678.108 L152.506 691.279 L165.168 691.279 L165.168 695.562 L129.15 695.562 Z" fill="#000000" fill-rule="evenodd" fill-opacity="1" /><path clip-path="url(#clip580)" d="M 0 0 M129.196 642.784 Q134.52 645.886 139.729 647.391 Q144.937 648.895 150.284 648.895 Q155.631 648.895 160.886 647.391 Q166.117 645.863 171.418 642.784 L171.418 646.488 Q165.979 649.96 160.724 651.696 Q155.469 653.409 150.284 653.409 Q145.122 653.409 139.891 651.696 Q134.659 649.983 129.196 646.488 L129.196 642.784 Z" fill="#000000" fill-rule="evenodd" fill-opacity="1" /><path clip-path="url(#clip580)" d="M 0 0 M130.608 638.132 L130.608 633.456 L165.168 633.456 L165.168 638.132 L130.608 638.132 Z" fill="#000000" fill-rule="evenodd" fill-opacity="1" /><path clip-path="url(#clip580)" d="M 0 0 M161.28 624.868 L175.029 624.868 L175.029 629.15 L139.243 629.15 L139.243 624.868 L143.178 624.868 Q140.863 623.525 139.752 621.488 Q138.618 619.428 138.618 616.581 Q138.618 611.859 142.368 608.919 Q146.118 605.956 152.229 605.956 Q158.34 605.956 162.09 608.919 Q165.84 611.859 165.84 616.581 Q165.84 619.428 164.729 621.488 Q163.594 623.525 161.28 624.868 M152.229 610.377 Q147.53 610.377 144.868 612.321 Q142.182 614.243 142.182 617.622 Q142.182 621.002 144.868 622.946 Q147.53 624.868 152.229 624.868 Q156.928 624.868 159.613 622.946 Q162.275 621.002 162.275 617.622 Q162.275 614.243 159.613 612.321 Q156.928 610.377 152.229 610.377 Z" fill="#000000" fill-rule="evenodd" fill-opacity="1" /><path clip-path="url(#clip580)" d="M 0 0 M129.196 602.159 L129.196 598.456 Q134.659 594.984 139.891 593.271 Q145.122 591.535 150.284 591.535 Q155.469 591.535 160.724 593.271 Q165.979 594.984 171.418 598.456 L171.418 602.159 Q166.117 599.081 160.886 597.576 Q155.631 596.048 150.284 596.048 Q144.937 596.048 139.729 597.576 Q134.52 599.081 129.196 602.159 Z" fill="#000000" fill-rule="evenodd" fill-opacity="1" /><g clip-path="url(#clip580)">
<text style="fill:#000000; fill-opacity:1; font-family:Times New Roman,TimesNewRoman,Times,Baskerville,Georgia,serif; font-size:79px; text-anchor:middle;" transform="rotate(0, 1290.71, 62.4)" x="1290.71" y="62.4">SIR</text>
</g>
<polyline clip-path="url(#clip582)" style="stroke:#009af9; stroke-width:12; stroke-opacity:1; fill:none" points="
  392.772,256.523 426.656,300.185 460.541,340.569 494.425,378.467 528.31,414.391 562.194,448.818 596.078,481.831 629.963,513.985 663.847,545.268 697.731,575.797 
  731.616,605.611 765.5,635.088 799.384,664.214 833.269,692.667 867.153,721.005 901.038,749.097 934.922,776.758 968.806,804.314 1002.69,831.545 1036.58,858.487 
  1070.46,885.172 1104.34,911.632 1138.23,932.059 1172.11,938.655 1206,945.193 1239.88,951.085 1273.77,956.346 1307.65,960.99 1341.53,966.177 1375.42,970.185 
  1409.3,974.168 1443.19,978.127 1477.07,981.503 1510.96,984.86 1544.84,988.201 1578.72,990.971 1612.61,993.729 1646.49,996.476 1680.38,999.21 1714.26,1001.39 
  1748.15,1003.56 1782.03,1005.72 1815.92,1007.34 1849.8,1009.49 1883.68,1011.1 1917.57,1012.7 1951.45,1014.3 1985.34,1015.36 2019.22,1016.96 2053.11,1018.01 
  2086.99,1019.6 2120.87,1020.65 2154.76,1021.7 2188.64,1022.75 
  "/>
<polyline clip-path="url(#clip582)" style="stroke:#e26f46; stroke-width:12; stroke-opacity:1; fill:none" stroke-dasharray="48, 30" points="
  392.772,257.535 426.656,303.745 460.541,347.493 494.425,389.073 528.31,429.071 562.194,467.078 596.078,503.642 629.963,539.208 663.847,573.786 697.731,606.066 
  731.616,638.462 765.5,669.265 799.384,697.108 833.269,725.604 867.153,753.593 901.038,778.662 934.922,803.963 968.806,828.657 1002.69,851.295 1036.58,873.147 
  1070.46,894.282 1104.34,914.766 1138.23,934.665 1172.11,954.039 1206,972.603 1239.88,990.738 1273.77,1006.8 1307.65,1022.17 1341.53,1038.48 1375.42,1054.93 
  1409.3,1068.54 1443.19,1081.94 1477.07,1097.02 1510.96,1109.62 1544.84,1121.28 1578.72,1135.24 1612.61,1145.97 1646.49,1157.27 1680.38,1169.46 1714.26,1178.44 
  1748.15,1190.11 1782.03,1199.18 1815.92,1209.2 1849.8,1218.3 1883.68,1226.79 1917.57,1235.91 1951.45,1243.53 1985.34,1252.12 2019.22,1259.55 2053.11,1267.3 
  2086.99,1274.46 2120.87,1281.51 2154.76,1288.87 2188.64,1294.55 
  "/>
<path clip-path="url(#clip580)" d="
M1589.06 443.499 L2179.07 443.499 L2179.07 262.059 L1589.06 262.059  Z
  " fill="#ffffff" fill-rule="evenodd" fill-opacity="1"/>
<polyline clip-path="url(#clip580)" style="stroke:#000000; stroke-width:4; stroke-opacity:1; fill:none" points="
  1589.06,443.499 2179.07,443.499 2179.07,262.059 1589.06,262.059 1589.06,443.499 
  "/>
<polyline clip-path="url(#clip580)" style="stroke:#009af9; stroke-width:4; stroke-opacity:1; fill:none" points="
  1610.21,322.539 1737.12,322.539 
  "/>
<g clip-path="url(#clip580)">
<text style="fill:#000000; fill-opacity:1; font-family:Times New Roman,TimesNewRoman,Times,Baskerville,Georgia,serif; font-size:53px; text-anchor:start;" transform="rotate(0, 1758.27, 340.039)" x="1758.27" y="340.039">approximation</text>
</g>
<polyline clip-path="url(#clip580)" style="stroke:#e26f46; stroke-width:4; stroke-opacity:1; fill:none" stroke-dasharray="16, 10" points="
  1610.21,383.019 1737.12,383.019 
  "/>
<g clip-path="url(#clip580)">
<text style="fill:#000000; fill-opacity:1; font-family:Times New Roman,TimesNewRoman,Times,Baskerville,Georgia,serif; font-size:53px; text-anchor:start;" transform="rotate(0, 1758.27, 400.519)" x="1758.27" y="400.519">optimal lockdown</text>
</g>
</svg>
