<?xml version="1.0" encoding="utf-8"?>
<svg xmlns="http://www.w3.org/2000/svg" xmlns:xlink="http://www.w3.org/1999/xlink" width="600" height="400" viewBox="0 0 2400 1600">
<defs>
  <clipPath id="clip870">
    <rect x="0" y="0" width="2400" height="1600"/>
  </clipPath>
</defs>
<path clip-path="url(#clip870)" d="
M0 1600 L2400 1600 L2400 0 L0 0  Z
  " fill="#ffffff" fill-rule="evenodd" fill-opacity="1"/>
<defs>
  <clipPath id="clip871">
    <rect x="480" y="0" width="1681" height="1600"/>
  </clipPath>
</defs>
<path clip-path="url(#clip870)" d="
M364.999 1325.69 L2242.52 1325.69 L2242.52 225.382 L364.999 225.382  Z
  " fill="#ffffff" fill-rule="evenodd" fill-opacity="1"/>
<defs>
  <clipPath id="clip872">
    <rect x="364" y="225" width="1879" height="1101"/>
  </clipPath>
</defs>
<polyline clip-path="url(#clip872)" style="stroke:#000000; stroke-width:2; stroke-opacity:0.1; fill:none" points="
  384.716,1325.69 384.716,225.382 
  "/>
<polyline clip-path="url(#clip872)" style="stroke:#000000; stroke-width:2; stroke-opacity:0.1; fill:none" points="
  718.914,1325.69 718.914,225.382 
  "/>
<polyline clip-path="url(#clip872)" style="stroke:#000000; stroke-width:2; stroke-opacity:0.1; fill:none" points="
  1053.11,1325.69 1053.11,225.382 
  "/>
<polyline clip-path="url(#clip872)" style="stroke:#000000; stroke-width:2; stroke-opacity:0.1; fill:none" points="
  1387.31,1325.69 1387.31,225.382 
  "/>
<polyline clip-path="url(#clip872)" style="stroke:#000000; stroke-width:2; stroke-opacity:0.1; fill:none" points="
  1721.51,1325.69 1721.51,225.382 
  "/>
<polyline clip-path="url(#clip872)" style="stroke:#000000; stroke-width:2; stroke-opacity:0.1; fill:none" points="
  2055.7,1325.69 2055.7,225.382 
  "/>
<polyline clip-path="url(#clip870)" style="stroke:#000000; stroke-width:4; stroke-opacity:1; fill:none" points="
  364.999,1325.69 2242.52,1325.69 
  "/>
<polyline clip-path="url(#clip870)" style="stroke:#000000; stroke-width:4; stroke-opacity:1; fill:none" points="
  384.716,1325.69 384.716,1312.49 
  "/>
<polyline clip-path="url(#clip870)" style="stroke:#000000; stroke-width:4; stroke-opacity:1; fill:none" points="
  718.914,1325.69 718.914,1312.49 
  "/>
<polyline clip-path="url(#clip870)" style="stroke:#000000; stroke-width:4; stroke-opacity:1; fill:none" points="
  1053.11,1325.69 1053.11,1312.49 
  "/>
<polyline clip-path="url(#clip870)" style="stroke:#000000; stroke-width:4; stroke-opacity:1; fill:none" points="
  1387.31,1325.69 1387.31,1312.49 
  "/>
<polyline clip-path="url(#clip870)" style="stroke:#000000; stroke-width:4; stroke-opacity:1; fill:none" points="
  1721.51,1325.69 1721.51,1312.49 
  "/>
<polyline clip-path="url(#clip870)" style="stroke:#000000; stroke-width:4; stroke-opacity:1; fill:none" points="
  2055.7,1325.69 2055.7,1312.49 
  "/>
<g clip-path="url(#clip870)">
<text style="fill:#000000; fill-opacity:1; font-family:Times New Roman,TimesNewRoman,Times,Baskerville,Georgia,serif; font-size:53px; text-anchor:middle;" transform="rotate(0, 384.716, 1386.89)" x="384.716" y="1386.89">0</text>
</g>
<g clip-path="url(#clip870)">
<text style="fill:#000000; fill-opacity:1; font-family:Times New Roman,TimesNewRoman,Times,Baskerville,Georgia,serif; font-size:53px; text-anchor:middle;" transform="rotate(0, 718.914, 1386.89)" x="718.914" y="1386.89">10</text>
</g>
<g clip-path="url(#clip870)">
<text style="fill:#000000; fill-opacity:1; font-family:Times New Roman,TimesNewRoman,Times,Baskerville,Georgia,serif; font-size:53px; text-anchor:middle;" transform="rotate(0, 1053.11, 1386.89)" x="1053.11" y="1386.89">20</text>
</g>
<g clip-path="url(#clip870)">
<text style="fill:#000000; fill-opacity:1; font-family:Times New Roman,TimesNewRoman,Times,Baskerville,Georgia,serif; font-size:53px; text-anchor:middle;" transform="rotate(0, 1387.31, 1386.89)" x="1387.31" y="1386.89">30</text>
</g>
<g clip-path="url(#clip870)">
<text style="fill:#000000; fill-opacity:1; font-family:Times New Roman,TimesNewRoman,Times,Baskerville,Georgia,serif; font-size:53px; text-anchor:middle;" transform="rotate(0, 1721.51, 1386.89)" x="1721.51" y="1386.89">40</text>
</g>
<g clip-path="url(#clip870)">
<text style="fill:#000000; fill-opacity:1; font-family:Times New Roman,TimesNewRoman,Times,Baskerville,Georgia,serif; font-size:53px; text-anchor:middle;" transform="rotate(0, 2055.7, 1386.89)" x="2055.7" y="1386.89">50</text>
</g>
<path clip-path="url(#clip870)" d="M 0 0 M1098.82 1420.76 L1103.49 1420.76 L1103.49 1451.38 L1120.32 1451.38 L1120.32 1455.32 L1098.82 1455.32 L1098.82 1420.76 Z" fill="#000000" fill-rule="evenodd" fill-opacity="1" /><path clip-path="url(#clip870)" d="M 0 0 M1134 1432.38 Q1130.58 1432.38 1128.59 1435.07 Q1126.6 1437.73 1126.6 1442.38 Q1126.6 1447.03 1128.56 1449.72 Q1130.55 1452.38 1134 1452.38 Q1137.41 1452.38 1139.4 1449.7 Q1141.39 1447.01 1141.39 1442.38 Q1141.39 1437.77 1139.4 1435.09 Q1137.41 1432.38 1134 1432.38 M1134 1428.77 Q1139.56 1428.77 1142.73 1432.38 Q1145.9 1435.99 1145.9 1442.38 Q1145.9 1448.75 1142.73 1452.38 Q1139.56 1455.99 1134 1455.99 Q1128.42 1455.99 1125.25 1452.38 Q1122.11 1448.75 1122.11 1442.38 Q1122.11 1435.99 1125.25 1432.38 Q1128.42 1428.77 1134 1428.77 Z" fill="#000000" fill-rule="evenodd" fill-opacity="1" /><path clip-path="url(#clip870)" d="M 0 0 M1169.03 1430.39 L1169.03 1434.37 Q1167.22 1433.38 1165.39 1432.89 Q1163.59 1432.38 1161.73 1432.38 Q1157.59 1432.38 1155.3 1435.02 Q1153.01 1437.63 1153.01 1442.38 Q1153.01 1447.13 1155.3 1449.76 Q1157.59 1452.38 1161.73 1452.38 Q1163.59 1452.38 1165.39 1451.89 Q1167.22 1451.38 1169.03 1450.39 L1169.03 1454.32 Q1167.24 1455.16 1165.32 1455.57 Q1163.42 1455.99 1161.27 1455.99 Q1155.42 1455.99 1151.97 1452.31 Q1148.52 1448.63 1148.52 1442.38 Q1148.52 1436.04 1151.99 1432.4 Q1155.48 1428.77 1161.55 1428.77 Q1163.52 1428.77 1165.39 1429.19 Q1167.27 1429.58 1169.03 1430.39 Z" fill="#000000" fill-rule="evenodd" fill-opacity="1" /><path clip-path="url(#clip870)" d="M 0 0 M1173.33 1419.3 L1177.61 1419.3 L1177.61 1440.57 L1190.32 1429.39 L1195.76 1429.39 L1182.01 1441.52 L1196.34 1455.32 L1190.79 1455.32 L1177.61 1442.66 L1177.61 1455.32 L1173.33 1455.32 L1173.33 1419.3 Z" fill="#000000" fill-rule="evenodd" fill-opacity="1" /><path clip-path="url(#clip870)" d="M 0 0 M1217.87 1433.33 L1217.87 1419.3 L1222.13 1419.3 L1222.13 1455.32 L1217.87 1455.32 L1217.87 1451.43 Q1216.53 1453.75 1214.47 1454.88 Q1212.43 1455.99 1209.56 1455.99 Q1204.86 1455.99 1201.9 1452.24 Q1198.96 1448.49 1198.96 1442.38 Q1198.96 1436.27 1201.9 1432.52 Q1204.86 1428.77 1209.56 1428.77 Q1212.43 1428.77 1214.47 1429.9 Q1216.53 1431.01 1217.87 1433.33 M1203.35 1442.38 Q1203.35 1447.08 1205.28 1449.76 Q1207.22 1452.43 1210.6 1452.43 Q1213.98 1452.43 1215.92 1449.76 Q1217.87 1447.08 1217.87 1442.38 Q1217.87 1437.68 1215.92 1435.02 Q1213.98 1432.33 1210.6 1432.33 Q1207.22 1432.33 1205.28 1435.02 Q1203.35 1437.68 1203.35 1442.38 Z" fill="#000000" fill-rule="evenodd" fill-opacity="1" /><path clip-path="url(#clip870)" d="M 0 0 M1236.64 1432.38 Q1233.22 1432.38 1231.22 1435.07 Q1229.23 1437.73 1229.23 1442.38 Q1229.23 1447.03 1231.2 1449.72 Q1233.19 1452.38 1236.64 1452.38 Q1240.04 1452.38 1242.03 1449.7 Q1244.03 1447.01 1244.03 1442.38 Q1244.03 1437.77 1242.03 1435.09 Q1240.04 1432.38 1236.64 1432.38 M1236.64 1428.77 Q1242.2 1428.77 1245.37 1432.38 Q1248.54 1435.99 1248.54 1442.38 Q1248.54 1448.75 1245.37 1452.38 Q1242.2 1455.99 1236.64 1455.99 Q1231.06 1455.99 1227.89 1452.38 Q1224.74 1448.75 1224.74 1442.38 Q1224.74 1435.99 1227.89 1432.38 Q1231.06 1428.77 1236.64 1428.77 Z" fill="#000000" fill-rule="evenodd" fill-opacity="1" /><path clip-path="url(#clip870)" d="M 0 0 M1250.53 1429.39 L1254.79 1429.39 L1260.11 1449.63 L1265.41 1429.39 L1270.44 1429.39 L1275.76 1449.63 L1281.06 1429.39 L1285.32 1429.39 L1278.54 1455.32 L1273.52 1455.32 L1267.94 1434.07 L1262.34 1455.32 L1257.31 1455.32 L1250.53 1429.39 Z" fill="#000000" fill-rule="evenodd" fill-opacity="1" /><path clip-path="url(#clip870)" d="M 0 0 M1311.34 1439.67 L1311.34 1455.32 L1307.08 1455.32 L1307.08 1439.81 Q1307.08 1436.13 1305.65 1434.3 Q1304.21 1432.47 1301.34 1432.47 Q1297.89 1432.47 1295.9 1434.67 Q1293.91 1436.87 1293.91 1440.67 L1293.91 1455.32 L1289.63 1455.32 L1289.63 1429.39 L1293.91 1429.39 L1293.91 1433.42 Q1295.44 1431.08 1297.5 1429.93 Q1299.58 1428.77 1302.29 1428.77 Q1306.76 1428.77 1309.05 1431.55 Q1311.34 1434.3 1311.34 1439.67 Z" fill="#000000" fill-rule="evenodd" fill-opacity="1" /><path clip-path="url(#clip870)" d="M 0 0 M1335.74 1424.6 L1335.74 1451.48 L1341.39 1451.48 Q1348.54 1451.48 1351.85 1448.24 Q1355.18 1445 1355.18 1438.01 Q1355.18 1431.06 1351.85 1427.84 Q1348.54 1424.6 1341.39 1424.6 L1335.74 1424.6 M1331.06 1420.76 L1340.67 1420.76 Q1350.71 1420.76 1355.41 1424.95 Q1360.11 1429.12 1360.11 1438.01 Q1360.11 1446.94 1355.39 1451.13 Q1350.67 1455.32 1340.67 1455.32 L1331.06 1455.32 L1331.06 1420.76 Z" fill="#000000" fill-rule="evenodd" fill-opacity="1" /><path clip-path="url(#clip870)" d="M 0 0 M1364.14 1445.09 L1364.14 1429.39 L1368.4 1429.39 L1368.4 1444.93 Q1368.4 1448.61 1369.84 1450.46 Q1371.27 1452.29 1374.14 1452.29 Q1377.59 1452.29 1379.58 1450.09 Q1381.59 1447.89 1381.59 1444.09 L1381.59 1429.39 L1385.85 1429.39 L1385.85 1455.32 L1381.59 1455.32 L1381.59 1451.34 Q1380.04 1453.7 1377.98 1454.86 Q1375.95 1455.99 1373.24 1455.99 Q1368.77 1455.99 1366.46 1453.21 Q1364.14 1450.44 1364.14 1445.09 M1374.86 1428.77 L1374.86 1428.77 Z" fill="#000000" fill-rule="evenodd" fill-opacity="1" /><path clip-path="url(#clip870)" d="M 0 0 M1405.34 1433.38 Q1404.63 1432.96 1403.77 1432.77 Q1402.94 1432.57 1401.92 1432.57 Q1398.31 1432.57 1396.36 1434.93 Q1394.44 1437.26 1394.44 1441.66 L1394.44 1455.32 L1390.16 1455.32 L1390.16 1429.39 L1394.44 1429.39 L1394.44 1433.42 Q1395.78 1431.06 1397.94 1429.93 Q1400.09 1428.77 1403.17 1428.77 Q1403.61 1428.77 1404.14 1428.84 Q1404.67 1428.88 1405.32 1429 L1405.34 1433.38 Z" fill="#000000" fill-rule="evenodd" fill-opacity="1" /><path clip-path="url(#clip870)" d="M 0 0 M1421.59 1442.29 Q1416.43 1442.29 1414.44 1443.47 Q1412.45 1444.65 1412.45 1447.5 Q1412.45 1449.76 1413.93 1451.11 Q1415.44 1452.43 1418.01 1452.43 Q1421.55 1452.43 1423.68 1449.93 Q1425.83 1447.4 1425.83 1443.24 L1425.83 1442.29 L1421.59 1442.29 M1430.09 1440.53 L1430.09 1455.32 L1425.83 1455.32 L1425.83 1451.38 Q1424.37 1453.75 1422.2 1454.88 Q1420.02 1455.99 1416.87 1455.99 Q1412.89 1455.99 1410.53 1453.77 Q1408.19 1451.52 1408.19 1447.77 Q1408.19 1443.4 1411.11 1441.18 Q1414.05 1438.95 1419.86 1438.95 L1425.83 1438.95 L1425.83 1438.54 Q1425.83 1435.6 1423.89 1434 Q1421.96 1432.38 1418.47 1432.38 Q1416.25 1432.38 1414.14 1432.91 Q1412.03 1433.45 1410.09 1434.51 L1410.09 1430.57 Q1412.43 1429.67 1414.63 1429.23 Q1416.83 1428.77 1418.91 1428.77 Q1424.53 1428.77 1427.31 1431.69 Q1430.09 1434.6 1430.09 1440.53 Z" fill="#000000" fill-rule="evenodd" fill-opacity="1" /><path clip-path="url(#clip870)" d="M 0 0 M1438.77 1422.03 L1438.77 1429.39 L1447.54 1429.39 L1447.54 1432.7 L1438.77 1432.7 L1438.77 1446.78 Q1438.77 1449.95 1439.63 1450.85 Q1440.51 1451.76 1443.17 1451.76 L1447.54 1451.76 L1447.54 1455.32 L1443.17 1455.32 Q1438.24 1455.32 1436.36 1453.49 Q1434.49 1451.64 1434.49 1446.78 L1434.49 1432.7 L1431.36 1432.7 L1431.36 1429.39 L1434.49 1429.39 L1434.49 1422.03 L1438.77 1422.03 Z" fill="#000000" fill-rule="evenodd" fill-opacity="1" /><path clip-path="url(#clip870)" d="M 0 0 M1452.01 1429.39 L1456.27 1429.39 L1456.27 1455.32 L1452.01 1455.32 L1452.01 1429.39 M1452.01 1419.3 L1456.27 1419.3 L1456.27 1424.7 L1452.01 1424.7 L1452.01 1419.3 Z" fill="#000000" fill-rule="evenodd" fill-opacity="1" /><path clip-path="url(#clip870)" d="M 0 0 M1470.78 1432.38 Q1467.36 1432.38 1465.37 1435.07 Q1463.38 1437.73 1463.38 1442.38 Q1463.38 1447.03 1465.34 1449.72 Q1467.33 1452.38 1470.78 1452.38 Q1474.19 1452.38 1476.18 1449.7 Q1478.17 1447.01 1478.17 1442.38 Q1478.17 1437.77 1476.18 1435.09 Q1474.19 1432.38 1470.78 1432.38 M1470.78 1428.77 Q1476.34 1428.77 1479.51 1432.38 Q1482.68 1435.99 1482.68 1442.38 Q1482.68 1448.75 1479.51 1452.38 Q1476.34 1455.99 1470.78 1455.99 Q1465.21 1455.99 1462.03 1452.38 Q1458.89 1448.75 1458.89 1442.38 Q1458.89 1435.99 1462.03 1432.38 Q1465.21 1428.77 1470.78 1428.77 Z" fill="#000000" fill-rule="evenodd" fill-opacity="1" /><path clip-path="url(#clip870)" d="M 0 0 M1508.7 1439.67 L1508.7 1455.32 L1504.44 1455.32 L1504.44 1439.81 Q1504.44 1436.13 1503.01 1434.3 Q1501.57 1432.47 1498.7 1432.47 Q1495.25 1432.47 1493.26 1434.67 Q1491.27 1436.87 1491.27 1440.67 L1491.27 1455.32 L1486.99 1455.32 L1486.99 1429.39 L1491.27 1429.39 L1491.27 1433.42 Q1492.8 1431.08 1494.86 1429.93 Q1496.94 1428.77 1499.65 1428.77 Q1504.12 1428.77 1506.41 1431.55 Q1508.7 1434.3 1508.7 1439.67 Z" fill="#000000" fill-rule="evenodd" fill-opacity="1" /><polyline clip-path="url(#clip872)" style="stroke:#000000; stroke-width:2; stroke-opacity:0.1; fill:none" points="
  364.999,1201.39 2242.52,1201.39 
  "/>
<polyline clip-path="url(#clip872)" style="stroke:#000000; stroke-width:2; stroke-opacity:0.1; fill:none" points="
  364.999,1057.22 2242.52,1057.22 
  "/>
<polyline clip-path="url(#clip872)" style="stroke:#000000; stroke-width:2; stroke-opacity:0.1; fill:none" points="
  364.999,913.052 2242.52,913.052 
  "/>
<polyline clip-path="url(#clip872)" style="stroke:#000000; stroke-width:2; stroke-opacity:0.1; fill:none" points="
  364.999,768.884 2242.52,768.884 
  "/>
<polyline clip-path="url(#clip872)" style="stroke:#000000; stroke-width:2; stroke-opacity:0.1; fill:none" points="
  364.999,624.717 2242.52,624.717 
  "/>
<polyline clip-path="url(#clip872)" style="stroke:#000000; stroke-width:2; stroke-opacity:0.1; fill:none" points="
  364.999,480.549 2242.52,480.549 
  "/>
<polyline clip-path="url(#clip872)" style="stroke:#000000; stroke-width:2; stroke-opacity:0.1; fill:none" points="
  364.999,336.382 2242.52,336.382 
  "/>
<polyline clip-path="url(#clip870)" style="stroke:#000000; stroke-width:4; stroke-opacity:1; fill:none" points="
  364.999,1325.69 364.999,225.382 
  "/>
<polyline clip-path="url(#clip870)" style="stroke:#000000; stroke-width:4; stroke-opacity:1; fill:none" points="
  364.999,1201.39 387.529,1201.39 
  "/>
<polyline clip-path="url(#clip870)" style="stroke:#000000; stroke-width:4; stroke-opacity:1; fill:none" points="
  364.999,1057.22 387.529,1057.22 
  "/>
<polyline clip-path="url(#clip870)" style="stroke:#000000; stroke-width:4; stroke-opacity:1; fill:none" points="
  364.999,913.052 387.529,913.052 
  "/>
<polyline clip-path="url(#clip870)" style="stroke:#000000; stroke-width:4; stroke-opacity:1; fill:none" points="
  364.999,768.884 387.529,768.884 
  "/>
<polyline clip-path="url(#clip870)" style="stroke:#000000; stroke-width:4; stroke-opacity:1; fill:none" points="
  364.999,624.717 387.529,624.717 
  "/>
<polyline clip-path="url(#clip870)" style="stroke:#000000; stroke-width:4; stroke-opacity:1; fill:none" points="
  364.999,480.549 387.529,480.549 
  "/>
<polyline clip-path="url(#clip870)" style="stroke:#000000; stroke-width:4; stroke-opacity:1; fill:none" points="
  364.999,336.382 387.529,336.382 
  "/>
<g clip-path="url(#clip870)">
<text style="fill:#000000; fill-opacity:1; font-family:Times New Roman,TimesNewRoman,Times,Baskerville,Georgia,serif; font-size:53px; text-anchor:end;" transform="rotate(0, 328.999, 1218.89)" x="328.999" y="1218.89">0.225</text>
</g>
<g clip-path="url(#clip870)">
<text style="fill:#000000; fill-opacity:1; font-family:Times New Roman,TimesNewRoman,Times,Baskerville,Georgia,serif; font-size:53px; text-anchor:end;" transform="rotate(0, 328.999, 1074.72)" x="328.999" y="1074.72">0.250</text>
</g>
<g clip-path="url(#clip870)">
<text style="fill:#000000; fill-opacity:1; font-family:Times New Roman,TimesNewRoman,Times,Baskerville,Georgia,serif; font-size:53px; text-anchor:end;" transform="rotate(0, 328.999, 930.552)" x="328.999" y="930.552">0.275</text>
</g>
<g clip-path="url(#clip870)">
<text style="fill:#000000; fill-opacity:1; font-family:Times New Roman,TimesNewRoman,Times,Baskerville,Georgia,serif; font-size:53px; text-anchor:end;" transform="rotate(0, 328.999, 786.384)" x="328.999" y="786.384">0.300</text>
</g>
<g clip-path="url(#clip870)">
<text style="fill:#000000; fill-opacity:1; font-family:Times New Roman,TimesNewRoman,Times,Baskerville,Georgia,serif; font-size:53px; text-anchor:end;" transform="rotate(0, 328.999, 642.217)" x="328.999" y="642.217">0.325</text>
</g>
<g clip-path="url(#clip870)">
<text style="fill:#000000; fill-opacity:1; font-family:Times New Roman,TimesNewRoman,Times,Baskerville,Georgia,serif; font-size:53px; text-anchor:end;" transform="rotate(0, 328.999, 498.049)" x="328.999" y="498.049">0.350</text>
</g>
<g clip-path="url(#clip870)">
<text style="fill:#000000; fill-opacity:1; font-family:Times New Roman,TimesNewRoman,Times,Baskerville,Georgia,serif; font-size:53px; text-anchor:end;" transform="rotate(0, 328.999, 353.882)" x="328.999" y="353.882">0.375</text>
</g>
<path clip-path="url(#clip870)" d="M 0 0 M139.243 919.936 L139.243 915.676 L165.168 915.676 L165.168 919.936 L139.243 919.936 M129.15 919.936 L129.15 915.676 L134.544 915.676 L134.544 919.936 L129.15 919.936 Z" fill="#000000" fill-rule="evenodd" fill-opacity="1" /><path clip-path="url(#clip870)" d="M 0 0 M149.52 889.658 L165.168 889.658 L165.168 893.917 L149.659 893.917 Q145.979 893.917 144.15 895.352 Q142.321 896.788 142.321 899.658 Q142.321 903.107 144.52 905.098 Q146.719 907.088 150.516 907.088 L165.168 907.088 L165.168 911.371 L139.243 911.371 L139.243 907.088 L143.27 907.088 Q140.932 905.561 139.775 903.5 Q138.618 901.417 138.618 898.709 Q138.618 894.241 141.395 891.95 Q144.15 889.658 149.52 889.658 Z" fill="#000000" fill-rule="evenodd" fill-opacity="1" /><path clip-path="url(#clip870)" d="M 0 0 M129.15 872.065 L132.692 872.065 L132.692 876.14 Q132.692 878.431 133.618 879.334 Q134.544 880.214 136.951 880.214 L139.243 880.214 L139.243 873.2 L142.553 873.2 L142.553 880.214 L165.168 880.214 L165.168 884.496 L142.553 884.496 L142.553 888.57 L139.243 888.57 L139.243 884.496 L137.437 884.496 Q133.108 884.496 131.141 882.482 Q129.15 880.468 129.15 876.093 L129.15 872.065 Z" fill="#000000" fill-rule="evenodd" fill-opacity="1" /><path clip-path="url(#clip870)" d="M 0 0 M151.141 845.422 L153.224 845.422 L153.224 865.005 Q157.622 864.728 159.937 862.366 Q162.229 859.982 162.229 855.746 Q162.229 853.292 161.627 851.001 Q161.025 848.686 159.821 846.417 L163.849 846.417 Q164.821 848.709 165.33 851.116 Q165.84 853.524 165.84 856.001 Q165.84 862.204 162.229 865.839 Q158.617 869.45 152.46 869.45 Q146.094 869.45 142.368 866.024 Q138.618 862.575 138.618 856.741 Q138.618 851.51 141.997 848.478 Q145.354 845.422 151.141 845.422 M149.891 849.681 Q146.395 849.728 144.312 851.649 Q142.229 853.547 142.229 856.695 Q142.229 860.26 144.243 862.413 Q146.256 864.542 149.914 864.866 L149.891 849.681 Z" fill="#000000" fill-rule="evenodd" fill-opacity="1" /><path clip-path="url(#clip870)" d="M 0 0 M140.238 822.297 L144.219 822.297 Q143.224 824.103 142.738 825.931 Q142.229 827.737 142.229 829.589 Q142.229 833.732 144.868 836.024 Q147.483 838.316 152.229 838.316 Q156.974 838.316 159.613 836.024 Q162.229 833.732 162.229 829.589 Q162.229 827.737 161.742 825.931 Q161.233 824.103 160.238 822.297 L164.173 822.297 Q165.006 824.08 165.423 826.001 Q165.84 827.899 165.84 830.052 Q165.84 835.908 162.159 839.357 Q158.479 842.806 152.229 842.806 Q145.886 842.806 142.252 839.334 Q138.618 835.839 138.618 829.774 Q138.618 827.806 139.034 825.931 Q139.428 824.056 140.238 822.297 Z" fill="#000000" fill-rule="evenodd" fill-opacity="1" /><path clip-path="url(#clip870)" d="M 0 0 M131.882 813.617 L139.243 813.617 L139.243 804.844 L142.553 804.844 L142.553 813.617 L156.627 813.617 Q159.798 813.617 160.701 812.76 Q161.604 811.881 161.604 809.219 L161.604 804.844 L165.168 804.844 L165.168 809.219 Q165.168 814.149 163.34 816.024 Q161.488 817.899 156.627 817.899 L142.553 817.899 L142.553 821.024 L139.243 821.024 L139.243 817.899 L131.882 817.899 L131.882 813.617 Z" fill="#000000" fill-rule="evenodd" fill-opacity="1" /><path clip-path="url(#clip870)" d="M 0 0 M151.141 778.2 L153.224 778.2 L153.224 797.783 Q157.622 797.506 159.937 795.145 Q162.229 792.76 162.229 788.524 Q162.229 786.071 161.627 783.779 Q161.025 781.464 159.821 779.196 L163.849 779.196 Q164.821 781.487 165.33 783.895 Q165.84 786.302 165.84 788.779 Q165.84 794.983 162.229 798.617 Q158.617 802.228 152.46 802.228 Q146.094 802.228 142.368 798.802 Q138.618 795.353 138.618 789.52 Q138.618 784.288 141.997 781.256 Q145.354 778.2 151.141 778.2 M149.891 782.459 Q146.395 782.506 144.312 784.427 Q142.229 786.325 142.229 789.473 Q142.229 793.038 144.243 795.191 Q146.256 797.32 149.914 797.645 L149.891 782.459 Z" fill="#000000" fill-rule="evenodd" fill-opacity="1" /><path clip-path="url(#clip870)" d="M 0 0 M143.178 756.673 L129.15 756.673 L129.15 752.413 L165.168 752.413 L165.168 756.673 L161.28 756.673 Q163.594 758.015 164.729 760.075 Q165.84 762.112 165.84 764.983 Q165.84 769.682 162.09 772.645 Q158.34 775.584 152.229 775.584 Q146.118 775.584 142.368 772.645 Q138.618 769.682 138.618 764.983 Q138.618 762.112 139.752 760.075 Q140.863 758.015 143.178 756.673 M152.229 771.186 Q156.928 771.186 159.613 769.265 Q162.275 767.321 162.275 763.941 Q162.275 760.561 159.613 758.617 Q156.928 756.673 152.229 756.673 Q147.53 756.673 144.868 758.617 Q142.182 760.561 142.182 763.941 Q142.182 767.321 144.868 769.265 Q147.53 771.186 152.229 771.186 Z" fill="#000000" fill-rule="evenodd" fill-opacity="1" /><path clip-path="url(#clip870)" d="M 0 0 M161.28 728.756 L175.029 728.756 L175.029 733.038 L139.243 733.038 L139.243 728.756 L143.178 728.756 Q140.863 727.413 139.752 725.376 Q138.618 723.316 138.618 720.469 Q138.618 715.747 142.368 712.807 Q146.118 709.844 152.229 709.844 Q158.34 709.844 162.09 712.807 Q165.84 715.747 165.84 720.469 Q165.84 723.316 164.729 725.376 Q163.594 727.413 161.28 728.756 M152.229 714.265 Q147.53 714.265 144.868 716.21 Q142.182 718.131 142.182 721.511 Q142.182 724.89 144.868 726.835 Q147.53 728.756 152.229 728.756 Q156.928 728.756 159.613 726.835 Q162.275 724.89 162.275 721.511 Q162.275 718.131 159.613 716.21 Q156.928 714.265 152.229 714.265 Z" fill="#000000" fill-rule="evenodd" fill-opacity="1" /><path clip-path="url(#clip870)" d="M 0 0 M151.141 683.201 L153.224 683.201 L153.224 702.784 Q157.622 702.506 159.937 700.145 Q162.229 697.761 162.229 693.525 Q162.229 691.071 161.627 688.779 Q161.025 686.465 159.821 684.196 L163.849 684.196 Q164.821 686.488 165.33 688.895 Q165.84 691.303 165.84 693.779 Q165.84 699.983 162.229 703.617 Q158.617 707.228 152.46 707.228 Q146.094 707.228 142.368 703.802 Q138.618 700.353 138.618 694.52 Q138.618 689.289 141.997 686.256 Q145.354 683.201 151.141 683.201 M149.891 687.46 Q146.395 687.506 144.312 689.428 Q142.229 691.326 142.229 694.474 Q142.229 698.039 144.243 700.191 Q146.256 702.321 149.914 702.645 L149.891 687.46 Z" fill="#000000" fill-rule="evenodd" fill-opacity="1" /><path clip-path="url(#clip870)" d="M 0 0 M152.136 666.951 Q152.136 672.113 153.317 674.104 Q154.497 676.094 157.344 676.094 Q159.613 676.094 160.955 674.613 Q162.275 673.108 162.275 670.539 Q162.275 666.997 159.775 664.867 Q157.252 662.715 153.085 662.715 L152.136 662.715 L152.136 666.951 M150.377 658.455 L165.168 658.455 L165.168 662.715 L161.233 662.715 Q163.594 664.173 164.729 666.349 Q165.84 668.525 165.84 671.673 Q165.84 675.654 163.617 678.016 Q161.372 680.354 157.622 680.354 Q153.247 680.354 151.025 677.437 Q148.803 674.497 148.803 668.687 L148.803 662.715 L148.386 662.715 Q145.446 662.715 143.849 664.659 Q142.229 666.58 142.229 670.076 Q142.229 672.298 142.761 674.404 Q143.293 676.511 144.358 678.455 L140.423 678.455 Q139.52 676.117 139.081 673.918 Q138.618 671.719 138.618 669.636 Q138.618 664.011 141.534 661.233 Q144.451 658.455 150.377 658.455 Z" fill="#000000" fill-rule="evenodd" fill-opacity="1" /><path clip-path="url(#clip870)" d="M 0 0 M129.15 654.15 L129.15 649.868 L150.423 649.868 L139.243 637.159 L139.243 631.72 L151.372 645.469 L165.168 631.141 L165.168 636.696 L152.506 649.868 L165.168 649.868 L165.168 654.15 L129.15 654.15 Z" fill="#000000" fill-rule="evenodd" fill-opacity="1" /><g clip-path="url(#clip870)">
<text style="fill:#000000; fill-opacity:1; font-family:Times New Roman,TimesNewRoman,Times,Baskerville,Georgia,serif; font-size:79px; text-anchor:middle;" transform="rotate(0, 1303.76, 62.4)" x="1303.76" y="62.4">SIR</text>
</g>
<polyline clip-path="url(#clip872)" style="stroke:#009af9; stroke-width:12; stroke-opacity:1; fill:none" points="
  418.136,268.78 451.556,354.541 484.975,430.464 518.395,498.355 551.815,559.483 585.235,615.054 618.654,665.416 652.074,711.94 685.494,754.756 718.914,794.262 
  752.333,830.675 785.753,864.945 819.173,897.156 852.593,926.731 886.012,954.976 919.432,981.716 952.852,1006.64 986.272,1030.55 1019.69,1053.06 1053.11,1072.4 
  1086.53,1088.07 1119.95,1102.62 1153.37,1116.04 1186.79,1128.35 1220.21,1140.64 1253.63,1151.81 1287.05,1161.86 1320.47,1170.78 1353.89,1180.81 1387.31,1188.6 
  1420.73,1196.39 1454.15,1204.17 1487.57,1210.83 1520.99,1217.48 1554.41,1224.13 1587.83,1229.67 1621.25,1235.2 1654.67,1240.72 1688.09,1246.24 1721.51,1250.65 
  1754.93,1255.06 1788.35,1259.46 1821.77,1262.76 1855.18,1267.16 1888.6,1270.46 1922.02,1273.75 1955.44,1277.04 1988.86,1279.23 2022.28,1282.52 2055.7,1284.71 
  2089.12,1287.99 2122.54,1290.18 2155.96,1292.37 2189.38,1294.55 
  "/>
<polyline clip-path="url(#clip872)" style="stroke:#e26f46; stroke-width:12; stroke-opacity:1; fill:none" stroke-dasharray="48, 30" points="
  418.136,256.523 451.556,325.384 484.975,383.195 518.395,446.41 551.815,504.444 585.235,556.45 618.654,604.928 652.074,647.802 685.494,687.122 718.914,723.397 
  752.333,757.323 785.753,787.619 819.173,815.129 852.593,841.863 886.012,865.595 919.432,887.319 952.852,908.078 986.272,926.741 1019.69,944.374 1053.11,960.958 
  1086.53,976.478 1119.95,990.922 1153.37,1004.28 1186.79,1016.54 1220.21,1028.81 1253.63,1039.98 1287.05,1050.04 1320.47,1058.98 1353.89,1069.05 1387.31,1076.88 
  1420.73,1084.71 1454.15,1092.55 1487.57,1099.26 1520.99,1105.97 1554.41,1112.69 1587.83,1118.28 1621.25,1123.87 1654.67,1129.46 1688.09,1135.05 1721.51,1139.52 
  1754.93,1143.99 1788.35,1148.46 1821.77,1151.81 1855.18,1156.28 1888.6,1159.63 1922.02,1162.97 1955.44,1166.32 1988.86,1168.55 2022.28,1171.89 2055.7,1174.12 
  2089.12,1177.47 2122.54,1179.69 2155.96,1181.92 2189.38,1184.15 
  "/>
<path clip-path="url(#clip870)" d="
M1592.83 443.499 L2179.94 443.499 L2179.94 262.059 L1592.83 262.059  Z
  " fill="#ffffff" fill-rule="evenodd" fill-opacity="1"/>
<polyline clip-path="url(#clip870)" style="stroke:#000000; stroke-width:4; stroke-opacity:1; fill:none" points="
  1592.83,443.499 2179.94,443.499 2179.94,262.059 1592.83,262.059 1592.83,443.499 
  "/>
<polyline clip-path="url(#clip870)" style="stroke:#009af9; stroke-width:4; stroke-opacity:1; fill:none" points="
  1613.69,322.539 1738.86,322.539 
  "/>
<g clip-path="url(#clip870)">
<text style="fill:#000000; fill-opacity:1; font-family:Times New Roman,TimesNewRoman,Times,Baskerville,Georgia,serif; font-size:53px; text-anchor:start;" transform="rotate(0, 1759.72, 340.039)" x="1759.72" y="340.039">approximation</text>
</g>
<polyline clip-path="url(#clip870)" style="stroke:#e26f46; stroke-width:4; stroke-opacity:1; fill:none" stroke-dasharray="16, 10" points="
  1613.69,383.019 1738.86,383.019 
  "/>
<g clip-path="url(#clip870)">
<text style="fill:#000000; fill-opacity:1; font-family:Times New Roman,TimesNewRoman,Times,Baskerville,Georgia,serif; font-size:53px; text-anchor:start;" transform="rotate(0, 1759.72, 400.519)" x="1759.72" y="400.519">optimal lockdown</text>
</g>
</svg>
