<?xml version="1.0" encoding="utf-8"?>
<svg xmlns="http://www.w3.org/2000/svg" xmlns:xlink="http://www.w3.org/1999/xlink" width="600" height="400" viewBox="0 0 2400 1600">
<defs>
  <clipPath id="clip760">
    <rect x="0" y="0" width="2400" height="1600"/>
  </clipPath>
</defs>
<path clip-path="url(#clip760)" d="
M0 1600 L2400 1600 L2400 0 L0 0  Z
  " fill="#ffffff" fill-rule="evenodd" fill-opacity="1"/>
<defs>
  <clipPath id="clip761">
    <rect x="480" y="0" width="1681" height="1600"/>
  </clipPath>
</defs>
<path clip-path="url(#clip760)" d="
M338.896 1325.69 L2242.52 1325.69 L2242.52 225.382 L338.896 225.382  Z
  " fill="#ffffff" fill-rule="evenodd" fill-opacity="1"/>
<defs>
  <clipPath id="clip762">
    <rect x="338" y="225" width="1905" height="1101"/>
  </clipPath>
</defs>
<polyline clip-path="url(#clip762)" style="stroke:#000000; stroke-width:2; stroke-opacity:0.1; fill:none" points="
  358.888,1325.69 358.888,225.382 
  "/>
<polyline clip-path="url(#clip762)" style="stroke:#000000; stroke-width:2; stroke-opacity:0.1; fill:none" points="
  697.731,1325.69 697.731,225.382 
  "/>
<polyline clip-path="url(#clip762)" style="stroke:#000000; stroke-width:2; stroke-opacity:0.1; fill:none" points="
  1036.58,1325.69 1036.58,225.382 
  "/>
<polyline clip-path="url(#clip762)" style="stroke:#000000; stroke-width:2; stroke-opacity:0.1; fill:none" points="
  1375.42,1325.69 1375.42,225.382 
  "/>
<polyline clip-path="url(#clip762)" style="stroke:#000000; stroke-width:2; stroke-opacity:0.1; fill:none" points="
  1714.26,1325.69 1714.26,225.382 
  "/>
<polyline clip-path="url(#clip762)" style="stroke:#000000; stroke-width:2; stroke-opacity:0.1; fill:none" points="
  2053.11,1325.69 2053.11,225.382 
  "/>
<polyline clip-path="url(#clip760)" style="stroke:#000000; stroke-width:4; stroke-opacity:1; fill:none" points="
  338.896,1325.69 2242.52,1325.69 
  "/>
<polyline clip-path="url(#clip760)" style="stroke:#000000; stroke-width:4; stroke-opacity:1; fill:none" points="
  358.888,1325.69 358.888,1312.49 
  "/>
<polyline clip-path="url(#clip760)" style="stroke:#000000; stroke-width:4; stroke-opacity:1; fill:none" points="
  697.731,1325.69 697.731,1312.49 
  "/>
<polyline clip-path="url(#clip760)" style="stroke:#000000; stroke-width:4; stroke-opacity:1; fill:none" points="
  1036.58,1325.69 1036.58,1312.49 
  "/>
<polyline clip-path="url(#clip760)" style="stroke:#000000; stroke-width:4; stroke-opacity:1; fill:none" points="
  1375.42,1325.69 1375.42,1312.49 
  "/>
<polyline clip-path="url(#clip760)" style="stroke:#000000; stroke-width:4; stroke-opacity:1; fill:none" points="
  1714.26,1325.69 1714.26,1312.49 
  "/>
<polyline clip-path="url(#clip760)" style="stroke:#000000; stroke-width:4; stroke-opacity:1; fill:none" points="
  2053.11,1325.69 2053.11,1312.49 
  "/>
<g clip-path="url(#clip760)">
<text style="fill:#000000; fill-opacity:1; font-family:Times New Roman,TimesNewRoman,Times,Baskerville,Georgia,serif; font-size:53px; text-anchor:middle;" transform="rotate(0, 358.888, 1386.89)" x="358.888" y="1386.89">0</text>
</g>
<g clip-path="url(#clip760)">
<text style="fill:#000000; fill-opacity:1; font-family:Times New Roman,TimesNewRoman,Times,Baskerville,Georgia,serif; font-size:53px; text-anchor:middle;" transform="rotate(0, 697.731, 1386.89)" x="697.731" y="1386.89">10</text>
</g>
<g clip-path="url(#clip760)">
<text style="fill:#000000; fill-opacity:1; font-family:Times New Roman,TimesNewRoman,Times,Baskerville,Georgia,serif; font-size:53px; text-anchor:middle;" transform="rotate(0, 1036.58, 1386.89)" x="1036.58" y="1386.89">20</text>
</g>
<g clip-path="url(#clip760)">
<text style="fill:#000000; fill-opacity:1; font-family:Times New Roman,TimesNewRoman,Times,Baskerville,Georgia,serif; font-size:53px; text-anchor:middle;" transform="rotate(0, 1375.42, 1386.89)" x="1375.42" y="1386.89">30</text>
</g>
<g clip-path="url(#clip760)">
<text style="fill:#000000; fill-opacity:1; font-family:Times New Roman,TimesNewRoman,Times,Baskerville,Georgia,serif; font-size:53px; text-anchor:middle;" transform="rotate(0, 1714.26, 1386.89)" x="1714.26" y="1386.89">40</text>
</g>
<g clip-path="url(#clip760)">
<text style="fill:#000000; fill-opacity:1; font-family:Times New Roman,TimesNewRoman,Times,Baskerville,Georgia,serif; font-size:53px; text-anchor:middle;" transform="rotate(0, 2053.11, 1386.89)" x="2053.11" y="1386.89">50</text>
</g>
<path clip-path="url(#clip760)" d="M 0 0 M1085.77 1420.76 L1090.44 1420.76 L1090.44 1451.38 L1107.27 1451.38 L1107.27 1455.32 L1085.77 1455.32 L1085.77 1420.76 Z" fill="#000000" fill-rule="evenodd" fill-opacity="1" /><path clip-path="url(#clip760)" d="M 0 0 M1120.95 1432.38 Q1117.53 1432.38 1115.54 1435.07 Q1113.54 1437.73 1113.54 1442.38 Q1113.54 1447.03 1115.51 1449.72 Q1117.5 1452.38 1120.95 1452.38 Q1124.35 1452.38 1126.35 1449.7 Q1128.34 1447.01 1128.34 1442.38 Q1128.34 1437.77 1126.35 1435.09 Q1124.35 1432.38 1120.95 1432.38 M1120.95 1428.77 Q1126.51 1428.77 1129.68 1432.38 Q1132.85 1435.99 1132.85 1442.38 Q1132.85 1448.75 1129.68 1452.38 Q1126.51 1455.99 1120.95 1455.99 Q1115.37 1455.99 1112.2 1452.38 Q1109.05 1448.75 1109.05 1442.38 Q1109.05 1435.99 1112.2 1432.38 Q1115.37 1428.77 1120.95 1428.77 Z" fill="#000000" fill-rule="evenodd" fill-opacity="1" /><path clip-path="url(#clip760)" d="M 0 0 M1155.97 1430.39 L1155.97 1434.37 Q1154.17 1433.38 1152.34 1432.89 Q1150.53 1432.38 1148.68 1432.38 Q1144.54 1432.38 1142.25 1435.02 Q1139.96 1437.63 1139.96 1442.38 Q1139.96 1447.13 1142.25 1449.76 Q1144.54 1452.38 1148.68 1452.38 Q1150.53 1452.38 1152.34 1451.89 Q1154.17 1451.38 1155.97 1450.39 L1155.97 1454.32 Q1154.19 1455.16 1152.27 1455.57 Q1150.37 1455.99 1148.22 1455.99 Q1142.36 1455.99 1138.91 1452.31 Q1135.47 1448.63 1135.47 1442.38 Q1135.47 1436.04 1138.94 1432.4 Q1142.43 1428.77 1148.5 1428.77 Q1150.47 1428.77 1152.34 1429.19 Q1154.22 1429.58 1155.97 1430.39 Z" fill="#000000" fill-rule="evenodd" fill-opacity="1" /><path clip-path="url(#clip760)" d="M 0 0 M1160.28 1419.3 L1164.56 1419.3 L1164.56 1440.57 L1177.27 1429.39 L1182.71 1429.39 L1168.96 1441.52 L1183.29 1455.32 L1177.73 1455.32 L1164.56 1442.66 L1164.56 1455.32 L1160.28 1455.32 L1160.28 1419.3 Z" fill="#000000" fill-rule="evenodd" fill-opacity="1" /><path clip-path="url(#clip760)" d="M 0 0 M1204.82 1433.33 L1204.82 1419.3 L1209.08 1419.3 L1209.08 1455.32 L1204.82 1455.32 L1204.82 1451.43 Q1203.47 1453.75 1201.41 1454.88 Q1199.38 1455.99 1196.51 1455.99 Q1191.81 1455.99 1188.84 1452.24 Q1185.91 1448.49 1185.91 1442.38 Q1185.91 1436.27 1188.84 1432.52 Q1191.81 1428.77 1196.51 1428.77 Q1199.38 1428.77 1201.41 1429.9 Q1203.47 1431.01 1204.82 1433.33 M1190.3 1442.38 Q1190.3 1447.08 1192.22 1449.76 Q1194.17 1452.43 1197.55 1452.43 Q1200.93 1452.43 1202.87 1449.76 Q1204.82 1447.08 1204.82 1442.38 Q1204.82 1437.68 1202.87 1435.02 Q1200.93 1432.33 1197.55 1432.33 Q1194.17 1432.33 1192.22 1435.02 Q1190.3 1437.68 1190.3 1442.38 Z" fill="#000000" fill-rule="evenodd" fill-opacity="1" /><path clip-path="url(#clip760)" d="M 0 0 M1223.59 1432.38 Q1220.16 1432.38 1218.17 1435.07 Q1216.18 1437.73 1216.18 1442.38 Q1216.18 1447.03 1218.15 1449.72 Q1220.14 1452.38 1223.59 1452.38 Q1226.99 1452.38 1228.98 1449.7 Q1230.97 1447.01 1230.97 1442.38 Q1230.97 1437.77 1228.98 1435.09 Q1226.99 1432.38 1223.59 1432.38 M1223.59 1428.77 Q1229.15 1428.77 1232.32 1432.38 Q1235.49 1435.99 1235.49 1442.38 Q1235.49 1448.75 1232.32 1452.38 Q1229.15 1455.99 1223.59 1455.99 Q1218.01 1455.99 1214.84 1452.38 Q1211.69 1448.75 1211.69 1442.38 Q1211.69 1435.99 1214.84 1432.38 Q1218.01 1428.77 1223.59 1428.77 Z" fill="#000000" fill-rule="evenodd" fill-opacity="1" /><path clip-path="url(#clip760)" d="M 0 0 M1237.48 1429.39 L1241.74 1429.39 L1247.06 1449.63 L1252.36 1429.39 L1257.39 1429.39 L1262.71 1449.63 L1268.01 1429.39 L1272.27 1429.39 L1265.49 1455.32 L1260.46 1455.32 L1254.89 1434.07 L1249.28 1455.32 L1244.26 1455.32 L1237.48 1429.39 Z" fill="#000000" fill-rule="evenodd" fill-opacity="1" /><path clip-path="url(#clip760)" d="M 0 0 M1298.29 1439.67 L1298.29 1455.32 L1294.03 1455.32 L1294.03 1439.81 Q1294.03 1436.13 1292.59 1434.3 Q1291.16 1432.47 1288.29 1432.47 Q1284.84 1432.47 1282.85 1434.67 Q1280.86 1436.87 1280.86 1440.67 L1280.86 1455.32 L1276.58 1455.32 L1276.58 1429.39 L1280.86 1429.39 L1280.86 1433.42 Q1282.39 1431.08 1284.45 1429.93 Q1286.53 1428.77 1289.24 1428.77 Q1293.71 1428.77 1296 1431.55 Q1298.29 1434.3 1298.29 1439.67 Z" fill="#000000" fill-rule="evenodd" fill-opacity="1" /><path clip-path="url(#clip760)" d="M 0 0 M1322.69 1424.6 L1322.69 1451.48 L1328.33 1451.48 Q1335.49 1451.48 1338.8 1448.24 Q1342.13 1445 1342.13 1438.01 Q1342.13 1431.06 1338.8 1427.84 Q1335.49 1424.6 1328.33 1424.6 L1322.69 1424.6 M1318.01 1420.76 L1327.62 1420.76 Q1337.66 1420.76 1342.36 1424.95 Q1347.06 1429.12 1347.06 1438.01 Q1347.06 1446.94 1342.34 1451.13 Q1337.62 1455.32 1327.62 1455.32 L1318.01 1455.32 L1318.01 1420.76 Z" fill="#000000" fill-rule="evenodd" fill-opacity="1" /><path clip-path="url(#clip760)" d="M 0 0 M1351.09 1445.09 L1351.09 1429.39 L1355.35 1429.39 L1355.35 1444.93 Q1355.35 1448.61 1356.78 1450.46 Q1358.22 1452.29 1361.09 1452.29 Q1364.54 1452.29 1366.53 1450.09 Q1368.54 1447.89 1368.54 1444.09 L1368.54 1429.39 L1372.8 1429.39 L1372.8 1455.32 L1368.54 1455.32 L1368.54 1451.34 Q1366.99 1453.7 1364.93 1454.86 Q1362.89 1455.99 1360.19 1455.99 Q1355.72 1455.99 1353.4 1453.21 Q1351.09 1450.44 1351.09 1445.09 M1361.81 1428.77 L1361.81 1428.77 Z" fill="#000000" fill-rule="evenodd" fill-opacity="1" /><path clip-path="url(#clip760)" d="M 0 0 M1392.29 1433.38 Q1391.58 1432.96 1390.72 1432.77 Q1389.89 1432.57 1388.87 1432.57 Q1385.26 1432.57 1383.31 1434.93 Q1381.39 1437.26 1381.39 1441.66 L1381.39 1455.32 L1377.11 1455.32 L1377.11 1429.39 L1381.39 1429.39 L1381.39 1433.42 Q1382.73 1431.06 1384.89 1429.93 Q1387.04 1428.77 1390.12 1428.77 Q1390.56 1428.77 1391.09 1428.84 Q1391.62 1428.88 1392.27 1429 L1392.29 1433.38 Z" fill="#000000" fill-rule="evenodd" fill-opacity="1" /><path clip-path="url(#clip760)" d="M 0 0 M1408.54 1442.29 Q1403.38 1442.29 1401.39 1443.47 Q1399.4 1444.65 1399.4 1447.5 Q1399.4 1449.76 1400.88 1451.11 Q1402.39 1452.43 1404.95 1452.43 Q1408.5 1452.43 1410.63 1449.93 Q1412.78 1447.4 1412.78 1443.24 L1412.78 1442.29 L1408.54 1442.29 M1417.04 1440.53 L1417.04 1455.32 L1412.78 1455.32 L1412.78 1451.38 Q1411.32 1453.75 1409.14 1454.88 Q1406.97 1455.99 1403.82 1455.99 Q1399.84 1455.99 1397.48 1453.77 Q1395.14 1451.52 1395.14 1447.77 Q1395.14 1443.4 1398.06 1441.18 Q1401 1438.95 1406.81 1438.95 L1412.78 1438.95 L1412.78 1438.54 Q1412.78 1435.6 1410.83 1434 Q1408.91 1432.38 1405.42 1432.38 Q1403.2 1432.38 1401.09 1432.91 Q1398.98 1433.45 1397.04 1434.51 L1397.04 1430.57 Q1399.38 1429.67 1401.58 1429.23 Q1403.77 1428.77 1405.86 1428.77 Q1411.48 1428.77 1414.26 1431.69 Q1417.04 1434.6 1417.04 1440.53 Z" fill="#000000" fill-rule="evenodd" fill-opacity="1" /><path clip-path="url(#clip760)" d="M 0 0 M1425.72 1422.03 L1425.72 1429.39 L1434.49 1429.39 L1434.49 1432.7 L1425.72 1432.7 L1425.72 1446.78 Q1425.72 1449.95 1426.58 1450.85 Q1427.45 1451.76 1430.12 1451.76 L1434.49 1451.76 L1434.49 1455.32 L1430.12 1455.32 Q1425.19 1455.32 1423.31 1453.49 Q1421.44 1451.64 1421.44 1446.78 L1421.44 1432.7 L1418.31 1432.7 L1418.31 1429.39 L1421.44 1429.39 L1421.44 1422.03 L1425.72 1422.03 Z" fill="#000000" fill-rule="evenodd" fill-opacity="1" /><path clip-path="url(#clip760)" d="M 0 0 M1438.96 1429.39 L1443.22 1429.39 L1443.22 1455.32 L1438.96 1455.32 L1438.96 1429.39 M1438.96 1419.3 L1443.22 1419.3 L1443.22 1424.7 L1438.96 1424.7 L1438.96 1419.3 Z" fill="#000000" fill-rule="evenodd" fill-opacity="1" /><path clip-path="url(#clip760)" d="M 0 0 M1457.73 1432.38 Q1454.31 1432.38 1452.32 1435.07 Q1450.32 1437.73 1450.32 1442.38 Q1450.32 1447.03 1452.29 1449.72 Q1454.28 1452.38 1457.73 1452.38 Q1461.14 1452.38 1463.13 1449.7 Q1465.12 1447.01 1465.12 1442.38 Q1465.12 1437.77 1463.13 1435.09 Q1461.14 1432.38 1457.73 1432.38 M1457.73 1428.77 Q1463.29 1428.77 1466.46 1432.38 Q1469.63 1435.99 1469.63 1442.38 Q1469.63 1448.75 1466.46 1452.38 Q1463.29 1455.99 1457.73 1455.99 Q1452.15 1455.99 1448.98 1452.38 Q1445.83 1448.75 1445.83 1442.38 Q1445.83 1435.99 1448.98 1432.38 Q1452.15 1428.77 1457.73 1428.77 Z" fill="#000000" fill-rule="evenodd" fill-opacity="1" /><path clip-path="url(#clip760)" d="M 0 0 M1495.65 1439.67 L1495.65 1455.32 L1491.39 1455.32 L1491.39 1439.81 Q1491.39 1436.13 1489.95 1434.3 Q1488.52 1432.47 1485.65 1432.47 Q1482.2 1432.47 1480.21 1434.67 Q1478.22 1436.87 1478.22 1440.67 L1478.22 1455.32 L1473.94 1455.32 L1473.94 1429.39 L1478.22 1429.39 L1478.22 1433.42 Q1479.75 1431.08 1481.81 1429.93 Q1483.89 1428.77 1486.6 1428.77 Q1491.07 1428.77 1493.36 1431.55 Q1495.65 1434.3 1495.65 1439.67 Z" fill="#000000" fill-rule="evenodd" fill-opacity="1" /><polyline clip-path="url(#clip762)" style="stroke:#000000; stroke-width:2; stroke-opacity:0.1; fill:none" points="
  338.896,1294.55 2242.52,1294.55 
  "/>
<polyline clip-path="url(#clip762)" style="stroke:#000000; stroke-width:2; stroke-opacity:0.1; fill:none" points="
  338.896,1035.05 2242.52,1035.05 
  "/>
<polyline clip-path="url(#clip762)" style="stroke:#000000; stroke-width:2; stroke-opacity:0.1; fill:none" points="
  338.896,775.538 2242.52,775.538 
  "/>
<polyline clip-path="url(#clip762)" style="stroke:#000000; stroke-width:2; stroke-opacity:0.1; fill:none" points="
  338.896,516.03 2242.52,516.03 
  "/>
<polyline clip-path="url(#clip762)" style="stroke:#000000; stroke-width:2; stroke-opacity:0.1; fill:none" points="
  338.896,256.523 2242.52,256.523 
  "/>
<polyline clip-path="url(#clip760)" style="stroke:#000000; stroke-width:4; stroke-opacity:1; fill:none" points="
  338.896,1325.69 338.896,225.382 
  "/>
<polyline clip-path="url(#clip760)" style="stroke:#000000; stroke-width:4; stroke-opacity:1; fill:none" points="
  338.896,1294.55 361.739,1294.55 
  "/>
<polyline clip-path="url(#clip760)" style="stroke:#000000; stroke-width:4; stroke-opacity:1; fill:none" points="
  338.896,1035.05 361.739,1035.05 
  "/>
<polyline clip-path="url(#clip760)" style="stroke:#000000; stroke-width:4; stroke-opacity:1; fill:none" points="
  338.896,775.538 361.739,775.538 
  "/>
<polyline clip-path="url(#clip760)" style="stroke:#000000; stroke-width:4; stroke-opacity:1; fill:none" points="
  338.896,516.03 361.739,516.03 
  "/>
<polyline clip-path="url(#clip760)" style="stroke:#000000; stroke-width:4; stroke-opacity:1; fill:none" points="
  338.896,256.523 361.739,256.523 
  "/>
<g clip-path="url(#clip760)">
<text style="fill:#000000; fill-opacity:1; font-family:Times New Roman,TimesNewRoman,Times,Baskerville,Georgia,serif; font-size:53px; text-anchor:end;" transform="rotate(0, 302.896, 1312.05)" x="302.896" y="1312.05">0.00</text>
</g>
<g clip-path="url(#clip760)">
<text style="fill:#000000; fill-opacity:1; font-family:Times New Roman,TimesNewRoman,Times,Baskerville,Georgia,serif; font-size:53px; text-anchor:end;" transform="rotate(0, 302.896, 1052.55)" x="302.896" y="1052.55">0.25</text>
</g>
<g clip-path="url(#clip760)">
<text style="fill:#000000; fill-opacity:1; font-family:Times New Roman,TimesNewRoman,Times,Baskerville,Georgia,serif; font-size:53px; text-anchor:end;" transform="rotate(0, 302.896, 793.038)" x="302.896" y="793.038">0.50</text>
</g>
<g clip-path="url(#clip760)">
<text style="fill:#000000; fill-opacity:1; font-family:Times New Roman,TimesNewRoman,Times,Baskerville,Georgia,serif; font-size:53px; text-anchor:end;" transform="rotate(0, 302.896, 533.53)" x="302.896" y="533.53">0.75</text>
</g>
<g clip-path="url(#clip760)">
<text style="fill:#000000; fill-opacity:1; font-family:Times New Roman,TimesNewRoman,Times,Baskerville,Georgia,serif; font-size:53px; text-anchor:end;" transform="rotate(0, 302.896, 274.023)" x="302.896" y="274.023">1.00</text>
</g>
<path clip-path="url(#clip760)" d="M 0 0 M149.96 825.955 Q149.96 827.968 151.673 829.126 Q153.386 830.26 156.442 830.26 Q159.451 830.26 161.187 829.126 Q162.9 827.968 162.9 825.955 Q162.9 823.987 161.187 822.853 Q159.451 821.695 156.442 821.695 Q153.409 821.695 151.696 822.853 Q149.96 823.987 149.96 825.955 M147.02 825.955 Q147.02 822.297 149.567 820.144 Q152.113 817.992 156.442 817.992 Q160.77 817.992 163.317 820.168 Q165.84 822.32 165.84 825.955 Q165.84 829.658 163.317 831.811 Q160.77 833.964 156.442 833.964 Q152.09 833.964 149.567 831.811 Q147.02 829.635 147.02 825.955 M132.923 849.843 Q132.923 851.834 134.659 852.991 Q136.372 854.126 139.381 854.126 Q142.437 854.126 144.15 852.991 Q145.863 851.857 145.863 849.843 Q145.863 847.829 144.15 846.695 Q142.437 845.538 139.381 845.538 Q136.395 845.538 134.659 846.695 Q132.923 847.853 132.923 849.843 M129.983 828.941 L129.983 825.237 L165.84 846.857 L165.84 850.561 L129.983 828.941 M129.983 849.843 Q129.983 846.186 132.53 844.01 Q135.053 841.834 139.381 841.834 Q143.756 841.834 146.28 844.01 Q148.803 846.163 148.803 849.843 Q148.803 853.524 146.28 855.677 Q143.733 857.806 139.381 857.806 Q135.076 857.806 132.53 855.654 Q129.983 853.501 129.983 849.843 Z" fill="#000000" fill-rule="evenodd" fill-opacity="1" /><path clip-path="url(#clip760)" d="M 0 0 M151.141 776.279 L153.224 776.279 L153.224 795.862 Q157.622 795.584 159.937 793.223 Q162.229 790.839 162.229 786.603 Q162.229 784.149 161.627 781.858 Q161.025 779.543 159.821 777.274 L163.849 777.274 Q164.821 779.566 165.33 781.973 Q165.84 784.381 165.84 786.858 Q165.84 793.061 162.229 796.695 Q158.617 800.307 152.46 800.307 Q146.094 800.307 142.368 796.881 Q138.618 793.432 138.618 787.598 Q138.618 782.367 141.997 779.334 Q145.354 776.279 151.141 776.279 M149.891 780.538 Q146.395 780.584 144.312 782.506 Q142.229 784.404 142.229 787.552 Q142.229 791.117 144.243 793.27 Q146.256 795.399 149.914 795.723 L149.891 780.538 Z" fill="#000000" fill-rule="evenodd" fill-opacity="1" /><path clip-path="url(#clip760)" d="M 0 0 M143.224 756.788 Q142.807 757.506 142.622 758.362 Q142.414 759.196 142.414 760.214 Q142.414 763.825 144.775 765.77 Q147.113 767.691 151.511 767.691 L165.168 767.691 L165.168 771.973 L139.243 771.973 L139.243 767.691 L143.27 767.691 Q140.909 766.348 139.775 764.196 Q138.618 762.043 138.618 758.964 Q138.618 758.524 138.687 757.992 Q138.733 757.46 138.849 756.811 L143.224 756.788 Z" fill="#000000" fill-rule="evenodd" fill-opacity="1" /><path clip-path="url(#clip760)" d="M 0 0 M143.224 738.131 Q142.807 738.849 142.622 739.705 Q142.414 740.538 142.414 741.557 Q142.414 745.168 144.775 747.112 Q147.113 749.034 151.511 749.034 L165.168 749.034 L165.168 753.316 L139.243 753.316 L139.243 749.034 L143.27 749.034 Q140.909 747.691 139.775 745.538 Q138.618 743.386 138.618 740.307 Q138.618 739.867 138.687 739.335 Q138.733 738.802 138.849 738.154 L143.224 738.131 Z" fill="#000000" fill-rule="evenodd" fill-opacity="1" /><path clip-path="url(#clip760)" d="M 0 0 M142.229 724.659 Q142.229 728.085 144.914 730.075 Q147.576 732.066 152.229 732.066 Q156.881 732.066 159.567 730.099 Q162.229 728.108 162.229 724.659 Q162.229 721.256 159.543 719.265 Q156.858 717.275 152.229 717.275 Q147.622 717.275 144.937 719.265 Q142.229 721.256 142.229 724.659 M138.618 724.659 Q138.618 719.103 142.229 715.932 Q145.84 712.761 152.229 712.761 Q158.594 712.761 162.229 715.932 Q165.84 719.103 165.84 724.659 Q165.84 730.238 162.229 733.409 Q158.594 736.557 152.229 736.557 Q145.84 736.557 142.229 733.409 Q138.618 730.238 138.618 724.659 Z" fill="#000000" fill-rule="evenodd" fill-opacity="1" /><path clip-path="url(#clip760)" d="M 0 0 M143.224 693.27 Q142.807 693.988 142.622 694.844 Q142.414 695.678 142.414 696.696 Q142.414 700.307 144.775 702.252 Q147.113 704.173 151.511 704.173 L165.168 704.173 L165.168 708.455 L139.243 708.455 L139.243 704.173 L143.27 704.173 Q140.909 702.83 139.775 700.677 Q138.618 698.525 138.618 695.446 Q138.618 695.006 138.687 694.474 Q138.733 693.941 138.849 693.293 L143.224 693.27 Z" fill="#000000" fill-rule="evenodd" fill-opacity="1" /><g clip-path="url(#clip760)">
<text style="fill:#000000; fill-opacity:1; font-family:Times New Roman,TimesNewRoman,Times,Baskerville,Georgia,serif; font-size:79px; text-anchor:middle;" transform="rotate(0, 1290.71, 62.4)" x="1290.71" y="62.4">βl/βn=0.0</text>
</g>
<polyline clip-path="url(#clip762)" style="stroke:#009af9; stroke-width:12; stroke-opacity:1; fill:none" points="
  392.772,1294.55 426.656,1294.55 460.541,1294.55 494.425,1294.55 528.31,1294.55 562.194,1294.55 596.078,1294.55 629.963,1294.55 663.847,1294.55 697.731,1294.55 
  731.616,1294.55 765.5,1294.55 799.384,1294.55 833.269,1294.55 867.153,1294.55 901.038,1294.55 934.922,1294.55 968.806,1294.55 1002.69,1294.55 1036.58,1294.55 
  1070.46,1294.55 1104.34,1294.55 1138.23,1294.55 1172.11,1294.55 1206,1294.55 1239.88,1294.55 1273.77,1294.55 1307.65,1294.55 1341.53,1294.55 1375.42,1294.55 
  1409.3,1294.55 1443.19,1294.55 1477.07,1294.55 1510.96,1294.55 1544.84,1294.55 1578.72,1294.55 1612.61,1294.55 1646.49,1294.55 1680.38,1294.55 1714.26,1294.55 
  1748.15,1294.55 1782.03,1294.55 1815.92,1294.55 1849.8,1294.55 1883.68,1294.55 1917.57,1294.55 1951.45,1294.55 1985.34,1294.55 2019.22,1294.55 2053.11,1294.55 
  2086.99,1294.55 2120.87,1294.55 2154.76,1294.55 2188.64,1294.55 
  "/>
</svg>
